<svg width="20" height="20" viewBox="0 0 20 20" fill="none" xmlns="http://www.w3.org/2000/svg">
<path d="M9.99992 19.9998C15.514 19.9998 19.9998 15.514 19.9998 9.99992C19.9998 4.48588 15.514 0 9.99992 0C4.48588 0 0 4.48588 0 9.99992C0 15.514 4.48588 19.9998 9.99992 19.9998ZM9.16673 1.70804V2.70786C9.16673 2.92884 9.25452 3.14076 9.41077 3.29701C9.56702 3.45327 9.77895 3.54105 9.99992 3.54105C10.2209 3.54105 10.4328 3.45327 10.5891 3.29701C10.7453 3.14076 10.8331 2.92884 10.8331 2.70786V1.70804C14.7641 2.09963 17.8994 5.23575 18.2918 9.16673H17.292C17.071 9.16673 16.8591 9.25452 16.7028 9.41077C16.5466 9.56702 16.4588 9.77895 16.4588 9.99992C16.4588 10.2209 16.5466 10.4328 16.7028 10.5891C16.8591 10.7453 17.071 10.8331 17.292 10.8331H18.2918C17.9002 14.7641 14.7641 17.8994 10.8331 18.2918V17.292C10.8331 17.071 10.7453 16.8591 10.5891 16.7028C10.4328 16.5466 10.2209 16.4588 9.99992 16.4588C9.77895 16.4588 9.56702 16.5466 9.41077 16.7028C9.25452 16.8591 9.16673 17.071 9.16673 17.292V18.2918C5.23575 17.9002 2.10047 14.7641 1.70804 10.8331H2.70786C2.92884 10.8331 3.14076 10.7453 3.29701 10.5891C3.45327 10.4328 3.54105 10.2209 3.54105 9.99992C3.54105 9.77895 3.45327 9.56702 3.29701 9.41077C3.14076 9.25452 2.92884 9.16673 2.70786 9.16673H1.70804C2.09963 5.23575 5.23575 2.10047 9.16673 1.70804Z" fill="white"/>
<path d="M6.66551 10.8331H9.99992C10.2209 10.8331 10.4328 10.7453 10.589 10.589L14.1317 7.04628C14.2113 6.96942 14.2748 6.87749 14.3184 6.77583C14.3621 6.67418 14.3851 6.56485 14.386 6.45422C14.387 6.34359 14.3659 6.23388 14.324 6.13148C14.2821 6.02908 14.2203 5.93606 14.142 5.85783C14.0638 5.7796 13.9708 5.71773 13.8684 5.67584C13.766 5.63394 13.6563 5.61286 13.5456 5.61382C13.435 5.61478 13.3257 5.63777 13.224 5.68144C13.1224 5.7251 13.0304 5.78858 12.9536 5.86815L9.65415 9.16675H6.66634C6.44536 9.16675 6.23344 9.25453 6.07719 9.41078C5.92093 9.56703 5.83315 9.77896 5.83315 9.99993C5.83315 10.2209 5.92093 10.4328 6.07719 10.5891C6.23344 10.7453 6.44453 10.8331 6.66551 10.8331Z" fill="white"/>
</svg>
