<svg width="96" height="96" viewBox="0 0 96 96" fill="none" xmlns="http://www.w3.org/2000/svg">
<path d="M44.2157 55.7834C46.248 55.0456 47.5293 53.3447 49.946 53.5567C54.2403 53.9367 57.2844 58.7612 61.4197 55.4874C66.421 51.52 65.1088 27.6668 62.9395 22.2635C61.1016 17.6819 57.7085 22.1619 52.8752 20.62C47.2554 18.8306 42.4087 23.2664 39.5016 27.87C36.4797 32.6636 34.9201 38.7694 35.3663 44.3981C35.7772 49.5937 36.7183 58.505 44.2201 55.779L44.2157 55.7834Z" fill="#060606"/>
<path d="M35.5649 80.998L37.447 73.3901C37.447 73.3901 38.9801 61.8412 31.0585 61.6777C31.0585 61.6777 26.9497 64.5583 25.8275 71.3401C25.8275 71.3401 25.2858 74.6441 25.0885 78.1117C24.9975 79.7131 26.3071 80.998 27.9111 80.998H35.5649Z" fill="#366159"/>
<path d="M61.6323 80.9979L60.2097 75.2588C60.2097 75.2588 57.4792 62.5639 65.4008 62.4004C65.4008 62.4004 70.5262 66.3697 70.9282 78.1337C70.9826 79.7254 69.6657 80.9979 68.0731 80.9979H61.6323Z" fill="#366159"/>
<path d="M44.0562 44.9746H53.6699V59.0506H44.0562V44.9746Z" fill="#366159"/>
<path d="M44.0562 50.724V44.9805H53.6699V53.2555C50.4977 53.1583 46.7335 52.584 44.0562 50.724Z" fill="#0F3831"/>
<path d="M66.418 63.545C64.2619 60.2049 60.8689 59.3036 60.8689 59.3036L52.744 56.2949H44.9903L35.054 59.3036C35.054 59.3036 31.661 60.2093 29.5049 63.545V71.4004H66.418V63.545Z" fill="#366159"/>
<path d="M63.6032 80.9911L33.5986 80.9955V74.9869C33.5986 74.9869 35.3988 70.8004 35.9988 67.8004C36.5988 64.8004 35.0481 59.3027 35.0481 59.3027L42.8726 57.076C42.8726 57.076 42.4042 59.6253 48.8635 59.6253C48.8635 59.6253 54.0503 59.6253 54.6688 57.0098L60.8674 59.3072C60.8674 59.3072 60.5988 64.2004 61.1988 67.8004C61.7988 71.4004 63.5988 74.9825 63.5988 74.9825V80.9955L63.6032 80.9911Z" fill="#0F3831"/>
<path d="M43.0112 46.1009C43.3381 46.8608 43.7976 47.5632 44.4382 48.1818C46.0331 49.7193 47.902 50.9652 49.952 51.8046C52.4658 52.8384 56.261 52.9665 58.2624 50.8989C59.8838 49.22 60.7718 46.6796 61.4743 44.4971C62.8395 40.2557 62.8218 35.6256 62.4772 31.2252C62.3977 30.2223 62.2961 29.215 62.1282 28.2209C60.5642 18.6204 52.3466 18.6381 52.3466 18.6381C46.1436 18.3686 40.4796 21.2978 39.5253 27.8365C39.1586 30.3416 39.6402 33.0278 39.7683 35.5328C39.8611 37.3707 40.0864 39.2087 40.674 40.9626C41.2749 42.752 42.2645 44.369 43.0112 46.0964V46.1009Z" fill="#366159"/>
<path d="M63.1367 36.8824C65.4562 29.7031 63.583 21.2601 60.8128 18.6181C52.9619 11.1295 38.4618 13.9791 34.0349 25.687C32.6653 29.301 33.3103 42.7894 33.9288 46.9336C34.7594 52.4871 36.8006 56.291 41.0154 56.291C40.905 51.7139 41.254 46.6376 40.8475 41.0398C40.4455 35.4863 41.1833 35.3494 45.8046 32.7648C48.102 31.4791 49.4407 30.136 50.8677 28.0507C52.635 25.4661 51.3051 24.5648 54.8042 24.6797C54.8042 24.6797 62.9335 24.4014 63.1323 36.878L63.1367 36.8824Z" fill="#060606"/>
<path d="M42.2046 38.7784C42.2046 38.7784 41.3828 35.3633 38.7585 36.7726C38.7585 36.7726 37.5744 37.3735 38.4271 39.7195C38.4271 39.7195 39.673 43.0949 42.209 41.8622V38.7784H42.2046Z" fill="#366159"/>
</svg>
