<svg width="96" height="96" viewBox="0 0 96 96" fill="none" xmlns="http://www.w3.org/2000/svg">
<g clip-path="url(#clip0_12486_12518)">
<path d="M5.88281 24.7044C5.88281 24.7044 7.00178 23.6802 9.13142 25.5346L10.1241 23.996C10.1241 23.996 7.73271 22.1055 5.88281 24.7044Z" fill="#060606"/>
<path d="M9.78627 20.2031C9.78627 20.2031 8.46427 21.8455 10.3683 23.7179L9.08241 25.0174C9.08241 25.0174 6.1361 21.4078 9.78627 20.2076V20.2031Z" fill="#060606"/>
<path d="M4.36523 64.4738C6.68438 60.8868 10.3255 59.9167 10.3255 59.9167L19.0517 56.6816H27.3807L36.1068 59.9167C36.1068 59.9167 39.748 60.8868 42.0671 64.4738H4.36523Z" fill="#366159"/>
<path d="M34.5934 81.4503H45.0672C46.7284 81.4503 48.0711 80.1034 48.0213 78.4429C47.9787 77.0213 47.9263 75.8645 47.9263 75.8645C47.1322 62.0759 37.0885 59.9102 37.0885 59.9102C29.2558 58.0152 33.5241 70.1298 33.5241 70.1298C33.3211 73.049 33.7542 76.9789 34.5979 81.4458L34.5934 81.4503Z" fill="#366159"/>
<path d="M28.9319 48.4941H17.4941V59.6432H28.9319V48.4941Z" fill="#366159"/>
<path d="M28.928 53.6784V48.4941H17.4902V51.0614C20.7524 53.7776 24.6823 54.1205 28.928 53.6784Z" fill="#0F3831"/>
<path d="M41.1073 81.4509C41.3284 75.441 41.2607 73.7896 41.2066 71.7367C41.0893 67.1706 40.1102 63.3083 37.1007 59.9154C37.0962 59.9154 37.0872 59.9154 37.0872 59.9154L28.934 57.2578C28.934 57.2578 30.6486 60.2583 23.1542 60.2583C23.1542 60.2583 18.2182 60.0642 17.4962 57.2578L9.2168 59.9154C9.2168 59.9154 2.13754 61.657 0.923828 69.1062L5.08385 76.7585L4.93496 81.4554H41.1028L41.1073 81.4509Z" fill="#060606"/>
<path d="M37.8204 34.5579C38.1452 31.9951 37.5993 29.5361 37.6264 27.0094C37.6444 25.3129 37.315 22.7546 35.2035 22.538C32.2797 22.2402 31.3773 27.2846 31.2059 29.4729C30.9667 32.4869 31.7157 35.7445 32.2978 38.6953C32.5053 39.7602 32.4873 41.8898 33.6829 42.4042C34.7071 42.8418 35.7584 41.8086 36.2818 41.037C37.5452 39.1781 37.5497 36.7056 37.8159 34.5579H37.8204Z" fill="#060606"/>
<path d="M35.654 46.9436C34.4989 51.4646 32.464 52.7144 32.464 52.7144L29.7343 53.2468C28.1642 53.0483 25.4525 52.4076 25.4525 52.4076C19.2169 50.287 17.4077 49.714 16.4421 47.3452C16.4015 47.2459 11.5241 30.3216 11.5241 30.3216C10.7254 21.609 19.8441 19.7997 21.2203 19.5696C22.5829 19.2538 31.2639 16.8444 33.8267 25.205C33.8267 25.205 37.6167 34.8922 35.654 46.9436Z" fill="#366159"/>
<path d="M38.5194 16.7743C39.0112 19.477 38.551 23.2219 36.4574 24.95C34.1834 26.8224 32.2297 26.3126 29.491 26.9217C26.6439 27.5534 23.7292 27.806 20.8686 28.3565C18.8653 28.7445 16.5507 28.9656 15.6303 31.0907C14.412 33.9017 14.1729 37.5654 14.9941 40.3041C15.6754 42.5827 15.8874 44.8026 16.6364 47.7714C14.0511 45.6328 12.0432 42.5105 12.0432 42.5105C11.183 40.9975 10.2685 38.9265 9.29998 36.2975C8.44722 33.9829 7.71177 31.9525 7.59897 29.5657C7.4591 26.4885 8.94805 25.1485 10.5904 22.324C12.1335 19.671 14.2992 17.8301 17.1237 16.9909C17.1237 16.9909 31.4356 17.794 31.1694 14.5273C31.1694 14.5273 34.6075 15.4072 33.9533 17.6902C33.9533 17.6902 37.5493 17.0315 36.7868 14.5273C36.7868 14.5273 38.2397 15.2132 38.5284 16.7788L38.5194 16.7743Z" fill="#060606"/>
<path d="M15.5669 39.7182C15.5669 39.7182 14.0238 36.3613 11.6009 38.351C11.6009 38.351 10.4954 39.2128 11.858 41.4598C11.858 41.4598 13.8298 44.6903 16.194 42.8991L15.5669 39.7182Z" fill="#366159"/>
<path d="M15.3228 31.8887C15.3228 31.8887 15.3318 37.9031 16.4373 41.0931L15.2641 41.3277C15.2641 41.3277 14.646 37.2038 12.5254 37.1541L15.3228 31.8932V31.8887Z" fill="#060606"/>
<path d="M12.4867 81.4517H2.93845C1.25945 81.4517 -0.0959773 80.0758 -0.0682145 78.397C-0.0669722 78.3219 -0.0660699 78.2701 -0.0656029 78.2482C0.0291482 75.3064 0.214138 72.342 0.746549 69.4454C1.50456 65.3034 3.51689 61.6261 7.94763 60.5749C9.9735 60.0921 11.7783 61.3193 12.8747 62.9888C12.8747 62.9888 14.878 65.4613 12.4867 81.4562V81.4517Z" fill="#366159"/>
<path d="M64.2984 16.8125C64.2984 16.8125 53.7766 19.9754 54.7692 36.6335V72.5397H66.7394L64.2984 16.8125Z" fill="#060606"/>
<path d="M63.1016 27.5782V79.1589H85.9907V35.7088C85.9907 35.7088 87.4932 19.0416 76.5562 16.9932C76.5562 16.9932 63.1016 14.5567 63.1016 27.5782Z" fill="#060606"/>
<path d="M78.441 60.6055H62.5273V68.4833H78.441V60.6055Z" fill="#366159"/>
<path d="M95.9285 78.5351C96.0216 80.1706 94.6841 81.4827 93.0461 81.4827H84.576L83.3075 73.7131C83.3075 73.7131 81.7418 61.9189 89.8318 61.752C89.8318 61.752 94.0279 64.6937 95.1739 71.6196C95.1739 71.6196 95.7271 74.9938 95.9285 78.5351Z" fill="#366159"/>
<path d="M58.6095 81.4843L60.0623 75.6233C60.0623 75.6233 62.6341 62.5341 54.5442 62.3672C54.5442 62.3672 49.4962 66.5285 49.1128 78.5593C49.061 80.185 50.4053 81.4843 52.0318 81.4843H58.6095Z" fill="#366159"/>
<path d="M76.5583 44.6953H66.7402V59.0704H76.5583V44.6953Z" fill="#366159"/>
<path d="M76.5583 50.5648V44.6992H66.7402V53.1501C69.9798 53.0508 73.824 52.4643 76.5583 50.5648Z" fill="#0F3831"/>
<path d="M53.7207 63.66C55.9225 60.2489 59.3877 59.3285 59.3877 59.3285L67.6852 56.2559H75.6037L85.7511 59.3285C85.7511 59.3285 89.2163 60.2535 91.4181 63.66H53.7207Z" fill="#366159"/>
<path d="M55.7502 75.3422V81.4829H87.6227L87.2482 74.3495C86.8511 60.6061 88.3897 60.6016 88.3897 60.6016C86.9549 59.6451 85.7547 59.3247 85.7547 59.3247L77.7641 57.0507C77.7641 57.0507 76.0315 64.4999 69.4395 64.4999C69.4395 64.4999 64.332 61.7477 65.7171 56.9785L59.3869 59.3247C59.3869 59.3247 56.8782 60.0918 54.541 62.3613C54.541 62.3613 55.669 63.0516 55.7502 75.3377V75.3422Z" fill="#0F3831"/>
<path d="M77.6254 45.841C77.2915 46.6171 76.8223 47.3345 76.168 47.9662C74.5392 49.5363 72.6307 50.8087 70.5371 51.666C67.9698 52.7218 64.094 52.8526 62.0501 50.741C60.3942 49.0265 59.4873 46.4321 58.7699 44.2032C57.3757 39.8717 57.3938 35.1432 57.7457 30.6493C57.8269 29.6251 57.9307 28.5963 58.1022 27.5811C59.7039 17.7767 68.0961 17.7947 68.0961 17.7947C74.4309 17.5195 80.2153 20.5109 81.1898 27.1886C81.5643 29.7469 81.0725 32.4901 80.9417 35.0484C80.8469 36.9254 80.6168 38.8024 80.0167 40.5936C79.4031 42.421 78.3924 44.0723 77.6299 45.8365L77.6254 45.841Z" fill="#366159"/>
<path d="M78.4459 38.3674C78.4459 38.3674 79.2851 34.8796 81.9652 36.3189C81.9652 36.3189 83.1744 36.9326 82.3036 39.3284C82.3036 39.3284 81.0313 42.7755 78.4414 41.5167V38.3674H78.4459Z" fill="#366159"/>
<path d="M57.1152 28.7087C56.664 15.245 69.4373 15.8857 69.4373 15.8857C81.9941 16.4001 82.6213 22.0896 82.6213 22.0896C84.1418 29.3088 81.967 36.3203 81.967 36.3203C79.296 35.7383 78.8448 39.3073 78.8448 39.3073C79.1245 33.5861 78.6553 33.2387 78.6553 33.2387C74.581 33.1981 71.6437 32.7604 71.6437 32.7604L71.4632 28.7718L70.4796 32.5529C70.4796 32.5529 64.7043 32.422 58.7079 31.0007C58.7079 31.0007 57.1107 31.1135 57.1107 35.9729V28.7087H57.1152Z" fill="#060606"/>
</g>
<defs>
<clipPath id="clip0_12486_12518">
<rect width="96" height="96" fill="white"/>
</clipPath>
</defs>
</svg>
