<svg width="78" height="78" viewBox="0 0 78 78" fill="none" xmlns="http://www.w3.org/2000/svg">
<rect x="2" y="2" width="74" height="74" rx="14" fill="#FCE100"/>
<rect x="2" y="2" width="74" height="74" rx="14" stroke="#E74C3C" stroke-width="4"/>
<path d="M41.6864 26.2727L41.2156 43.5866H36.7965L36.3136 26.2727H41.6864ZM39.006 51.3139C38.2092 51.3139 37.525 51.0322 36.9535 50.4688C36.382 49.8973 36.1003 49.2131 36.1083 48.4162C36.1003 47.6274 36.382 46.9512 36.9535 46.3878C37.525 45.8243 38.2092 45.5426 39.006 45.5426C39.7707 45.5426 40.4428 45.8243 41.0224 46.3878C41.6019 46.9512 41.8957 47.6274 41.9038 48.4162C41.8957 48.9474 41.7549 49.4344 41.4812 49.8771C41.2156 50.3118 40.8654 50.6619 40.4308 50.9276C39.9961 51.1851 39.5212 51.3139 39.006 51.3139Z" fill="#E74C3C"/>
</svg>
