<svg width="24" height="24" viewBox="0 0 24 24" fill="none" xmlns="http://www.w3.org/2000/svg">
<path fill-rule="evenodd" clip-rule="evenodd" d="M5.8421 4.89488C5.59505 4.89479 5.35775 4.99122 5.18077 5.16361C5.0038 5.336 4.90116 5.5707 4.89473 5.81768C5.11252 9.2707 6.58239 12.5257 9.02871 14.9722C11.475 17.4187 14.7297 18.8887 18.1825 19.1065C18.4295 19.1 18.6642 18.9974 18.8365 18.8204C19.0089 18.6434 19.1053 18.4061 19.1052 18.159V15.0107L15.7137 13.6539L14.7066 15.3309C14.5842 15.5348 14.3896 15.6852 14.1615 15.7523C13.9333 15.8193 13.6883 15.7981 13.475 15.6928C11.2309 14.5857 9.41477 12.769 8.3081 10.5246C8.20292 10.3112 8.18185 10.0661 8.24907 9.83788C8.31629 9.60969 8.46689 9.41514 8.67094 9.29289L10.3478 8.28765L8.98925 4.89488H5.8421ZM3.83274 3.8328C4.36561 3.29972 5.08839 3.00016 5.8421 3H9.63157C9.82087 3.00012 10.0058 3.05695 10.1625 3.16318C10.3192 3.2694 10.4405 3.42013 10.5107 3.59594L12.4055 8.33313C12.4888 8.54205 12.4952 8.77383 12.4233 8.98699C12.3514 9.20015 12.2061 9.38079 12.0132 9.49658L10.4283 10.4488C11.2087 11.7219 12.279 12.7926 13.5518 13.5734L14.5039 11.9874C14.6197 11.7945 14.8003 11.6492 15.0134 11.5773C15.2266 11.5055 15.4583 11.5118 15.6672 11.5952L20.4041 13.49C20.5799 13.5603 20.7306 13.6816 20.8368 13.8383C20.943 13.995 20.9999 14.1799 21 14.3693V18.159C20.9998 18.5369 20.9243 18.911 20.7778 19.2594C20.6313 19.6078 20.4168 19.9235 20.1469 20.188C19.8769 20.4525 19.557 20.6605 19.2057 20.7998C18.8544 20.9391 18.4789 21.007 18.101 20.9994C14.1649 20.76 10.4535 19.0846 7.67018 16.291C4.88687 13.4973 3.22515 9.77954 3 5.84231C3.00016 5.08855 3.2997 4.36571 3.83274 3.8328Z" fill="white"/>
<path fill-rule="evenodd" clip-rule="evenodd" d="M20.7224 3.27779C20.9 3.45546 20.9998 3.6964 20.9998 3.94762C20.9998 4.19885 20.9 4.43979 20.7224 4.61746L15.9856 9.35465C15.8069 9.52724 15.5676 9.62273 15.3192 9.62058C15.0708 9.61842 14.8332 9.51878 14.6576 9.34311C14.4819 9.16745 14.3823 8.92982 14.3801 8.68141C14.378 8.43299 14.4735 8.19367 14.646 8.01498L19.3829 3.27779C19.5605 3.10017 19.8014 3.00039 20.0527 3.00039C20.3039 3.00039 20.5448 3.10017 20.7224 3.27779Z" fill="white"/>
<path fill-rule="evenodd" clip-rule="evenodd" d="M15.3158 3.94744C15.3158 3.69616 15.4156 3.45518 15.5933 3.2775C15.7709 3.09982 16.0119 3 16.2632 3L20.0527 3.00039C20.3039 3.00039 20.5448 3.10017 20.7224 3.27779C20.9 3.45546 20.9998 3.6964 20.9998 3.94762L21 7.73719C21 7.98847 20.9002 8.22945 20.7225 8.40713C20.5449 8.58481 20.3039 8.68463 20.0526 8.68463C19.8014 8.68463 19.5604 8.58481 19.3827 8.40713C19.2051 8.22945 19.1053 7.98847 19.1053 7.73719V4.89488H16.2632C16.0119 4.89488 15.7709 4.79506 15.5933 4.61738C15.4156 4.4397 15.3158 4.19871 15.3158 3.94744Z" fill="white"/>
</svg>
