<svg width="10" height="12" viewBox="0 0 10 12" fill="none" xmlns="http://www.w3.org/2000/svg">
<path d="M8.20479 8.64436C8.21478 8.11444 8.52974 7.43453 9.19465 6.50466C9.66458 5.84725 9.92704 5.13235 9.95704 4.43245C9.99204 3.62006 9.75957 2.82017 9.26714 2.04778C8.16479 0.378016 6.26256 -0.304389 3.90788 0.125551C2.24062 0.430509 0.983293 1.70283 0.780821 3.29511L0.775822 3.3326C0.773322 3.3476 0.773322 3.3601 0.775822 3.3751L0.86081 4.67492C0.865809 4.7649 0.840812 4.85489 0.790819 4.92738L0.108415 5.90474C0.0588886 5.97559 0.0252293 6.05628 0.00973401 6.14132C-0.00576128 6.22636 -0.00272776 6.31374 0.0186274 6.3975C0.0399827 6.48126 0.0791569 6.55943 0.133477 6.62667C0.187797 6.69391 0.255983 6.74864 0.333383 6.78712L0.543354 6.89211L0.583348 7.07958L0.465865 7.42453C0.43087 7.52702 0.465865 7.6395 0.550853 7.70449L0.655838 7.78198L0.588348 7.83697C0.528356 7.88447 0.495861 7.95196 0.493361 8.02695C0.490861 8.10194 0.523357 8.17443 0.578349 8.22192L0.85581 8.45939V8.96932C0.85581 9.48924 1.24326 9.91918 1.75568 9.97168C2.06564 10.0042 2.3656 9.99167 2.65556 9.98168L2.89053 9.97418C3.31797 9.97168 3.70791 10.2116 3.86789 10.5941C4.01037 10.939 4.08036 11.3265 4.07286 11.7439C4.07036 11.8214 4.10536 11.8939 4.16535 11.9414C4.21034 11.9789 4.26533 11.9989 4.32283 11.9989C4.34032 11.9989 4.36032 11.9964 4.37782 11.9939L8.40976 11.094C8.48475 11.0765 8.54724 11.0265 8.58223 10.9565C8.61473 10.8865 8.61473 10.8066 8.57973 10.7391C8.20229 9.97668 8.0773 9.30677 8.19979 8.68686C8.20283 8.67289 8.2045 8.65866 8.20479 8.64436ZM6.99995 6.49966H3.50044C2.53558 6.49966 1.75069 5.71477 1.75069 4.74991C1.75069 4.41495 1.84817 4.0875 2.02815 3.80754C2.01065 3.70755 2.00065 3.60507 2.00065 3.50008C2.00065 2.53521 2.78554 1.75032 3.75041 1.75032C3.91538 1.75032 4.07786 1.77282 4.23534 1.82031C4.64606 1.45217 5.17856 1.24914 5.73013 1.25039C6.89997 1.25039 7.86483 2.15027 7.96982 3.29511C8.21007 3.4541 8.4071 3.67024 8.54322 3.92416C8.67934 4.17807 8.75029 4.46181 8.74971 4.74991C8.74971 5.71477 7.96482 6.49966 6.99995 6.49966Z" fill="#41BF00"/>
<path d="M7.47677 3.59474C7.47927 3.56225 7.47927 3.53225 7.47927 3.49976C7.47927 2.53489 6.69438 1.75 5.72951 1.75C5.19209 1.75 4.68966 1.99747 4.35971 2.41241C4.17473 2.30742 3.96476 2.24993 3.74979 2.24993C3.05989 2.24993 2.49997 2.80985 2.49997 3.49976C2.49997 3.64224 2.52246 3.77972 2.57246 3.9147C2.36498 4.14327 2.25003 4.44089 2.25 4.74958C2.25 5.43948 2.80992 5.99941 3.49983 5.99941H6.99934C7.68674 5.99941 8.24916 5.43948 8.24916 4.74958C8.24814 4.50249 8.17433 4.26118 8.03696 4.05579C7.89959 3.8504 7.70475 3.69004 7.47677 3.59474Z" fill="#41BF00"/>
</svg>
