<svg width="12" height="12" viewBox="0 0 12 12" fill="none" xmlns="http://www.w3.org/2000/svg">
<g clip-path="url(#clip0_12624_17557)">
<path d="M10.5 0C9.67148 0 9 0.671484 9 1.5V3C9 4.24266 7.99266 5.25 6.75 5.25V1.5C6.75 1.08586 7.08586 0.75 7.5 0.75V0H4.5V0.75C4.92148 0.753586 5.25192 1.10016 5.25 1.5V5.25C4.00238 5.25075 2.99892 4.23026 3 3V1.5C3 0.671484 2.32852 0 1.5 0H0.75V0.75C1.17148 0.753586 1.50192 1.10016 1.5 1.5V3C1.5 5.07117 3.17883 6.75 5.25 6.75V10.5C5.25 10.9141 4.91414 11.25 4.5 11.25V12H7.5V11.25C7.07852 11.2464 6.74808 10.8998 6.75 10.5V6.75C8.82405 6.75082 10.5011 5.06236 10.5 3V1.5C10.5 1.08586 10.8359 0.75 11.25 0.75V0H10.5Z" fill="#41BF00"/>
</g>
<defs>
<clipPath id="clip0_12624_17557">
<rect width="12" height="12" fill="white"/>
</clipPath>
</defs>
</svg>
