<svg width="32" height="32" viewBox="0 0 32 32" fill="none" xmlns="http://www.w3.org/2000/svg">
<path d="M29.5593 13.1551C29.7771 12.6528 29.8039 12.0882 29.6344 11.5676C29.465 11.0469 29.111 10.6062 28.6393 10.3284L26.0793 8.80842C26.0488 8.79209 26.0223 8.76931 26.0016 8.74167C25.9809 8.71404 25.9664 8.68221 25.9593 8.64842L25.2926 5.72842C25.1715 5.19621 24.8616 4.72595 24.4203 4.40478C23.979 4.08361 23.4362 3.93331 22.8926 3.98175L19.9193 4.24842C19.8862 4.25624 19.8516 4.25544 19.819 4.2461C19.7863 4.23676 19.7565 4.2192 19.7326 4.19508L17.4793 2.22175C17.0678 1.86701 16.5425 1.67188 15.9993 1.67188C15.456 1.67188 14.9307 1.86701 14.5193 2.22175L12.2659 4.19508C12.242 4.2192 12.2122 4.23676 12.1795 4.2461C12.1469 4.25544 12.1123 4.25624 12.0793 4.24842L9.10592 3.98175C8.56105 3.93092 8.01638 4.08094 7.57439 4.4036C7.13239 4.72625 6.82354 5.1993 6.70592 5.73375L6.03925 8.65375C6.0321 8.68754 6.01766 8.71937 5.99693 8.74701C5.9762 8.77464 5.94969 8.79742 5.91925 8.81375L3.35925 10.3284C2.88747 10.6062 2.53353 11.0469 2.36408 11.5676C2.19463 12.0882 2.22137 12.6528 2.43925 13.1551L3.62592 15.9017C3.65187 15.9659 3.65187 16.0376 3.62592 16.1017L2.43925 18.8484C2.22246 19.3488 2.19634 19.9112 2.36583 20.4295C2.53533 20.9478 2.8887 21.3862 3.35925 21.6618L5.93259 23.2004C5.9868 23.2386 6.02483 23.2957 6.03925 23.3604L6.70592 26.2804C6.82465 26.8139 7.13398 27.2857 7.57586 27.6073C8.01774 27.9289 8.56179 28.0781 9.10592 28.0271L12.0793 27.7471C12.1133 27.7448 12.1474 27.7496 12.1795 27.7611C12.2116 27.7725 12.241 27.7905 12.2659 27.8137L14.5193 29.7871C14.9317 30.1398 15.4566 30.3336 15.9993 30.3336C16.5419 30.3336 17.0668 30.1398 17.4793 29.7871L19.7326 27.8137C19.7575 27.7905 19.7869 27.7725 19.819 27.7611C19.8511 27.7496 19.8852 27.7448 19.9193 27.7471L22.8926 28.0271C23.4367 28.0781 23.9808 27.9289 24.4226 27.6073C24.8645 27.2857 25.1739 26.8139 25.2926 26.2804L25.9593 23.3604C25.9664 23.3266 25.9809 23.2948 26.0016 23.2672C26.0223 23.2395 26.0488 23.2167 26.0793 23.2004L28.6393 21.6671C29.1098 21.3915 29.4632 20.9532 29.6327 20.4349C29.8022 19.9165 29.7761 19.3541 29.5593 18.8538L28.3726 16.1071C28.3466 16.0429 28.3466 15.9712 28.3726 15.9071L29.5593 13.1551ZM21.9859 13.3151L15.3726 20.0884C15.1787 20.2743 14.9212 20.3792 14.6526 20.3818C14.4421 20.3837 14.2366 20.3183 14.0659 20.1951L10.1459 17.3951C9.93021 17.2395 9.78515 17.0046 9.74264 16.742C9.70013 16.4795 9.76366 16.2108 9.91925 15.9951C10.0748 15.7794 10.3098 15.6343 10.5723 15.5918C10.8349 15.5493 11.1035 15.6128 11.3193 15.7684L14.5326 18.0751L20.5593 11.9151C20.6508 11.8207 20.7601 11.7454 20.8809 11.6936C21.0018 11.6417 21.1317 11.6144 21.2631 11.6132C21.3946 11.6119 21.525 11.6368 21.6468 11.6863C21.7686 11.7359 21.8793 11.8091 21.9726 11.9017C22.1603 12.0882 22.267 12.3411 22.2695 12.6057C22.272 12.8703 22.1701 13.1252 21.9859 13.3151Z" fill="#366159"/>
</svg>
