<svg width="19" height="20" viewBox="0 0 19 20" fill="none" xmlns="http://www.w3.org/2000/svg">
<path d="M9.41176 0C6.91557 0.00231443 4.52235 0.991651 2.75769 2.75073C0.993023 4.50982 0.00120271 6.89482 4.22304e-05 9.38196C-0.00545054 11.2003 0.52499 12.9803 1.52556 14.501L0.171005 18.8687C0.130521 18.9994 0.121385 19.1377 0.144329 19.2725C0.167274 19.4073 0.221658 19.5349 0.303108 19.6449C0.384557 19.755 0.490795 19.8444 0.613274 19.9061C0.735753 19.9678 0.871052 19.9999 1.00828 20C1.07315 19.9992 1.13777 19.9919 1.20117 19.9782L7.46103 18.5717C8.74867 18.8354 10.0774 18.8275 11.3618 18.5485C12.6462 18.2695 13.8577 17.7257 14.9184 16.952C15.9791 16.1783 16.8655 15.1919 17.5204 14.0563C18.1754 12.9207 18.5845 11.661 18.7213 10.3583C18.8581 9.05569 18.7197 7.73891 18.3149 6.49278C17.9101 5.24665 17.2479 4.09878 16.371 3.12304C15.494 2.14731 14.4218 1.36533 13.2232 0.827455C12.0246 0.289576 10.7263 0.00771009 9.41176 0ZM9.41176 17.0343C8.82141 17.0356 8.23294 16.9682 7.6583 16.8334C7.5285 16.8035 7.39357 16.8035 7.26377 16.8334L2.2927 17.9297L3.32724 14.6145C3.3673 14.4844 3.37627 14.3467 3.35343 14.2125C3.3306 14.0782 3.2766 13.9512 3.19573 13.8415C2.25346 12.5445 1.74849 10.9831 1.75351 9.38196C1.75264 7.87156 2.20142 6.39483 3.04307 5.13862C3.88472 3.88241 5.08141 2.90315 6.48176 2.32474C7.8821 1.74634 9.42316 1.59478 10.91 1.88923C12.3968 2.18368 13.7625 2.91092 14.8344 3.97894C15.9064 5.04695 16.6362 6.40776 16.9318 7.88918C17.2273 9.3706 17.0752 10.9061 16.4947 12.3013C15.9142 13.6966 14.9313 14.889 13.6705 15.7276C12.4098 16.5662 10.9277 17.0133 9.41176 17.0124V17.0343Z" fill="#366159"/>
<path d="M12.3455 5.13862H5.77002C5.5375 5.13862 5.3145 5.23065 5.15008 5.39448C4.98566 5.5583 4.89329 5.78049 4.89329 6.01217C4.89329 6.24385 4.98566 6.46605 5.15008 6.62987C5.3145 6.79369 5.5375 6.88573 5.77002 6.88573H12.3455C12.578 6.88573 12.801 6.79369 12.9655 6.62987C13.1299 6.46605 13.2222 6.24385 13.2222 6.01217C13.2222 5.78049 13.1299 5.5583 12.9655 5.39448C12.801 5.23065 12.578 5.13862 12.3455 5.13862ZM12.3455 8.63283H7.96185C7.72933 8.63283 7.50633 8.72487 7.34191 8.88869C7.17749 9.05251 7.08512 9.27471 7.08512 9.50639C7.08512 9.73807 7.17749 9.96026 7.34191 10.1241C7.50633 10.2879 7.72933 10.3799 7.96185 10.3799H12.3455C12.578 10.3799 12.801 10.2879 12.9655 10.1241C13.1299 9.96026 13.2222 9.73807 13.2222 9.50639C13.2222 9.27471 13.1299 9.05251 12.9655 8.88869C12.801 8.72487 12.578 8.63283 12.3455 8.63283ZM12.3455 12.127H6.64675C6.41423 12.127 6.19123 12.2191 6.02681 12.3829C5.86239 12.5467 5.77002 12.7689 5.77002 13.0006C5.77002 13.2323 5.86239 13.4545 6.02681 13.6183C6.19123 13.7821 6.41423 13.8742 6.64675 13.8742H12.3455C12.578 13.8742 12.801 13.7821 12.9655 13.6183C13.1299 13.4545 13.2222 13.2323 13.2222 13.0006C13.2222 12.7689 13.1299 12.5467 12.9655 12.3829C12.801 12.2191 12.578 12.127 12.3455 12.127Z" fill="#366159"/>
</svg>
