<svg width="24" height="24" viewBox="0 0 24 24" fill="none" xmlns="http://www.w3.org/2000/svg">
<path d="M12 2C8.32405 2 5.33331 4.99074 5.33331 8.66668C5.33331 9.7702 5.60921 10.8643 6.1337 11.8348L11.6354 21.7852C11.7087 21.9178 11.8482 22 12 22C12.1518 22 12.2913 21.9178 12.3646 21.7852L17.8683 11.8315C18.3908 10.8643 18.6667 9.77016 18.6667 8.66664C18.6667 4.99074 15.6759 2 12 2ZM12 12C10.162 12 8.66667 10.5046 8.66667 8.66668C8.66667 6.82871 10.162 5.33336 12 5.33336C13.838 5.33336 15.3333 6.82871 15.3333 8.66668C15.3333 10.5046 13.838 12 12 12Z" fill="#366159"/>
</svg>
