<svg width="24" height="24" viewBox="0 0 24 24" fill="none" xmlns="http://www.w3.org/2000/svg">
<g id="State=Default, Name=Copy link">
<path id="Vector" fill-rule="evenodd" clip-rule="evenodd" d="M10.9732 14.9956C10.9952 15.0066 11.0272 15.0066 11.0272 15.0066V15.0286C11.0602 15.0286 11.1242 14.9846 11.1242 14.9846L12.2903 13.8204L12.3233 13.7884C12.3531 13.764 12.3785 13.7346 12.3983 13.7015C12.4203 13.6585 12.4303 13.6146 12.4083 13.5716C12.3883 13.5286 12.3553 13.4857 12.3123 13.4857C11.8704 13.3901 11.4654 13.1691 11.1462 12.8491C10.7657 12.4757 10.5319 11.9782 10.4872 11.4471C10.4546 11.1118 10.4967 10.7734 10.6107 10.4563C10.7246 10.1393 10.9076 9.85138 11.1462 9.61343L14.2003 6.55962C15.0634 5.69624 16.5744 5.69624 17.4384 6.55962C17.8704 7.0023 18.1084 7.57389 18.1084 8.18845C18.1084 8.80301 17.8704 9.3856 17.4384 9.81729L16.0464 11.1983C16.0306 11.2156 16.0193 11.2365 16.0136 11.2591C16.0078 11.2818 16.0077 11.3055 16.0134 11.3282C16.1434 11.7909 16.2184 12.2765 16.2184 12.7622C16.2184 12.999 16.2084 13.2039 16.1754 13.3767C16.1754 13.4307 16.1974 13.4957 16.2514 13.5166C16.2768 13.532 16.3066 13.5383 16.3361 13.5345C16.3655 13.5307 16.3928 13.517 16.4134 13.4957L18.7775 11.1443C20.4075 9.50451 20.4075 6.85041 18.7775 5.22158C17.9921 4.43928 16.9283 4 15.8194 4C14.7104 4 13.6467 4.43928 12.8613 5.22158L9.80721 8.27539C9.5372 8.5452 9.32219 8.83699 9.16019 9.12778L9.14719 9.13778C9.13719 9.14577 9.12718 9.15276 9.12718 9.15976C8.79591 9.74751 8.61115 10.4063 8.58852 11.0805C8.56589 11.7547 8.70606 12.4244 8.99718 13.033C9.20319 13.4527 9.46219 13.8304 9.80721 14.1762C10.1422 14.5209 10.5412 14.8017 10.9732 14.9956ZM5.23107 18.7709C6.0501 19.5803 7.12013 19.99 8.18816 19.99L8.15616 20C9.22419 20 10.3042 19.5903 11.1142 18.7819L14.1683 15.7291C14.727 15.1773 15.1165 14.4777 15.2914 13.7125L15.3564 13.2378C15.3774 13.1299 15.3774 13.022 15.3774 12.9141V12.4834C15.3774 12.3745 15.3674 12.2665 15.3454 12.1806C15.3354 12.0617 15.3134 11.9648 15.2914 11.8678C15.2664 11.7473 15.234 11.6285 15.1944 11.5121C15.0008 10.8757 14.652 10.2975 14.1793 9.82928C13.8428 9.49624 13.4523 9.22256 13.0243 9.01986C12.9813 8.98788 12.8733 9.04184 12.8733 9.04184L11.7073 10.206C11.6753 10.239 11.6323 10.282 11.5993 10.3459C11.5783 10.3789 11.5783 10.4219 11.5993 10.4658C11.6213 10.5088 11.6533 10.5408 11.6963 10.5408C12.1393 10.6267 12.5383 10.8426 12.8623 11.1663C13.2943 11.609 13.5323 12.1916 13.5213 12.8271C13.5103 13.2169 13.4133 13.5936 13.2293 13.9164C13.1779 14.0094 13.1166 14.0965 13.0463 14.1762C13.0033 14.2411 12.9493 14.3161 12.8623 14.402L9.80721 17.4548C9.37361 17.8759 8.79279 18.1115 8.18816 18.1115C7.58352 18.1115 7.00271 17.8759 6.56911 17.4548C6.13942 17.0215 5.89858 16.436 5.89909 15.826C5.89909 15.2114 6.1371 14.6288 6.56911 14.1972L7.96215 12.8061C7.99415 12.7632 8.00515 12.7092 7.99415 12.6662C7.77779 12.0131 7.71483 11.319 7.81015 10.6377C7.81488 10.6094 7.81008 10.5803 7.79651 10.555C7.78294 10.5297 7.76136 10.5096 7.73515 10.4978C7.69214 10.4648 7.58414 10.5188 7.58414 10.5188L5.23007 12.8591C4.83837 13.2451 4.52778 13.7054 4.31656 14.213C4.10533 14.7206 3.99772 15.2653 4.00004 15.815C4.00004 16.9252 4.44305 17.9834 5.23007 18.7699L5.23107 18.7709Z" fill="#282C4B"/>
</g>
</svg>
