<svg width="12" height="12" viewBox="0 0 12 12" fill="none" xmlns="http://www.w3.org/2000/svg">
<path d="M9.22432 8.64436C9.23431 8.11444 9.54927 7.43453 10.2142 6.50466C10.6841 5.84725 10.9466 5.13235 10.9766 4.43245C11.0116 3.62006 10.7791 2.82017 10.2867 2.04778C9.18432 0.378016 7.28209 -0.304389 4.92742 0.125551C3.26015 0.430509 2.00282 1.70283 1.80035 3.29511L1.79535 3.3326C1.79285 3.3476 1.79285 3.3601 1.79535 3.3751L1.88034 4.67492C1.88534 4.7649 1.86034 4.85489 1.81035 4.92738L1.12795 5.90474C1.07842 5.97559 1.04476 6.05628 1.02927 6.14132C1.01377 6.22636 1.0168 6.31374 1.03816 6.3975C1.05951 6.48126 1.09869 6.55943 1.15301 6.62667C1.20733 6.69391 1.27551 6.74864 1.35291 6.78712L1.56289 6.89211L1.60288 7.07958L1.4854 7.42453C1.4504 7.52702 1.4854 7.6395 1.57038 7.70449L1.67537 7.78198L1.60788 7.83697C1.54789 7.88447 1.51539 7.95196 1.51289 8.02695C1.51039 8.10194 1.54289 8.17443 1.59788 8.22192L1.87534 8.45939V8.96932C1.87534 9.48924 2.26279 9.91918 2.77522 9.97168C3.08517 10.0042 3.38513 9.99167 3.67509 9.98168L3.91006 9.97418C4.3375 9.97168 4.72744 10.2116 4.88742 10.5941C5.0299 10.939 5.09989 11.3265 5.09239 11.7439C5.08989 11.8214 5.12489 11.8939 5.18488 11.9414C5.22987 11.9789 5.28487 11.9989 5.34236 11.9989C5.35986 11.9989 5.37985 11.9964 5.39735 11.9939L9.42929 11.094C9.50428 11.0765 9.56677 11.0265 9.60176 10.9565C9.63426 10.8865 9.63426 10.8066 9.59926 10.7391C9.22182 9.97668 9.09683 9.30677 9.21932 8.68686C9.22236 8.67289 9.22404 8.65866 9.22432 8.64436ZM8.01948 6.49966H4.51997C3.55511 6.49966 2.77022 5.71477 2.77022 4.74991C2.77022 4.41495 2.8677 4.0875 3.04768 3.80754C3.03018 3.70755 3.02018 3.60507 3.02018 3.50008C3.02018 2.53521 3.80507 1.75032 4.76994 1.75032C4.93491 1.75032 5.09739 1.77282 5.25487 1.82031C5.6656 1.45217 6.19809 1.24914 6.74966 1.25039C7.9195 1.25039 8.88436 2.15027 8.98935 3.29511C9.22961 3.4541 9.42663 3.67024 9.56275 3.92416C9.69887 4.17807 9.76982 4.46181 9.76924 4.74991C9.76924 5.71477 8.98435 6.49966 8.01948 6.49966Z" fill="#41BF00"/>
<path d="M8.4963 3.59474C8.4988 3.56225 8.4988 3.53225 8.4988 3.49976C8.4988 2.53489 7.71391 1.75 6.74905 1.75C6.21162 1.75 5.70919 1.99747 5.37924 2.41241C5.19426 2.30742 4.98429 2.24993 4.76932 2.24993C4.07942 2.24993 3.5195 2.80985 3.5195 3.49976C3.5195 3.64224 3.54199 3.77972 3.59199 3.9147C3.38451 4.14327 3.26956 4.44089 3.26953 4.74958C3.26953 5.43948 3.82945 5.99941 4.51936 5.99941H8.01887C8.70627 5.99941 9.26869 5.43948 9.26869 4.74958C9.26767 4.50249 9.19386 4.26118 9.05649 4.05579C8.91912 3.8504 8.72428 3.69004 8.4963 3.59474Z" fill="#41BF00"/>
</svg>
