<svg width="36" height="36" viewBox="0 0 36 36" fill="none" xmlns="http://www.w3.org/2000/svg">
<circle cx="18" cy="18" r="18" fill="#F0FDFA"/>
<path fill-rule="evenodd" clip-rule="evenodd" d="M27.5821 11.2812C27.8497 11.5489 28 11.9118 28 12.2903C28 12.6688 27.8497 13.0318 27.5821 13.2994L16.1634 24.7182C15.8957 24.9858 15.5327 25.1361 15.1542 25.1361C14.7758 25.1361 14.4128 24.9858 14.1451 24.7182L8.43575 19.0088C8.29942 18.8771 8.19069 18.7196 8.11588 18.5455C8.04108 18.3714 8.0017 18.1841 8.00005 17.9945C7.99841 17.805 8.03452 17.6171 8.10629 17.4417C8.17806 17.2662 8.28404 17.1069 8.41806 16.9729C8.55207 16.8388 8.71144 16.7329 8.88686 16.6611C9.06227 16.5893 9.25022 16.5532 9.43974 16.5549C9.62926 16.5565 9.81656 16.5959 9.9907 16.6707C10.1648 16.7455 10.3223 16.8542 10.454 16.9905L15.1542 21.6908L25.5638 11.2812C25.8315 11.0136 26.1945 10.8633 26.573 10.8633C26.9514 10.8633 27.3144 11.0136 27.5821 11.2812Z" fill="#366159"/>
</svg>
