<svg width="32" height="32" viewBox="0 0 32 32" fill="none" xmlns="http://www.w3.org/2000/svg">
<path d="M9.60293 12.9681C9.39407 12.9681 9.19377 13.0511 9.04608 13.1988C8.8984 13.3465 8.81543 13.5468 8.81543 13.7556C8.81543 13.9645 8.8984 14.1648 9.04608 14.3125C9.19377 14.4602 9.39407 14.5431 9.60293 14.5431H18.0467C18.2555 14.5431 18.4558 14.4602 18.6035 14.3125C18.7512 14.1648 18.8342 13.9645 18.8342 13.7556C18.8342 13.5468 18.7512 13.3465 18.6035 13.1988C18.4558 13.0511 18.2555 12.9681 18.0467 12.9681H9.60293ZM13.3996 17.4385H9.60293C9.39407 17.4385 9.19377 17.5215 9.04608 17.6692C8.8984 17.8169 8.81543 18.0172 8.81543 18.226C8.81543 18.4349 8.8984 18.6352 9.04608 18.7829C9.19377 18.9305 9.39407 19.0135 9.60293 19.0135H13.3996C13.6084 19.0135 13.8087 18.9305 13.9564 18.7829C14.1041 18.6352 14.1871 18.4349 14.1871 18.226C14.1871 18.0172 14.1041 17.8169 13.9564 17.6692C13.8087 17.5215 13.6084 17.4385 13.3996 17.4385Z" fill="#366159"/>
<path d="M13.2828 27.4625H7.28908C6.66845 27.4609 6.07383 27.213 5.6358 26.7734C5.19777 26.3337 4.95213 25.7382 4.95283 25.1175V9.16627C4.95213 8.54564 5.19777 7.9501 5.6358 7.51043C6.07383 7.07076 6.66845 6.8229 7.28908 6.82127H8.9157V7.01902C8.9164 7.57128 9.13615 8.1007 9.52673 8.49112C9.91731 8.88154 10.4468 9.10106 10.9991 9.10152H18.5241C19.0763 9.10106 19.6058 8.88154 19.9964 8.49112C20.387 8.1007 20.6068 7.57128 20.6075 7.01902V6.82127H22.2262C23.5361 6.82127 24.5616 7.85115 24.5616 9.16627V13.655C24.5616 13.8639 24.6445 14.0642 24.7922 14.2119C24.9399 14.3596 25.1402 14.4425 25.3491 14.4425C25.5579 14.4425 25.7582 14.3596 25.9059 14.2119C26.0536 14.0642 26.1366 13.8639 26.1366 13.655V9.16627C26.1366 8.12814 25.7248 7.1324 24.9915 6.39751C24.2583 5.66261 23.2635 5.24859 22.2253 5.24627H20.6066V5.04502C20.6059 4.49277 20.3861 3.96335 19.9956 3.57293C19.605 3.18251 19.0755 2.96299 18.5232 2.96252H10.9982C10.446 2.96299 9.91644 3.18251 9.52586 3.57293C9.13527 3.96335 8.91552 4.49277 8.91483 5.04502V5.24627H7.28908C6.25087 5.24859 5.25595 5.66259 4.52256 6.39745C3.78917 7.13232 3.37718 8.12806 3.37695 9.16627V25.1175C3.37695 27.2788 5.1322 29.0375 7.28908 29.0375H13.2828C13.4917 29.0375 13.692 28.9546 13.8397 28.8069C13.9874 28.6592 14.0703 28.4589 14.0703 28.25C14.0703 28.0412 13.9874 27.8409 13.8397 27.6932C13.692 27.5455 13.4917 27.4625 13.2828 27.4625ZM10.4916 5.04502C10.4916 4.76502 10.7191 4.53752 10.9991 4.53752H18.5241C18.8041 4.53752 19.0316 4.76502 19.0316 5.04502V7.01815C19.0316 7.29815 18.8041 7.52565 18.5241 7.52565H10.9991C10.8645 7.52565 10.7354 7.47218 10.6402 7.37701C10.545 7.28183 10.4916 7.15275 10.4916 7.01815V5.04502Z" fill="#366159"/>
<path d="M27.7858 17.1883C26.7078 16.1094 24.8257 16.1085 23.7468 17.1883L16.7652 24.1699C16.541 24.3936 16.3923 24.6818 16.34 24.9941L15.9567 27.2595C15.9163 27.4993 15.9339 27.7452 16.0079 27.9768C16.0819 28.2084 16.2103 28.4189 16.3823 28.5908C16.5542 28.7626 16.7648 28.8909 16.9964 28.9648C17.228 29.0387 17.474 29.0561 17.7137 29.0156L19.9782 28.6333C20.2923 28.5799 20.5776 28.4329 20.8025 28.208L27.7841 21.2264C28.3188 20.6906 28.6193 19.9647 28.6196 19.2077C28.6199 18.4507 28.3201 17.7245 27.7858 17.1883ZM19.7166 27.081L17.5107 27.5211L17.88 25.2838L22.8841 20.2796L24.6962 22.0918L19.7166 27.081ZM26.6711 20.1125L25.8083 20.977L23.9971 19.1658L24.8607 18.3021C24.9793 18.1829 25.1203 18.0884 25.2755 18.024C25.4308 17.9595 25.5973 17.9265 25.7655 17.9268C26.0186 17.927 26.266 18.0022 26.4764 18.143C26.6868 18.2837 26.8508 18.4836 26.9477 18.7174C27.0446 18.9513 27.07 19.2086 27.0208 19.4569C26.9716 19.7052 26.8499 19.9333 26.6711 20.1125Z" fill="#366159"/>
</svg>
