<svg width="24" height="24" viewBox="0 0 24 24" fill="none" xmlns="http://www.w3.org/2000/svg">
<path fill-rule="evenodd" clip-rule="evenodd" d="M12 4C10.067 4 8.5 5.567 8.5 7.5C8.5 9.433 10.067 11 12 11C13.933 11 15.5 9.433 15.5 7.5C15.5 5.567 13.933 4 12 4ZM6.5 7.5C6.5 4.46243 8.96243 2 12 2C15.0376 2 17.5 4.46243 17.5 7.5C17.5 9.87264 15.9976 11.8944 13.8923 12.6658C18.0331 13.3886 21.8756 16.4334 21.8756 21H19.8756C19.8756 17.2592 16.1399 14.5 12.0001 14.5C7.86027 14.5 4.12451 17.2592 4.12451 21H2.12451C2.12451 16.4334 5.96694 13.3886 10.1077 12.6658C8.00239 11.8944 6.5 9.87266 6.5 7.5Z" fill="#366159"/>
</svg>
