<svg width="24" height="24" viewBox="0 0 24 24" fill="none" xmlns="http://www.w3.org/2000/svg">
<path d="M13.5043 14.0259C13.0565 14.3244 12.5363 14.4822 12 14.4822C11.4637 14.4822 10.9436 14.3244 10.4957 14.0259L3.11985 9.10845C3.07913 9.08122 3.03917 9.05289 3 9.02347L3 17.0812C3 18.005 3.74971 18.7382 4.65702 18.7382H19.3429C20.2668 18.7382 21 17.9885 21 17.0812V9.02344C20.9607 9.05293 20.9207 9.08132 20.8799 9.10859L13.5043 14.0259Z" fill="#366159"/>
<path d="M3.70488 8.2298L11.0808 13.1472C11.36 13.3334 11.68 13.4265 12 13.4265C12.32 13.4265 12.64 13.3334 12.9192 13.1472L20.2951 8.2298C20.7365 7.93572 21 7.44353 21 6.91232C21 5.99892 20.2569 5.25586 19.3435 5.25586H4.65646C3.7431 5.25589 3 5.99896 3 6.9132C2.99973 7.17378 3.06395 7.43037 3.18694 7.6601C3.30993 7.88983 3.48787 8.08555 3.70488 8.2298Z" fill="#366159"/>
</svg>
