<svg width="32" height="40" viewBox="0 0 32 40" fill="none" xmlns="http://www.w3.org/2000/svg">
<path d="M8.42069 25.2305C8.0619 25.2305 7.82011 25.2656 7.69531 25.3007V27.5977C7.84351 27.6328 8.02875 27.6425 8.28419 27.6425C9.2182 27.6425 9.79343 27.1706 9.79343 26.3751C9.79343 25.6595 9.29815 25.2305 8.42069 25.2305ZM15.2201 25.2539C14.8301 25.2539 14.5766 25.289 14.4265 25.3241V30.4134C14.5766 30.4485 14.8184 30.4485 15.0368 30.4485C16.6299 30.4602 17.6672 29.5827 17.6672 27.7264C17.6789 26.1079 16.7332 25.2539 15.2201 25.2539Z" fill="#7D7C7F"/>
<path d="M19.6008 0.503906H4.00142C2.96711 0.503906 1.97517 0.914782 1.2438 1.64615C0.512439 2.37751 0.101563 3.36945 0.101562 4.40376V35.6026C0.101563 36.6369 0.512439 37.6288 1.2438 38.3602C1.97517 39.0916 2.96711 39.5024 4.00142 39.5024H27.4005C28.4348 39.5024 29.4268 39.0916 30.1582 38.3602C30.8895 37.6288 31.3004 36.6369 31.3004 35.6026V12.2035L19.6008 0.503906ZM10.8223 28.1734C10.2197 28.7388 9.33057 28.9923 8.29515 28.9923C8.09439 28.9945 7.89372 28.9828 7.69458 28.9572V31.7378H5.95134V24.0629C6.73716 23.9459 7.53273 23.8913 8.3283 23.903C9.41441 23.903 10.1866 24.1097 10.7072 24.5251C11.2025 24.9189 11.5379 25.5644 11.5379 26.3248C11.5359 27.0892 11.2824 27.7346 10.8223 28.1734ZM18.2456 30.8155C17.4267 31.496 16.1807 31.8197 14.6578 31.8197C13.7452 31.8197 13.0998 31.7612 12.661 31.7027V24.0649C13.448 23.95 14.2427 23.8959 15.038 23.903C16.5141 23.903 17.4735 24.1682 18.2222 24.7337C19.0315 25.3343 19.5384 26.2917 19.5384 27.6664C19.5384 29.1542 18.9944 30.1818 18.2456 30.8155ZM25.4506 25.4045H22.4633V27.1809H25.2556V28.6121H22.4633V31.7398H20.6967V23.9615H25.4506V25.4045ZM17.6509 14.1534V4.40376L27.4005 14.1534H17.6509Z" fill="#7D7C7F"/>
</svg>
