<svg width="32" height="28" viewBox="0 0 32 28" fill="none" xmlns="http://www.w3.org/2000/svg">
<path id="&#226;&#128;&#156;" d="M30.4781 0L32 2.07004C29.7533 3.7406 28.014 5.73801 26.782 8.06226C25.5499 10.3139 24.9339 12.7834 24.9339 15.4708H25.1513C26.8907 15.4708 28.3401 16.0882 29.4997 17.323C30.7317 18.4851 31.3477 19.9377 31.3477 21.6809C31.3477 23.3515 30.7317 24.8405 29.4997 26.1479C28.3401 27.3826 26.8907 28 25.1513 28C23.3395 28 21.8538 27.4189 20.6943 26.2568C19.6072 25.0221 18.9549 23.4241 18.7375 21.463C18.5925 19.284 18.8462 16.8508 19.4985 14.1634C20.2232 11.476 21.4552 8.86122 23.1946 6.31907C25.0064 3.77691 27.4342 1.67056 30.4781 0ZM11.7801 0L13.302 2.07004C11.0554 3.7406 9.31604 5.73801 8.084 8.06226C6.85197 10.3139 6.23595 12.7834 6.23595 15.4708H6.45337C8.19271 15.4708 9.64217 16.0882 10.8017 17.323C12.0338 18.4851 12.6498 19.9377 12.6498 21.6809C12.6498 23.3515 12.0338 24.8405 10.8017 26.1479C9.64217 27.3826 8.19271 28 6.45337 28C4.64155 28 3.15586 27.4189 1.99629 26.2568C0.909203 25.0221 0.256949 23.4241 0.0395306 21.463C-0.105415 19.284 0.14824 16.8508 0.800494 14.1634C1.52522 11.476 2.75726 8.86122 4.4966 6.31907C6.30842 3.77691 8.73626 1.67056 11.7801 0Z" fill="#CD7BD0"/>
</svg>
