<svg width="16" height="14" viewBox="0 0 16 14" fill="none" xmlns="http://www.w3.org/2000/svg">
<path d="M15.239 0L16 1.03502C14.8767 1.8703 14.007 2.869 13.391 4.03113C12.775 5.15694 12.467 6.3917 12.467 7.73541H12.5757C13.4453 7.73541 14.1701 8.0441 14.7498 8.66148C15.3659 9.24254 15.6739 9.96887 15.6739 10.8405C15.6739 11.6757 15.3659 12.4202 14.7498 13.0739C14.1701 13.6913 13.4453 14 12.5757 14C11.6698 14 10.9269 13.7095 10.3471 13.1284C9.80358 12.511 9.47745 11.7121 9.36875 10.7315C9.29627 9.64202 9.4231 8.42542 9.74923 7.08171C10.1116 5.73801 10.7276 4.43061 11.5973 3.15953C12.5032 1.88846 13.7171 0.835279 15.239 0ZM5.89006 0L6.65102 1.03502C5.52769 1.8703 4.65802 2.869 4.042 4.03113C3.42598 5.15694 3.11797 6.3917 3.11797 7.73541H3.22668C4.09636 7.73541 4.82108 8.0441 5.40086 8.66148C6.01688 9.24254 6.32489 9.96887 6.32489 10.8405C6.32489 11.6757 6.01688 12.4202 5.40086 13.0739C4.82108 13.6913 4.09636 14 3.22668 14C2.32077 14 1.57793 13.7095 0.998147 13.1284C0.454602 12.511 0.128474 11.7121 0.0197653 10.7315C-0.0527075 9.64202 0.07412 8.42542 0.400247 7.08171C0.762611 5.73801 1.37863 4.43061 2.2483 3.15953C3.15421 1.88846 4.36813 0.835279 5.89006 0Z" fill="#CD7BD0"/>
</svg>
