<svg width="114" height="70" viewBox="0 0 114 70" fill="none" xmlns="http://www.w3.org/2000/svg">
<path d="M0 46.2362C0 43.1365 0.597753 40.123 1.79326 37.1956L13.8337 0L39.1955 0L32.5348 23.5055C37.8292 25.0554 42.0989 27.8106 45.3438 31.7712C48.7595 35.7319 50.4674 40.5535 50.4674 46.2362C50.4674 53.2964 48.0764 59.0652 43.2944 63.5424C38.5124 67.8475 32.4494 70 25.1056 70C17.9326 70 11.9551 67.8475 7.17303 63.5424C2.39101 59.0652 0 53.2964 0 46.2362ZM63.5326 46.2362C63.5326 43.1365 64.1303 40.123 65.3258 37.1956L77.3663 0L102.728 0L96.0674 23.5055C101.362 25.0554 105.631 27.8106 108.876 31.7712C112.292 35.7319 114 40.5535 114 46.2362C114 53.2964 111.609 59.0652 106.827 63.5424C102.045 67.8475 95.982 70 88.6382 70C81.4652 70 75.4876 67.8475 70.7056 63.5424C65.9236 59.0652 63.5326 53.2964 63.5326 46.2362Z" fill="#D8D9DC"/>
</svg>
