<svg width="18" height="18" viewBox="0 0 18 18" fill="none" xmlns="http://www.w3.org/2000/svg">
<g id="Group">
<path id="Vector" d="M17.1 9.9C16.8613 9.9 16.6324 9.99482 16.4636 10.1636C16.2948 10.3324 16.2 10.5613 16.2 10.8V13.5C16.2 14.2161 15.9155 14.9028 15.4092 15.4092C14.9028 15.9155 14.2161 16.2 13.5 16.2H4.5C3.78392 16.2 3.09716 15.9155 2.59081 15.4092C2.08446 14.9028 1.8 14.2161 1.8 13.5V4.5C1.8 3.78392 2.08446 3.09716 2.59081 2.59081C3.09716 2.08446 3.78392 1.8 4.5 1.8H9C9.23869 1.8 9.46761 1.70518 9.6364 1.5364C9.80518 1.36761 9.9 1.13869 9.9 0.9C9.9 0.661305 9.80518 0.432387 9.6364 0.263604C9.46761 0.0948211 9.23869 0 9 0H4.5C3.30696 0.00142907 2.1632 0.475994 1.3196 1.3196C0.475994 2.1632 0.00142907 3.30696 0 4.5V13.5C0.00142907 14.693 0.475994 15.8368 1.3196 16.6804C2.1632 17.524 3.30696 17.9986 4.5 18H13.5C14.693 17.9986 15.8368 17.524 16.6804 16.6804C17.524 15.8368 17.9986 14.693 18 13.5V10.8C18 10.5613 17.9052 10.3324 17.7364 10.1636C17.5676 9.99482 17.3387 9.9 17.1 9.9Z" fill="#366159"/>
<path id="Vector_2" d="M4.50893 10.0285C4.53618 10.2183 4.62335 10.3945 4.75772 10.5313C4.89209 10.6681 5.06664 10.7584 5.25593 10.789C5.30352 10.7969 5.35169 10.8008 5.39993 10.8007C5.56718 10.8008 5.73114 10.7543 5.87342 10.6664C6.0157 10.5785 6.13067 10.4526 6.20543 10.303C7.32233 8.06833 10.2941 7.93423 11.6999 8.01793V9.90073C11.7 10.0787 11.7528 10.2527 11.8517 10.4006C11.9506 10.5486 12.0911 10.6639 12.2555 10.732C12.42 10.8001 12.6009 10.818 12.7755 10.7833C12.95 10.7485 13.1104 10.6629 13.2362 10.537L17.7362 6.03703C17.8258 5.94755 17.8954 5.8402 17.9406 5.72197C17.9858 5.60375 18.0056 5.47732 17.9986 5.35093C17.9917 5.22455 17.9581 5.10106 17.9002 4.98852C17.8423 4.87598 17.7612 4.77693 17.6624 4.69783L13.1624 1.09783C13.03 0.991836 12.8704 0.925404 12.7019 0.906188C12.5334 0.886971 12.3629 0.915753 12.2101 0.989215C12.0572 1.06268 11.9282 1.17783 11.838 1.32141C11.7477 1.46499 11.6999 1.63114 11.6999 1.80073V3.52693C9.17993 3.40903 7.25393 4.00843 5.99303 5.30803C5.42707 5.94591 5.00229 6.69618 4.74653 7.50968C4.49077 8.32318 4.4098 9.18155 4.50893 10.0285Z" fill="#366159"/>
</g>
</svg>
