<svg width="28" height="28" viewBox="0 0 28 28" fill="none" xmlns="http://www.w3.org/2000/svg">
<path d="M21.7533 17.2117C21.2066 16.6424 20.5471 16.338 19.8482 16.338C19.1549 16.338 18.4899 16.6368 17.9206 17.206L16.1395 18.9815C15.9929 18.9026 15.8464 18.8293 15.7055 18.756C15.5026 18.6546 15.3109 18.5588 15.1475 18.4573C13.4791 17.3977 11.9629 16.0168 10.5087 14.23C9.8042 13.3395 9.33075 12.5898 8.98693 11.8289C9.44911 11.4062 9.87748 10.9666 10.2946 10.5438C10.4524 10.386 10.6102 10.2226 10.768 10.0647C11.9517 8.88111 11.9517 7.34801 10.768 6.16437L9.22929 4.62564C9.05457 4.45091 8.8742 4.27055 8.70511 4.09019C8.36693 3.74073 8.01184 3.38 7.64547 3.04182C7.09874 2.50073 6.44492 2.21327 5.75729 2.21327C5.06965 2.21327 4.40456 2.50073 3.84092 3.04182L3.82965 3.05309L1.91328 4.98637C1.19182 5.70783 0.780367 6.5871 0.690185 7.60728C0.554912 9.25311 1.03964 10.7862 1.41164 11.7895C2.32473 14.2526 3.68874 16.5353 5.72347 18.9815C8.1922 21.9293 11.1626 24.2571 14.5557 25.8973C15.852 26.5117 17.5824 27.2388 19.5157 27.3628C19.634 27.3684 19.758 27.3741 19.8708 27.3741C21.1728 27.3741 22.2662 26.9062 23.123 25.9762C23.1286 25.965 23.1399 25.9593 23.1455 25.948C23.4386 25.593 23.7768 25.2717 24.1319 24.9279C24.3742 24.6968 24.6222 24.4544 24.8646 24.2008C25.4226 23.6202 25.7157 22.9439 25.7157 22.2506C25.7157 21.5517 25.417 20.8809 24.8477 20.3173L21.7533 17.2117ZM23.7711 23.1468C23.7655 23.1468 23.7655 23.1524 23.7711 23.1468C23.5513 23.3835 23.3259 23.5977 23.0835 23.8344C22.7171 24.1839 22.3451 24.5502 21.9957 24.9617C21.4264 25.5704 20.7557 25.8579 19.8764 25.8579C19.7919 25.8579 19.7017 25.8579 19.6171 25.8522C17.9431 25.7451 16.3875 25.0913 15.2208 24.5333C12.0306 22.989 9.22929 20.7964 6.90147 18.0177C4.97947 15.7011 3.69437 13.5593 2.84328 11.2597C2.3191 9.8562 2.12746 8.76274 2.21201 7.73128C2.26837 7.07183 2.52201 6.5251 2.98983 6.05728L4.91183 4.13528C5.18801 3.876 5.4811 3.73509 5.76856 3.73509C6.12365 3.73509 6.41111 3.94928 6.59147 4.12964L6.60838 4.14655C6.9522 4.46782 7.27911 4.80037 7.62293 5.15546C7.79765 5.33583 7.97802 5.51619 8.15838 5.70219L9.69711 7.24092C10.2946 7.83838 10.2946 8.39074 9.69711 8.9882C9.53366 9.15165 9.37584 9.31511 9.21238 9.47292C8.73893 9.95765 8.28802 10.4086 7.79765 10.8482C7.78638 10.8595 7.77511 10.8651 7.76947 10.8764C7.28474 11.3611 7.37493 11.8346 7.47638 12.1558L7.49329 12.2066C7.89347 13.176 8.45711 14.0891 9.31384 15.1769L9.31948 15.1826C10.8751 17.0989 12.5153 18.5926 14.3246 19.7368C14.5557 19.8833 14.7924 20.0017 15.0178 20.1144C15.2208 20.2159 15.4124 20.3117 15.5759 20.4131C15.5984 20.4244 15.6209 20.4413 15.6435 20.4526C15.8351 20.5484 16.0155 20.5935 16.2015 20.5935C16.6693 20.5935 16.9624 20.3004 17.0582 20.2046L18.9859 18.2769C19.1775 18.0853 19.4819 17.8542 19.837 17.8542C20.1864 17.8542 20.4739 18.074 20.6486 18.2657L20.6599 18.2769L23.7655 21.3826C24.3461 21.9575 24.3461 22.5493 23.7711 23.1468ZM15.0799 7.0211C16.5566 7.2691 17.898 7.96801 18.969 9.03892C20.0399 10.1098 20.7331 11.4513 20.9868 12.928C21.0488 13.3 21.37 13.5593 21.7364 13.5593C21.7815 13.5593 21.821 13.5537 21.866 13.548C22.2831 13.4804 22.5593 13.0858 22.4917 12.6687C22.1873 10.882 21.3419 9.25311 20.0511 7.96238C18.7604 6.67165 17.1315 5.82619 15.3448 5.52183C14.9277 5.45419 14.5388 5.73037 14.4655 6.14183C14.3922 6.55328 14.6628 6.95346 15.0799 7.0211ZM27.3221 12.4489C26.8204 9.50674 25.4339 6.82946 23.3033 4.69892C21.1728 2.56837 18.4955 1.18182 15.5533 0.68018C15.1419 0.606907 14.7529 0.888725 14.6797 1.30018C14.612 1.71727 14.8882 2.10618 15.3053 2.17946C17.9319 2.62473 20.3273 3.87037 22.2324 5.76983C24.1375 7.67492 25.3775 10.0704 25.8228 12.6969C25.8848 13.0689 26.2061 13.3282 26.5724 13.3282C26.6175 13.3282 26.657 13.3226 26.7021 13.3169C27.1135 13.2549 27.3953 12.8604 27.3221 12.4489Z" fill="#366159"/>
</svg>
