<svg width="24" height="24" viewBox="0 0 24 24" fill="none" xmlns="http://www.w3.org/2000/svg">
<path d="M11.6367 14.074C10.09 12.8022 9.05721 11.2328 8.51427 10.3398L8.10926 9.5763C8.25087 9.42436 9.33077 8.268 9.79874 7.64059C10.3868 6.85274 9.53418 6.14119 9.53418 6.14119C9.53418 6.14119 7.13499 3.74167 6.58821 3.26569C6.04144 2.78905 5.41202 3.05378 5.41202 3.05378C4.26282 3.79631 3.07147 4.44188 3 7.54662C2.99734 10.4534 5.20394 13.4516 7.59014 15.7726C9.98017 18.3939 13.2617 21.0212 16.4342 21.0182C19.5386 20.9474 20.184 19.7562 20.9266 18.607C20.9266 18.607 21.1915 17.9781 20.7153 17.4308C20.2388 16.8837 17.839 14.484 17.839 14.484C17.839 14.484 17.1279 13.6312 16.3399 14.2198C15.7527 14.6587 14.6981 15.6352 14.444 15.8719C14.4445 15.8727 12.6804 14.9323 11.6367 14.074Z" fill="#366159"/>
</svg>
