<svg width="49" height="48" viewBox="0 0 49 48" fill="none" xmlns="http://www.w3.org/2000/svg">
<path d="M1 24C1 11.0213 11.5213 0.5 24.5 0.5C37.4787 0.5 48 11.0213 48 24C48 36.9787 37.4787 47.5 24.5 47.5C11.5213 47.5 1 36.9787 1 24Z" stroke="#366159"/>
<path d="M22.7781 26.1205L22.5135 29.8432C22.8921 29.8432 23.0561 29.6805 23.2528 29.4852L25.0281 27.7885L28.7068 30.4825C29.3815 30.8585 29.8568 30.6605 30.0388 29.8618L32.4535 18.5472L32.4541 18.5465C32.6681 17.5492 32.0935 17.1592 31.4361 17.4038L17.2428 22.8378C16.2741 23.2138 16.2888 23.7538 17.0781 23.9985L20.7068 25.1272L29.1355 19.8532C29.5321 19.5905 29.8928 19.7358 29.5961 19.9985L22.7781 26.1205Z" fill="black"/>
</svg>
