<svg width="24" height="24" viewBox="0 0 24 24" fill="none" xmlns="http://www.w3.org/2000/svg">
<path d="M12 3C7.03583 3 3 7.03583 3 12C3 16.9642 7.03583 21 12 21C16.9642 21 21 16.9642 21 12C21 7.03583 16.9642 3 12 3ZM12 19.2C8.0315 19.2 4.8 15.9685 4.8 12C4.8 8.0315 8.0315 4.8 12 4.8C15.9685 4.8 19.2 8.0315 19.2 12C19.2 15.9685 15.9685 19.2 12 19.2Z" fill="#366159"/>
<path d="M12.9 11.5182V7.5001C12.9 7.00403 12.496 6.6001 12 6.6001C11.5039 6.6001 11.1 7.00403 11.1 7.5001V12.0001C11.1 12.3013 11.2488 12.5812 11.5004 12.7477L14.2004 14.5477C14.3527 14.6505 14.5264 14.7001 14.7 14.7001C14.9905 14.7001 15.2775 14.5584 15.4512 14.2997C15.7275 13.8851 15.6141 13.3288 15.2031 13.0525L12.9 11.5182Z" fill="#366159"/>
</svg>
