<svg width="48" height="48" viewBox="0 0 48 48" fill="none" xmlns="http://www.w3.org/2000/svg">
<path d="M24.5371 25.4082C25.0915 25.4082 25.5003 25.4897 25.7627 25.6523C26.0287 25.815 26.1621 26.0884 26.1621 26.4727C26.1621 26.8423 26.0377 27.1232 25.79 27.3154C25.5461 27.5039 25.1394 27.5986 24.5703 27.5986H24.0166V25.4082H24.5371Z" fill="#7D7C7F"/>
<path fill-rule="evenodd" clip-rule="evenodd" d="M17.3174 13.9219C17.753 14.5612 18.4788 14.9531 19.2559 14.9531H40V41.5605C40 42.908 38.9065 44 37.5654 44H10.4346C9.09353 44 8 42.908 8 41.5605V14.9531H9.71582C11.0141 14.953 12.0732 13.8958 12.0732 12.5996V11.8232H15.8818L17.3174 13.9219ZM14 24V29.2227C14 30.1245 14.2809 30.8494 14.8428 31.3965C15.4045 31.9433 16.2214 32.2167 17.293 32.2168C18.0468 32.2168 18.6718 32.0856 19.167 31.8232C19.666 31.5608 20.0383 31.206 20.2822 30.7588C20.5298 30.3079 20.6533 29.8032 20.6533 29.2451V24H18.9404V28.9512C18.9404 29.3688 18.8843 29.7126 18.7734 29.9824C18.6626 30.252 18.4893 30.4517 18.2529 30.5811C18.0201 30.7104 17.7148 30.7754 17.3379 30.7754C16.8019 30.7754 16.3966 30.6399 16.123 30.3701C15.8498 30.1002 15.7129 29.6306 15.7129 28.9619V24H14ZM22.2979 24V32.1055H24.0166V28.9951H24.9307L26.8662 32.1055H28.7734L26.3887 28.5742C26.6548 28.4522 26.9027 28.2947 27.1318 28.1025C27.361 27.9103 27.5461 27.6756 27.6865 27.3984C27.8269 27.1213 27.8974 26.7981 27.8975 26.4287C27.8975 25.8818 27.7806 25.4288 27.5479 25.0703C27.315 24.7118 26.958 24.444 26.4775 24.2666C26.0007 24.0892 25.3947 24 24.6592 24H22.2979ZM29.4531 24V32.1055H34.459V30.6865H31.1719V24H29.4531Z" fill="#7D7C7F"/>
<path fill-rule="evenodd" clip-rule="evenodd" d="M37.5654 4C38.2105 4.0018 38.829 4.25845 39.2852 4.71387C39.7412 5.16928 39.9982 5.78665 40 6.43066V13.6709H19.2598C18.9053 13.6709 18.5729 13.4947 18.373 13.2021L16.8252 10.9346C16.6569 10.689 16.3782 10.541 16.0801 10.541H11.6934C11.1955 10.541 10.7922 10.9434 10.792 11.4404V12.5996C10.792 13.1915 10.3115 13.6709 9.71875 13.6709H8V6.43066C8.0018 5.78665 8.25875 5.16928 8.71484 4.71387C9.17099 4.25845 9.78949 4.0018 10.4346 4H37.5654ZM23.0176 6.99707C22.0064 6.99707 21.1858 7.82544 21.1855 8.83496C21.1855 9.84468 22.0062 10.6738 23.0176 10.6738C24.0383 10.6738 24.8594 9.84464 24.8594 8.83496C24.8591 7.82548 24.0381 6.99713 23.0176 6.99707ZM28.9678 6.99707C27.9566 6.99707 27.136 7.82544 27.1357 8.83496C27.1357 9.84468 27.9564 10.6738 28.9678 10.6738C29.4464 10.6592 29.901 10.4594 30.2344 10.1162C30.5677 9.77301 30.7539 9.31304 30.7539 8.83496C30.7538 8.35706 30.5676 7.89778 30.2344 7.55469C29.901 7.21151 29.4464 7.01168 28.9678 6.99707ZM34.9189 6.99707C33.9078 6.99707 33.0862 7.82544 33.0859 8.83496C33.0859 9.84468 33.9076 10.6738 34.9189 10.6738C35.9395 10.6736 36.7598 9.84456 36.7598 8.83496C36.7595 7.82557 35.9393 6.99728 34.9189 6.99707Z" fill="#7D7C7F"/>
</svg>
