<svg width="49" height="48" viewBox="0 0 49 48" fill="none" xmlns="http://www.w3.org/2000/svg">
<path d="M1 24C1 11.0213 11.5213 0.5 24.5 0.5C37.4787 0.5 48 11.0213 48 24C48 36.9787 37.4787 47.5 24.5 47.5C11.5213 47.5 1 36.9787 1 24Z" stroke="#366159"/>
<path d="M23.3895 16.0039C19.9571 16.5074 16.5 19.3916 16.5 23.9879C16.5 28.4542 20.0918 32 24.4891 32C29.4431 32 33.8146 27.1643 32.1336 21.5923C32.0613 21.3529 31.7733 21.2583 31.5791 21.4149L30.0902 22.6147C29.9893 22.6958 29.9445 22.8257 29.9678 22.9532C30.0273 23.281 30.0582 23.6195 30.0582 23.9627C30.0582 27.1434 27.4173 29.7011 24.2166 29.547C21.6032 29.4212 19.1557 27.0507 18.9431 24.4316C18.7033 21.4777 20.753 18.9561 23.5003 18.4616C23.6694 18.4316 23.7952 18.2899 23.7952 18.1176V16.3492C23.7952 16.1329 23.6025 15.9728 23.3895 16.0039ZM26.237 16.1308C26.0474 16.1298 25.8829 16.28 25.8829 16.4803V21.5439C25.473 21.3055 24.9988 21.1671 24.4911 21.1671C22.9539 21.1671 21.7076 22.4188 21.7076 23.9627C21.7076 25.5066 22.9539 26.7583 24.4911 26.7583C26.0283 26.7583 27.2747 25.5066 27.2747 23.9627V19.123C27.8356 19.449 28.3363 19.8669 28.7514 20.3617C28.9027 20.5424 29.1844 20.5248 29.31 20.3249L30.2723 18.796C30.3579 18.6605 30.3429 18.48 30.2308 18.3647C29.8571 17.9796 28.5634 16.6792 26.3192 16.1411C26.2915 16.1345 26.264 16.131 26.237 16.1308Z" fill="black"/>
</svg>
