<svg width="24" height="24" viewBox="0 0 24 24" fill="none" xmlns="http://www.w3.org/2000/svg">
<path d="M10.8895 4.00387C7.45708 4.50742 4 7.39165 4 11.9879C4 16.4542 7.59179 20 11.9891 20C16.9431 20 21.3146 15.1643 19.6336 9.59231C19.5613 9.35294 19.2733 9.2583 19.0791 9.41486L17.5902 10.6147C17.4893 10.6958 17.4445 10.8257 17.4678 10.9532C17.5273 11.281 17.5582 11.6195 17.5582 11.9627C17.5582 15.1434 14.9173 17.7011 11.7166 17.547C9.10319 17.4212 6.65567 15.0507 6.44308 12.4316C6.20334 9.47769 8.25295 6.95608 11.0003 6.46161C11.1694 6.43156 11.2952 6.2899 11.2952 6.11762V4.34922C11.2952 4.13291 11.1025 3.97277 10.8895 4.00387ZM13.737 4.13082C13.5474 4.12977 13.3829 4.27999 13.3829 4.48027V9.54385C12.973 9.30553 12.4988 9.1671 11.9911 9.1671C10.4539 9.1671 9.20759 10.4188 9.20759 11.9627C9.20759 13.5066 10.4539 14.7583 11.9911 14.7583C13.5283 14.7583 14.7747 13.5066 14.7747 11.9627V7.12297C15.3356 7.449 15.8363 7.86692 16.2514 8.36173C16.4027 8.5424 16.6844 8.52476 16.81 8.32488L17.7723 6.79604C17.8579 6.66046 17.8429 6.48001 17.7308 6.36469C17.3571 5.9796 16.0634 4.67921 13.8192 4.14105C13.7915 4.13446 13.764 4.13097 13.737 4.13082Z" fill="white"/>
</svg>
