<svg width="49" height="48" viewBox="0 0 49 48" fill="none" xmlns="http://www.w3.org/2000/svg">
<path d="M1 24C1 11.0213 11.5213 0.5 24.5 0.5C37.4787 0.5 48 11.0213 48 24C48 36.9787 37.4787 47.5 24.5 47.5C11.5213 47.5 1 36.9787 1 24Z" stroke="#366159"/>
<path fill-rule="evenodd" clip-rule="evenodd" d="M33.5 20.7889C33.5 19.2595 32.2119 18 30.6477 18H17.3523C15.7881 18 14.5 19.2595 14.5 20.7889V28.2111C14.5 29.7405 15.7881 31 17.3523 31H30.6477C32.2119 31 33.5 29.7405 33.5 28.2111V20.7889ZM22.1368 27.6263V20.654L27.5654 24.1626L22.1368 27.6263Z" fill="black"/>
</svg>
