<svg width="512" height="512" viewBox="0 0 512 512" fill="none" xmlns="http://www.w3.org/2000/svg">
<circle cx="256" cy="256" r="256" fill="#366159"/>
<path d="M242.145 220H218.367C216.961 213.161 214.5 207.152 210.984 201.974C207.532 196.797 203.314 192.45 198.328 188.935C193.406 185.355 187.941 182.67 181.932 180.881C175.924 179.091 169.659 178.196 163.14 178.196C151.25 178.196 140.48 181.2 130.828 187.209C121.24 193.217 113.601 202.07 107.912 213.768C102.287 225.465 99.4748 239.815 99.4748 256.818C99.4748 273.821 102.287 288.171 107.912 299.869C113.601 311.566 121.24 320.419 130.828 326.428C140.48 332.436 151.25 335.44 163.14 335.44C169.659 335.44 175.924 334.545 181.932 332.756C187.941 330.966 193.406 328.313 198.328 324.798C203.314 321.218 207.532 316.839 210.984 311.662C214.5 306.42 216.961 300.412 218.367 293.636H242.145C240.355 303.672 237.096 312.653 232.365 320.579C227.635 328.505 221.755 335.249 214.723 340.81C207.692 346.307 199.798 350.494 191.041 353.37C182.348 356.246 173.047 357.685 163.14 357.685C146.392 357.685 131.499 353.594 118.459 345.412C105.419 337.23 95.1602 325.597 87.6815 310.511C80.2028 295.426 76.4634 277.528 76.4634 256.818C76.4634 236.108 80.2028 218.21 87.6815 203.125C95.1602 188.04 105.419 176.406 118.459 168.224C131.499 160.043 146.392 155.952 163.14 155.952C173.047 155.952 182.348 157.39 191.041 160.266C199.798 163.143 207.692 167.362 214.723 172.923C221.755 178.42 227.635 185.131 232.365 193.058C237.096 200.92 240.355 209.901 242.145 220ZM427.459 158.636V355H403.68V179.73H304.731V355H280.953V158.636H427.459Z" fill="#FBF6F0"/>
</svg>
