<svg width="56" height="56" viewBox="0 0 56 56" fill="none" xmlns="http://www.w3.org/2000/svg">
<circle cx="28" cy="28" r="28" fill="#F0FDFA"/>
<path fill-rule="evenodd" clip-rule="evenodd" d="M14.2335 25.7485C13.4437 25.3201 13 24.5701 13 23.7859C13 23.0003 13.4437 22.2503 14.2335 21.8233L25.8344 15.5347C26.5001 15.1837 27.2442 15 28 15C28.7558 15 29.4998 15.1837 30.1656 15.5347L41.7665 21.8233C42.5563 22.2503 43 23.0003 43 23.7859C43 24.5701 42.5563 25.3201 41.7665 25.7485L30.1656 32.0358C29.5001 32.3874 28.756 32.5716 28 32.5716C27.244 32.5716 26.4999 32.3874 25.8344 32.0358L14.2335 25.7485ZM15.2451 23.9515L26.846 30.2388C27.2007 30.4261 27.5972 30.5242 28 30.5242C28.4028 30.5242 28.7993 30.4261 29.154 30.2388L40.7549 23.9515C40.8316 23.9104 40.907 23.8612 40.907 23.7859C40.907 23.7093 40.8316 23.6614 40.7549 23.6189L29.154 17.3316C28.7993 17.1443 28.4028 17.0462 28 17.0462C27.5972 17.0462 27.2007 17.1443 26.846 17.3316L15.2451 23.6189C15.1684 23.6614 15.093 23.7093 15.093 23.7859C15.093 23.8612 15.1684 23.9104 15.2451 23.9515Z" fill="#366159"/>
<path fill-rule="evenodd" clip-rule="evenodd" d="M36.7209 26.972C36.7209 26.6997 36.8312 26.4387 37.0274 26.2462C37.2237 26.0537 37.4899 25.9455 37.7674 25.9455C38.045 25.9455 38.3112 26.0537 38.5074 26.2462C38.7037 26.4387 38.814 26.6997 38.814 26.972V33.1306C38.814 34.4918 38.2627 35.7972 37.2814 36.7596C36.3001 37.7221 34.9692 38.2628 33.5814 38.2628H22.4186C21.0308 38.2628 19.6999 37.7221 18.7186 36.7596C17.7373 35.7972 17.186 34.4918 17.186 33.1306V26.972C17.186 26.6997 17.2963 26.4387 17.4926 26.2462C17.6888 26.0537 17.955 25.9455 18.2326 25.9455C18.5101 25.9455 18.7763 26.0537 18.9726 26.2462C19.1688 26.4387 19.2791 26.6997 19.2791 26.972V33.1306C19.2791 33.9473 19.6098 34.7305 20.1986 35.308C20.7874 35.8855 21.5859 36.2099 22.4186 36.2099H33.5814C34.4141 36.2099 35.2126 35.8855 35.8014 35.308C36.3902 34.7305 36.7209 33.9473 36.7209 33.1306V26.972Z" fill="#366159"/>
<path fill-rule="evenodd" clip-rule="evenodd" d="M27.2605 24.9602C27.1633 24.8649 27.0863 24.7518 27.0338 24.6274C26.9812 24.5029 26.9541 24.3695 26.9541 24.2348C26.9541 24.1001 26.9812 23.9667 27.0338 23.8422C27.0863 23.7178 27.1633 23.6047 27.2605 23.5094C27.4566 23.3171 27.7226 23.209 28 23.209C28.1373 23.209 28.2733 23.2355 28.4002 23.2871C28.5271 23.3386 28.6424 23.4142 28.7395 23.5094L33.6233 28.2995C33.82 28.4911 33.9302 28.7525 33.9302 29.0249V39.9736C33.9302 40.2458 33.82 40.5069 33.6237 40.6994C33.4275 40.8919 33.1613 41 32.8837 41C32.6062 41 32.34 40.8919 32.1437 40.6994C31.9475 40.5069 31.8372 40.2458 31.8372 39.9736V29.4505L27.2605 24.9602Z" fill="#366159"/>
</svg>
