<svg width="56" height="56" viewBox="0 0 56 56" fill="none" xmlns="http://www.w3.org/2000/svg">
<circle cx="28" cy="28" r="28" fill="#F0FDFA"/>
<path fill-rule="evenodd" clip-rule="evenodd" d="M28 12C27.8998 12.0001 27.8007 12.0201 27.7082 12.0586C27.6158 12.0972 27.5319 12.1537 27.4613 12.2248L25.2943 14.397L22.4606 13.2191C22.3682 13.1806 22.2692 13.1608 22.1691 13.1608C22.0691 13.1608 21.97 13.1806 21.8777 13.2191C21.7849 13.257 21.7005 13.3129 21.6294 13.3837C21.5584 13.4544 21.5022 13.5386 21.464 13.6313L20.2943 16.4672L17.2252 16.4626C17.1249 16.4624 17.0255 16.482 16.9328 16.5203C16.8401 16.5586 16.7558 16.6149 16.6849 16.6858C16.614 16.7567 16.5577 16.841 16.5194 16.9337C16.4811 17.0264 16.4615 17.1258 16.4617 17.2261L16.4663 20.2951L13.6303 21.4647C13.5376 21.5029 13.4534 21.5592 13.3827 21.6302C13.3119 21.7012 13.2559 21.7856 13.2181 21.8784C13.1796 21.9708 13.1598 22.0698 13.1598 22.1699C13.1598 22.2699 13.1796 22.369 13.2181 22.4613L14.3961 25.2949L12.2237 27.4618C12.1528 27.5325 12.0965 27.6164 12.0582 27.7089C12.0198 27.8013 12 27.9004 12 28.0005C12 28.1006 12.0198 28.1997 12.0582 28.2922C12.0965 28.3846 12.1528 28.4686 12.2237 28.5392L14.3961 30.7061L13.2181 33.5398C13.1796 33.6321 13.1598 33.7311 13.1598 33.8312C13.1598 33.9312 13.1796 34.0303 13.2181 34.1226C13.2559 34.2155 13.3119 34.2998 13.3827 34.3709C13.4534 34.4419 13.5376 34.4981 13.6303 34.5364L16.4663 35.7059L16.4617 38.775C16.4615 38.8753 16.4811 38.9747 16.5194 39.0674C16.5577 39.1601 16.614 39.2443 16.6849 39.3153C16.7558 39.3862 16.8401 39.4424 16.9328 39.4807C17.0255 39.519 17.1249 39.5386 17.2252 39.5384L20.2943 39.5339L21.464 42.3698C21.5409 42.5572 21.6903 42.705 21.8777 42.782C22.0644 42.8597 22.2739 42.8597 22.4606 42.782L25.2943 41.604L27.4613 43.7763C27.5319 43.8472 27.6159 43.9035 27.7083 43.9418C27.8008 43.9802 27.8999 44 28 44C28.1001 44 28.1992 43.9802 28.2917 43.9418C28.3841 43.9035 28.4681 43.8472 28.5387 43.7763L30.7057 41.604L33.5394 42.782C33.7261 42.8597 33.9356 42.8597 34.1223 42.782C34.2151 42.7441 34.2995 42.6882 34.3706 42.6174C34.4416 42.5466 34.4978 42.4625 34.536 42.3698L35.7056 39.5339L38.7748 39.5384C38.8751 39.5386 38.9745 39.519 39.0672 39.4807C39.1599 39.4424 39.2442 39.3862 39.3151 39.3153C39.386 39.2443 39.4423 39.1601 39.4806 39.0674C39.5189 38.9747 39.5385 38.8753 39.5383 38.775L39.5337 35.7059L42.3697 34.5364C42.4624 34.4981 42.5466 34.4419 42.6173 34.3709C42.6881 34.2998 42.7441 34.2155 42.7819 34.1226C42.8204 34.0303 42.8402 33.9312 42.8402 33.8312C42.8402 33.7311 42.8204 33.6321 42.7819 33.5398L41.6039 30.7061L43.7763 28.5392C43.8472 28.4686 43.9035 28.3846 43.9418 28.2922C43.9802 28.1997 44 28.1006 44 28.0005C44 27.9004 43.9802 27.8013 43.9418 27.7089C43.9035 27.6164 43.8472 27.5325 43.7763 27.4618L41.6039 25.2949L42.7819 22.4613C42.8204 22.369 42.8402 22.2699 42.8402 22.1699C42.8402 22.0698 42.8204 21.9708 42.7819 21.8784C42.7441 21.7856 42.6881 21.7012 42.6173 21.6302C42.5466 21.5592 42.4624 21.5029 42.3697 21.4647L39.5337 20.2951L39.5383 17.2261C39.5385 17.1258 39.5189 17.0264 39.4806 16.9337C39.4423 16.841 39.386 16.7567 39.3151 16.6858C39.2442 16.6149 39.1599 16.5586 39.0672 16.5203C38.9745 16.482 38.8751 16.4624 38.7748 16.4626L35.7056 16.4672L34.536 13.6313C34.4978 13.5386 34.4416 13.4544 34.3706 13.3837C34.2995 13.3129 34.2151 13.257 34.1223 13.2191C34.03 13.1806 33.9309 13.1608 33.8309 13.1608C33.7308 13.1608 33.6318 13.1806 33.5394 13.2191L30.7057 14.397L28.5387 12.2248C28.4681 12.1537 28.3842 12.0972 28.2918 12.0586C28.1993 12.0201 28.1002 12.0001 28 12ZM28 13.8408L29.9864 15.8348C30.2051 16.0535 30.5343 16.119 30.82 16.0001L33.4183 14.9182L34.4919 17.5209C34.5494 17.6605 34.6471 17.7799 34.7726 17.8639C34.8981 17.9478 35.0457 17.9926 35.1967 17.9926L38.0128 17.988L38.0083 20.8041C38.0082 20.9551 38.053 21.1027 38.137 21.2282C38.221 21.3537 38.3403 21.4514 38.4799 21.5089L41.0828 22.5824L40.0008 25.1806C39.8819 25.4663 39.9475 25.7955 40.1661 26.0142L42.1602 28.0005L40.1661 29.9869C40.0592 30.0939 39.9863 30.2302 39.9569 30.3786C39.9275 30.5269 39.9428 30.6807 40.0008 30.8204L41.0828 33.4186L38.4799 34.4922C38.3403 34.5497 38.221 34.6474 38.137 34.7729C38.053 34.8984 38.0082 35.046 38.0083 35.197L38.0128 38.013L35.1967 38.0085C35.0457 38.0084 34.8981 38.0532 34.7726 38.1372C34.6471 38.2211 34.5494 38.3405 34.4919 38.4801L33.4183 41.0829L30.82 40.0009C30.6803 39.9429 30.5265 39.9276 30.3781 39.957C30.2297 39.9865 30.0934 40.0593 29.9864 40.1663L28 42.1602L26.0136 40.1663C25.9066 40.0593 25.7703 39.9865 25.6219 39.957C25.4735 39.9276 25.3197 39.9429 25.18 40.0009L22.5817 41.0829L21.5081 38.4801C21.4506 38.3405 21.3529 38.2211 21.2274 38.1372C21.1019 38.0532 20.9543 38.0084 20.8033 38.0085L17.9872 38.013L17.9917 35.197C17.9918 35.046 17.947 34.8984 17.863 34.7729C17.779 34.6474 17.6597 34.5497 17.5201 34.4922L14.9172 33.4186L15.9992 30.8204C16.1181 30.5347 16.0525 30.2056 15.8339 29.9869L13.8398 28.0005L15.8339 26.0142C16.0525 25.7955 16.1181 25.4663 15.9992 25.1806L14.9172 22.5824L17.5201 21.5089C17.6597 21.4514 17.779 21.3537 17.863 21.2282C17.947 21.1027 17.9918 20.9551 17.9917 20.8041L17.9872 17.988L20.8033 17.9926C20.9543 17.9926 21.1019 17.9478 21.2274 17.8639C21.3529 17.7799 21.4506 17.6605 21.5081 17.5209L22.5817 14.9182L25.18 16.0001C25.4657 16.119 25.7949 16.0535 26.0136 15.8348L28 13.8408ZM28 17.3335C22.1124 17.3335 17.3326 22.1131 17.3326 28.0005C17.3326 33.888 22.1124 38.6675 28 38.6675C33.8876 38.6675 38.6674 33.888 38.6674 28.0005C38.6674 22.1131 33.8876 17.3335 28 17.3335ZM28 18.8574C33.0464 18.8574 37.1435 22.9543 37.1435 28.0005C37.1435 33.0468 33.0464 37.1437 28 37.1437C22.9536 37.1437 18.8565 33.0468 18.8565 28.0005C18.8565 22.9543 22.9536 18.8574 28 18.8574ZM28 22.667C27.7211 22.667 27.4636 22.8194 27.3302 23.064L26.0799 25.3574L23.5113 25.8382C23.237 25.8892 23.0145 26.0881 22.9284 26.3532C22.8423 26.6184 22.9063 26.9079 23.0976 27.1106L24.8943 29.0093L24.5575 31.6006C24.5399 31.7364 24.5593 31.8744 24.6136 32C24.6679 32.1257 24.7551 32.2344 24.8661 32.3146C24.9765 32.3952 25.1066 32.4445 25.2427 32.4573C25.3788 32.4702 25.5159 32.4462 25.6395 32.3877L28 31.2669L30.3605 32.3877C30.4841 32.4462 30.6212 32.4702 30.7573 32.4573C30.8934 32.4445 31.0235 32.3952 31.1339 32.3146C31.2449 32.2344 31.3321 32.1257 31.3864 32C31.4407 31.8744 31.4601 31.7364 31.4425 31.6006L31.1057 29.0093L32.9024 27.1106C33.0937 26.9079 33.1577 26.6184 33.0716 26.3532C32.9855 26.0881 32.763 25.8892 32.4887 25.8382L29.9201 25.3574L28.6698 23.064C28.604 22.9438 28.5071 22.8436 28.3893 22.7737C28.2714 22.7039 28.137 22.667 28 22.667ZM28 25.0214L28.7543 26.405C28.8641 26.6062 29.0599 26.7472 29.2847 26.7891L30.8352 27.0794L29.7517 28.2268C29.6738 28.3085 29.6152 28.4066 29.5801 28.514C29.545 28.6213 29.5344 28.7351 29.5491 28.847L29.7517 30.4113L28.3276 29.7354C28.2252 29.6869 28.1133 29.6617 28 29.6617C27.8867 29.6617 27.7748 29.6869 27.6724 29.7354L26.2483 30.4113L26.4509 28.847C26.4656 28.7351 26.455 28.6213 26.4199 28.514C26.3848 28.4066 26.3262 28.3085 26.2483 28.2268L25.1648 27.0794L26.7153 26.7891C26.9401 26.7472 27.1359 26.6062 27.2457 26.405L28 25.0214Z" fill="#366159"/>
</svg>
