<svg width="56" height="56" viewBox="0 0 56 56" fill="none" xmlns="http://www.w3.org/2000/svg">
<circle cx="28" cy="28" r="28" fill="#F0FDFA"/>
<path d="M37.7603 13H18.598C17.1654 13 16 14.1638 16 15.5979V36.7318C16 37.6436 16.4876 38.501 17.2741 38.9675L26.8568 44.6404C27.2577 44.8767 27.7145 45.0014 28.1799 45.0014C28.6453 45.0014 29.1021 44.8767 29.503 44.6404L39.0857 38.966C39.8722 38.4995 40.3598 37.6436 40.3598 36.7318V15.5979C40.3598 14.1654 39.1929 13 37.7603 13ZM38.5468 36.7318C38.5467 36.8682 38.5111 37.0022 38.4437 37.1208C38.3762 37.2393 38.2791 37.3383 38.1619 37.4081L28.5822 43.081C28.4609 43.1536 28.3221 43.192 28.1807 43.192C28.0392 43.192 27.9005 43.1536 27.7791 43.081L18.1979 37.4096C18.0805 37.3395 17.9832 37.2403 17.9155 37.1215C17.8478 37.0028 17.812 36.8685 17.8115 36.7318V21.2995H38.5468V36.7318ZM38.5468 19.4896H17.8115V15.5979C17.8115 15.1647 18.1647 14.8114 18.598 14.8114H37.7603C38.1936 14.8114 38.5468 15.1647 38.5468 15.5979V19.4896ZM24.8098 32.259L24.3252 35.0864C24.297 35.253 24.3159 35.4241 24.3797 35.5805C24.4435 35.737 24.5497 35.8725 24.6864 35.9718C24.823 36.0712 24.9847 36.1303 25.1532 36.1427C25.3217 36.1551 25.4903 36.1202 25.6401 36.0419L28.1791 34.706L30.7182 36.0419C30.868 36.1196 31.0365 36.154 31.2047 36.1414C31.3729 36.1287 31.5343 36.0695 31.6708 35.9703C31.8073 35.8711 31.9135 35.7359 31.9775 35.5798C32.0414 35.4237 32.0607 35.2528 32.0331 35.0864L31.5485 32.259L33.603 30.2573C33.7238 30.1393 33.8093 29.99 33.8497 29.8261C33.8902 29.6621 33.884 29.4902 33.8318 29.3296C33.7797 29.169 33.6837 29.0261 33.5548 28.9172C33.4258 28.8082 33.2689 28.7375 33.1018 28.713L30.2623 28.3009L28.9928 25.7271C28.6879 25.1082 27.6734 25.1082 27.3685 25.7271L26.099 28.3009L23.2595 28.713C23.0921 28.737 22.9348 28.8074 22.8055 28.9163C22.6761 29.0252 22.5799 29.1681 22.5277 29.329C22.4755 29.4898 22.4694 29.662 22.5102 29.8261C22.551 29.9902 22.6369 30.1396 22.7583 30.2573L24.8128 32.259H24.8098ZM26.8281 30.0233C26.9734 30.0022 27.1114 29.946 27.2303 29.8598C27.3491 29.7736 27.4452 29.6598 27.5104 29.5282L28.1791 28.1741L28.8479 29.5282C28.9792 29.7954 29.2343 29.981 29.5302 30.0233L31.0247 30.2422L29.9423 31.2959C29.8373 31.3984 29.7588 31.525 29.7136 31.6646C29.6684 31.8043 29.6578 31.9528 29.6827 32.0974L29.9378 33.5844L28.6018 32.8809C28.472 32.8125 28.3274 32.7768 28.1807 32.7768C28.0339 32.7768 27.8894 32.8125 27.7595 32.8809L26.4235 33.5844L26.6786 32.0974C26.7033 31.9528 26.6926 31.8043 26.6473 31.6647C26.6021 31.5252 26.5238 31.3986 26.419 31.2959L25.3366 30.2422L26.8311 30.0233H26.8281Z" fill="#366159"/>
</svg>
