<svg width="74" height="36" viewBox="0 0 74 36" fill="none" xmlns="http://www.w3.org/2000/svg">
<g id="Group 19">
<path id="Vector" d="M54.7371 28.6838C55.3821 29.1862 55.8891 29.5796 56.2209 29.8402C56.765 31.0152 56.7464 32.0706 56.619 33.0861C56.5022 34.0378 56.1306 34.9762 55.0795 35.3298C54.6415 35.476 54.1584 35.4893 53.7788 35.5504C53.4152 35.165 53.1152 34.8486 52.6852 34.3887C52.7489 33.8251 52.4384 32.993 52.9931 32.2115C52.1305 31.943 51.3156 31.6904 50.5909 31.4645C50.0786 31.9775 49.646 32.4135 49.2239 32.8362C48.1489 32.8814 47.3234 32.565 46.7713 31.8659C45.6166 31.7356 44.5522 31.6133 43.4905 31.4937C42.3305 30.7759 42.0173 29.787 42.4314 28.3329C42.7472 27.2216 42.5535 26.0838 42.5349 24.9567C41.8846 24.5127 42.9012 24.1272 42.58 23.6966C42.9383 23.4547 42.8428 23.0825 42.8428 22.7422C42.8454 21.2349 42.8481 19.7302 42.8428 18.2229C42.8428 17.8853 42.872 17.5689 42.6092 17.2446C42.4791 17.0825 42.3889 16.6996 42.3809 16.4604C42.3677 16.0749 42.5614 15.6655 42.7286 15.2933C42.864 14.9929 43.0817 14.7271 43.2861 14.4613C43.4214 14.2885 43.594 14.1449 43.7506 13.9881C43.7931 13.9801 43.8329 13.9668 43.8753 13.9668C44.1859 13.9668 44.4938 13.9668 44.8522 13.9668C45.03 14.1715 45.2344 14.4054 45.4998 14.7112C45.4998 14.7776 45.529 14.9557 45.4945 15.1205C44.9663 17.6115 45.2344 17.8614 45.7838 20.2327C46.2006 20.5224 46.0307 20.9584 46.0148 21.3253C45.9962 21.7347 45.8475 22.1361 45.7679 22.5455C45.6962 22.9123 45.9059 23.3191 45.5449 23.6594C45.4308 23.7657 45.4467 24.1007 45.5131 24.2921C45.9351 25.5096 45.8714 26.7165 45.5104 27.9314C45.4786 28.0378 45.5423 28.1733 45.5795 28.402C45.8529 28.2478 46.0572 28.1335 46.3014 27.9979C46.3014 27.5912 46.2749 27.1977 46.3068 26.8096C46.3784 25.9589 46.5748 25.1055 46.5403 24.2628C46.5058 23.3723 47.1031 22.6758 47.0978 21.8251C47.4694 21.5858 47.3605 21.211 47.3605 20.8707C47.3659 19.7621 47.3287 18.6536 47.3738 17.5477C47.4004 16.9203 47.4694 16.269 47.6764 15.6815C47.8357 15.2269 48.2365 14.8574 48.5338 14.4427C48.8735 14.5889 49.1363 14.7032 49.2398 14.7484C50.1238 15.7293 49.9778 16.8113 50.0362 17.8773C50.0919 18.9035 50.3175 19.9137 50.3122 20.9584C50.3069 21.6177 50.0494 22.2052 50.0202 22.8406C49.9539 24.3186 50.4476 25.7622 50.3043 27.2509C50.2804 27.4955 50.5299 27.7666 50.6467 28.0112C50.8617 27.9075 51.0767 27.8065 51.3448 27.6789C51.3448 27.009 51.3979 26.3018 51.3342 25.6053C51.1643 23.7205 51.6182 21.8756 51.6421 20.0014C51.65 19.4351 51.9022 18.8583 51.8863 18.2495C51.873 17.6886 51.8916 17.1409 51.5226 16.6677C51.4483 16.572 51.358 16.4551 51.3527 16.3434C51.3315 15.9473 51.3448 15.5486 51.3448 15.1631C51.6368 14.8707 51.9181 14.5889 52.1968 14.3097C52.5127 14.2193 52.8259 14.1316 53.2427 14.0146C53.7019 14.1742 54.2858 14.3762 55.0689 14.6473C55.2096 14.8042 55.5042 15.1285 55.8493 15.5113C55.9262 15.8676 56.1147 16.3168 56.1041 16.7608C56.0828 17.6115 55.8917 18.4595 55.8732 19.3102C55.8546 20.1689 55.7112 20.9823 55.3741 21.7666C55.3423 21.841 55.3343 21.9287 55.3263 22.0111C55.2361 23.2579 55.1618 24.5074 55.0556 25.7542C54.9707 26.7351 54.8459 27.7134 54.7371 28.6838Z" fill="black"/>
<path id="Vector_2" d="M70.1856 26.6469V28.4573C69.6414 28.9145 69.4317 29.8476 68.5585 29.6535C67.3905 30.6983 66.2969 31.6952 65.1794 32.6629C64.5875 33.1759 63.7938 33.1866 63.0825 33.3461C62.4321 33.4923 61.8933 32.9978 61.4022 32.6496C60.0405 31.6872 59.2548 30.3314 58.7399 28.739C58.4877 27.9575 58.2807 27.1599 58.0551 26.3731C57.917 25.8839 57.8135 25.2432 58.0179 24.8285C58.3816 24.0948 58.1108 23.3717 58.3019 22.6034C58.0737 22.4652 57.8454 22.327 57.718 22.2499C57.718 21.2317 57.6463 20.4129 58.2037 19.6207C58.4771 19.2326 59.1646 19.2033 59.0903 18.5626C59.5734 18.2622 59.0266 17.579 59.5574 17.2919C59.5787 17.2813 59.5681 17.2095 59.5813 17.0819C59.5203 16.9995 59.4194 16.8692 59.2734 16.6778C60.0167 15.3034 60.0591 13.3814 62.2251 12.9561C63.1648 13.5063 64.2053 14.1789 65.3042 14.7372C65.92 15.0482 66.427 15.6065 67.1941 15.6224C67.433 15.6278 67.6746 15.8271 67.9028 15.8059C68.7655 15.7288 69.3787 16.1302 69.9122 16.7469C69.9759 17.1032 69.7715 17.5392 70.1617 17.797C69.9918 18.0868 69.8219 18.3739 69.6202 18.7168C68.3302 18.8976 67.2153 18.1905 66.0262 17.9167C64.845 17.6428 63.7009 17.1803 62.4932 16.4811C62.4932 17.2414 62.533 17.8502 62.4826 18.4536C62.4321 19.0385 62.2888 19.6154 62.1879 20.1763C63.048 20.7479 63.8496 20.7638 64.6645 20.1657C65.7501 19.3655 67.0216 19.525 68.2506 19.5595C68.5532 19.5675 68.8478 19.7935 69.0363 19.8706C69.153 20.1258 69.2221 20.2747 69.307 20.4634C69.2433 20.708 69.2141 21.035 69.0734 21.3061C68.9566 21.5321 68.7469 21.7634 68.5213 21.8644C67.1357 22.4785 65.9625 23.502 64.4468 23.8901C64.1177 23.9752 63.7938 24.0443 63.4647 24.0576C62.8993 24.0815 62.3313 24.0629 61.734 24.0629V26.9207C62.1879 27.6491 62.6657 28.4147 63.2205 29.3026C64.5981 27.8432 65.5723 26.1497 67.5737 25.3974C68.524 25.2113 69.4185 25.6021 70.1909 26.6442L70.1856 26.6469Z" fill="black"/>
<path id="Vector_3" d="M5.04177 17.9352C4.88251 18.0947 4.75775 18.2197 4.633 18.3446C4.71528 18.4376 4.80022 18.5334 4.88251 18.6264C4.8188 18.6902 4.69139 18.77 4.70467 18.8125C5.12406 20.2587 4.79226 21.7314 4.87455 23.1909C4.89047 23.4594 4.65954 23.7305 4.633 24.0097C4.49497 25.517 4.05434 26.9685 3.77829 28.4492C3.61106 29.3531 4.09416 30.1692 3.70131 31.2592C3.55266 31.5356 3.28192 32.0434 3.00852 32.5485H2.05825C1.96003 32.3704 1.80873 32.0966 1.65743 31.8227C1.60435 31.8733 1.55126 31.9264 1.50083 31.9769C1.47959 31.8972 1.44508 31.8174 1.43978 31.7377C1.37076 30.8418 1.61231 29.9246 1.18495 29.0527C1.09736 28.8746 1.09736 28.5795 1.18495 28.4014C1.61496 27.5321 1.35484 26.6096 1.44508 25.719C1.49817 25.1767 1.62293 24.6424 1.70256 24.1027C1.78484 23.5524 1.54595 22.9729 1.85917 22.4412C1.89367 22.3827 1.80077 22.2604 1.79281 22.1647C1.76096 21.6915 1.53533 21.0748 1.75034 20.7717C2.32634 19.9583 1.75034 19.299 1.64947 18.5892C1.60169 18.2436 1.41589 17.8422 1.15841 17.6135C0.630188 17.1403 0.563829 16.5874 0.664696 15.9441C0.930134 15.6782 1.2115 15.3964 1.5486 15.0588C2.09806 14.9551 2.72981 15.0854 3.35093 14.7983C3.91366 14.5404 4.64892 15.0216 5.2382 14.5537C5.64432 14.8461 6.12476 14.6946 6.56273 14.777C8.13413 15.0801 8.1182 15.0003 9.53564 14.8116C10.3638 14.6999 11.2344 14.7212 12.113 14.8993C13.204 15.12 13.9923 15.633 14.7037 16.5395C15.0302 17.3211 14.1144 17.696 13.918 18.3526C13.918 18.7061 13.8968 19.0624 13.9233 19.4133C13.9897 20.3225 13.6154 21.1519 13.4933 22.0159C13.3049 23.3531 12.7421 24.6158 12.835 26.0115C12.8934 26.8994 12.9465 27.7953 12.628 28.6991C12.4077 29.3265 12.7129 29.9778 13.0925 30.6079C13.7933 31.7669 13.0872 33.1998 11.7361 33.6464C11.5477 33.7076 11.3884 33.8538 11.2344 33.9468C10.1647 33.7262 9.64182 32.8728 8.91186 32.2268C8.81365 31.5968 8.62519 30.9322 8.63315 30.2702C8.64111 29.5551 8.48716 28.848 8.83223 28.1036C9.1189 27.4842 8.67828 26.6575 9.12687 25.9663C9.22773 25.8094 9.13483 25.5329 9.14279 25.3123C9.15872 24.8045 9.11094 24.3154 9.38169 23.8156C9.60996 23.3903 9.16403 22.7655 9.66571 22.3429C9.68694 22.3242 9.6657 22.2578 9.67101 22.2153C9.77719 20.9286 9.88602 19.6419 10.0002 18.2808C8.24296 18.8284 6.63706 18.2622 5.04443 17.9379L5.04177 17.9352Z" fill="black"/>
<path id="Vector_4" d="M17.0927 18.3955C16.4928 18.1297 16.007 17.9117 15.5345 17.7016V16.5266C15.5531 16.5 15.585 16.4176 15.6434 16.3618C16.2406 15.7583 16.8511 15.2267 17.7324 14.9954C18.2234 14.8651 18.6189 14.3653 19.1073 13.9932H20.1213C20.1558 14.0171 20.2461 14.0463 20.2885 14.1101C20.7053 14.7322 21.3848 14.8811 22.0325 15.0193C23.3119 15.2931 24.4692 15.7796 25.4805 16.6303C25.9928 17.061 26.5263 17.4145 26.951 17.9861C27.7261 19.0335 28.1322 20.1155 27.9916 21.4154C27.9385 21.8966 27.9836 22.3884 27.9836 22.8749C27.5403 23.6193 27.0731 24.353 26.6697 25.1186C26.5184 25.4084 26.3246 25.5227 26.0618 25.6875C25.1461 26.267 24.1268 26.6047 23.1181 26.8997C22.4386 27.0991 21.6529 26.937 21.1247 26.937C20.4717 27.264 20.5062 27.6893 20.5646 28.0694C20.6203 28.431 20.7823 28.7766 20.907 29.1594C21.2282 29.4784 21.5998 29.8453 21.9661 30.2068C21.8546 31.209 21.7564 32.0996 21.6662 32.9237C21.3264 33.264 21.045 33.5458 20.7265 33.8648H19.0569C19.0198 33.8276 18.9693 33.7452 18.8923 33.7053C17.804 33.147 17.4643 32.2804 17.2971 31.0495C17.1272 29.7921 17.09 28.4629 16.5724 27.256C16.7211 26.3255 16.3229 25.3685 16.8007 24.4274C16.9467 24.143 16.5698 23.6272 16.599 23.2311C16.6255 22.8935 17.0555 22.6064 16.7078 22.1944C16.6228 22.096 16.599 21.8833 16.6388 21.7504C16.9891 20.6445 17.1856 19.5227 17.0953 18.3928L17.0927 18.3955ZM20.4929 17.4119C19.9222 17.9861 19.8479 18.7092 20.0656 19.2595C20.3363 19.9507 20.2169 20.6099 20.3284 21.5032C20.5009 21.6281 20.8194 21.8594 21.053 22.0269C21.0875 22.4363 21.1087 22.7234 21.1326 22.9866C22.3882 23.0929 23.4871 22.8669 24.5674 22.3565C24.6709 21.8248 24.7745 21.2932 24.8355 20.9715C23.8428 19.0309 22.2289 18.1669 20.4956 17.4119H20.4929Z" fill="black"/>
<path id="Vector_5" d="M37.911 15.3592C39.0391 16.1354 39.7186 17.1483 40.0637 18.2781C40.3185 19.1128 40.6158 19.9077 41.0537 20.6627C40.8494 21.189 40.4884 21.6915 40.99 22.1939C41.1095 24.326 40.7963 26.3251 39.3284 28.0132C38.9223 28.4811 38.7471 29.244 38.264 29.5258C37.4358 30.0097 36.9899 30.9162 36.0768 31.2724C35.6945 31.4213 35.376 31.7297 34.9354 32.0327C34.2161 32.1178 33.3746 32.2188 32.5332 32.3118C31.8935 32.381 31.4157 32.0885 30.9299 31.6924C30.0407 30.9693 29.6001 29.9618 29.0161 28.8213C28.8993 28.4811 29.2285 27.9255 28.8197 27.3699C28.5489 27.003 28.8409 26.3969 28.6419 25.8625C28.4932 25.4638 28.6817 24.9028 28.8197 24.4456C29.1276 23.4274 29.555 22.4412 29.8177 21.4124C29.9372 20.9445 30.115 20.5457 30.4044 20.1948C30.7123 19.8226 30.8556 19.4239 30.9273 18.9427C30.9857 18.5546 31.2007 18.1558 31.4475 17.8421C31.7979 17.3928 32.273 17.0419 32.6367 16.6006C32.9738 16.1912 33.3029 15.7898 33.7542 15.4974C34.1816 15.2183 34.6036 14.9896 35.1531 15.0215C36.0927 15.0747 37.0509 14.9072 37.911 15.3592ZM32.6181 28.8346C33.3321 28.941 33.9002 28.6778 34.3488 28.1833C34.8372 27.6463 35.2858 27.0721 35.7556 26.5192C36.4033 25.7589 37.0058 24.1744 37.0058 23.1961C37.0058 22.4013 37.1067 21.5905 36.974 20.8169C36.8731 20.2373 36.4776 19.7057 36.2095 19.1554C36.1909 19.1181 36.1511 19.0916 36.1033 19.0411H35.5087C34.8319 20.3676 34.1603 21.6596 32.4535 21.9813C32.3606 22.5714 32.3845 23.1988 32.143 23.6959C31.9704 24.0495 32.0846 24.3924 31.9439 24.6742C31.7634 25.0305 31.4847 25.3362 31.8669 25.6924C32.3129 26.1071 31.4847 26.2267 31.6891 26.6095C32.0554 27.2954 31.8908 28.194 32.6155 28.8346H32.6181Z" fill="black"/>
<path id="Vector_6" d="M52.4888 3.64633C52.7543 3.38049 52.9109 3.22364 53.1179 3.01362C53.3117 3.14123 53.5187 3.27681 53.6674 3.37517C53.9063 4.26574 53.4019 5.19352 54.039 5.96712H55.8546C56.3589 6.16118 56.5102 6.67426 57.0305 6.83642C57.3623 6.9401 57.5454 7.51166 57.9754 8.13638C57.8852 6.78325 58.4877 5.898 58.5328 4.87451C58.5461 4.55019 58.8673 4.20991 59.1142 3.93344C59.5521 3.43897 60.0405 2.9897 60.4865 2.54309H62.0127C63.0267 2.91526 63.3851 3.73405 63.5231 4.59006C63.6877 5.62684 63.608 6.67426 62.4746 7.36544C62.1826 7.25645 61.8376 7.12885 61.4474 6.98529V5.00212C59.9052 6.04421 59.7194 7.21391 60.6882 9.66497H61.5774C61.7287 9.42837 61.9039 9.1519 62.0632 8.89935C62.6772 9.01809 62.9931 9.43192 63.0108 10.1408C62.4905 10.4944 62.1932 11.1005 61.5376 11.3664C61.0545 11.5631 60.7015 11.6614 60.2555 11.3398C59.7034 10.941 58.9098 10.8666 58.6788 10.0398C58.6178 9.8165 58.3231 9.65965 58.0551 9.39115C58.0126 9.73143 57.9781 10.0026 57.9276 10.4226C57.3437 11.0075 56.6934 11.7306 55.9687 12.3633C55.3343 12.9162 54.6654 13.0465 53.7682 12.6796C52.7171 12.2463 52.3216 11.5259 52.1305 10.5343C52.0694 10.2126 51.942 9.90157 51.873 9.5799C51.7748 9.13329 51.7005 8.68402 51.6182 8.23474C52.1464 7.95029 51.6023 7.26708 52.0854 6.96668V4.74425C50.4582 4.90907 48.8231 5.07655 47.0978 5.24935C47.0234 5.41949 46.8642 5.63482 46.835 5.86876C46.7262 6.71413 47.0447 7.60736 46.5589 8.41286C46.7554 9.26089 46.9465 10.1116 47.1482 10.957C47.2252 11.2786 47.334 11.595 47.4296 11.922C47.1402 12.1559 46.9013 12.35 46.5961 12.5972H45.5131C45.2556 12.1187 45.0008 11.6455 44.6504 10.9968C44.738 10.42 44.8973 9.67029 44.953 8.9153C45.0088 8.12309 44.9344 7.32025 44.9822 6.52539C45.0008 6.21435 45.1972 5.91395 45.3326 5.55772C44.7566 5.41683 44.2815 5.25732 43.7931 5.19618C43.2224 5.12706 43.0737 4.80805 43.1109 4.28435C43.5117 3.72342 44.0904 3.55328 44.7699 3.58784C45.2105 3.60911 45.6564 3.5586 46.0944 3.60113C46.5828 3.64899 47.0633 3.57455 47.4296 3.30605C47.7906 3.04287 48.2392 3.21035 48.5099 3.03223C49.1151 2.63081 49.8079 2.77171 50.4423 2.56701C51.3182 2.28522 52.0774 2.67601 52.4862 3.64101L52.4888 3.64633ZM53.7311 8.30386C53.7311 9.35394 53.5877 10.2418 54.5353 10.832C55.0848 10.412 55.6369 9.9893 56.1704 9.5799C56.0059 9.21836 55.8864 8.96049 55.7086 8.57236C55.1379 8.49527 54.4876 8.40488 53.7311 8.30386Z" fill="black"/>
<path id="Vector_7" d="M40.7909 8.84643C39.992 10.1225 39.4319 11.0928 38.8691 12.0658H37.6349C37.2181 11.6856 36.9527 11.1858 36.6793 10.6462C36.4298 10.157 36.3873 9.68915 36.5333 9.29039C36.9633 8.13398 37.3853 6.98023 37.6296 5.76533C37.7755 5.02895 37.9348 4.29789 38.0596 3.55885C38.0861 3.40998 38.0118 3.22921 37.9454 3.08034C37.6296 2.37054 37.3004 1.66872 36.8996 0.799422C37.0854 0.732961 37.3031 0.658526 37.5181 0.581432C38.3675 0.294324 39.2593 0.448512 39.899 1.34174C39.9282 1.61024 39.8699 1.96646 40.0158 2.18977C40.2388 2.53536 40.2229 2.77728 40.0318 3.11756C39.9176 3.32225 39.838 3.69975 39.9495 3.85128C40.3052 4.34574 40.1167 4.92794 40.26 5.58988C40.621 4.30321 40.9369 3.16807 41.2369 2.09141C41.9907 1.79898 42.3092 2.30408 42.5587 2.71614C42.7605 3.05375 42.8481 3.51632 42.8295 3.91774C42.7844 5.00503 42.9171 6.06573 43.1162 7.12378C43.1852 7.48798 43.3338 7.84155 43.371 8.20841C43.4665 9.15481 43.3843 10.0773 42.7339 10.928C42.3889 10.9572 42.1155 11.5421 41.4651 11.1752C40.9741 10.8987 40.7485 10.5212 40.5626 10.1969C40.6423 9.82207 40.7113 9.50306 40.7803 9.18405C40.7033 9.17076 40.629 9.16012 40.7936 8.83846C40.8307 8.71085 40.7299 8.76402 40.7352 8.80124C40.7538 8.92884 40.8095 9.05113 40.8493 9.17342C40.8944 9.01391 40.9396 8.85175 40.7909 8.83846V8.84643ZM40.1273 5.9913H39.9946V6.52298H40.1273V5.9913Z" fill="black"/>
<path id="Vector_8" d="M66.5702 3.5989C68.2053 3.66802 69.7714 3.05127 71.5923 3.44471C72.0568 3.76106 72.7151 4.21034 73.3999 4.67556C73.1425 5.09293 72.9354 5.42789 72.7284 5.76816C72.4072 5.63524 72.1524 5.53157 71.8498 5.40662C72.0409 6.57632 72.4656 7.57589 72.3541 8.73761C72.24 9.92326 71.9506 11.0584 71.7463 12.2706C71.4702 12.5391 71.1517 12.8449 70.8146 13.1718C70.2545 13.3154 70.0103 12.8209 69.6413 12.4939C69.7289 11.8612 69.4794 11.1807 69.9944 10.322C69.575 10.5932 69.3281 10.6783 69.198 10.8537C69.0335 11.077 68.9724 11.3748 68.853 11.6353C68.4707 12.4674 67.8868 13.1001 67.0055 13.4377C66.7958 13.334 66.5755 13.225 66.2782 13.0761C66.18 12.8768 66.0367 12.5843 65.8774 12.26C66.1482 11.7017 66.4136 11.1541 66.7189 10.5214C66.4534 10.4071 66.1508 10.2795 65.8509 10.1519C64.7546 9.65476 64.6007 8.5462 64.3697 7.53867C64.2078 6.83685 64.6086 6.14034 64.959 5.55283C65.1899 5.16736 65.4129 4.75797 65.6836 4.39377C65.9199 4.07476 66.2782 3.84879 66.5649 3.59624L66.5702 3.5989ZM66.2119 8.01452C67.7355 9.04333 68.5637 8.8466 69.4024 7.3765C69.5723 7.07876 69.8749 6.86077 70.1483 6.56835V5.22319C69.0892 4.42833 68.2717 5.58473 67.3108 5.4784C66.9232 5.96755 66.5569 6.43011 66.2119 6.86609V8.01718V8.01452Z" fill="black"/>
<path id="Vector_9" d="M14.0427 3.85096C14.2577 4.07692 14.47 4.30289 14.7116 4.5581C14.624 4.96217 14.847 5.41942 14.4754 5.87933C14.2418 6.16909 14.5391 6.68217 14.2922 7.12612C14.1011 7.4664 14.0321 8.07517 14.2152 8.38355C14.7355 9.27146 14.2205 9.99189 14.056 10.7841C13.9551 11.2732 13.894 11.8156 13.9976 12.2941C14.2312 13.384 14.2763 13.3734 13.8144 14.4766H12.7394C11.8342 13.8625 11.5608 12.8045 11.3087 11.8262C11.1707 11.2812 11.5078 10.6113 11.6405 10.0025C11.6564 9.92809 11.7918 9.85897 11.7838 9.80048C11.5874 8.5404 12.1501 7.32816 12.0466 6.03351C11.1892 5.90059 10.3584 5.77565 9.3816 5.62412C9.80364 6.38442 9.85939 7.16334 9.61784 7.69236C9.15067 8.71585 9.30197 9.83504 8.89319 10.8479C8.76047 11.1802 8.77374 11.6959 8.94628 11.9963C9.18517 12.411 9.02326 12.645 8.94097 13.0278C8.83745 13.5276 8.35701 13.3388 8.21632 13.7456C8.0199 13.4744 7.84471 13.2378 7.54211 12.8204C7.54211 12.0256 7.54211 10.9702 7.54211 9.91214C7.54211 9.6968 7.48637 9.40172 7.60051 9.27943C8.05706 8.79029 7.55273 8.05656 8.06502 7.59932C8.08891 7.57805 8.0199 7.45045 7.99601 7.37335C7.72526 6.51203 7.67483 5.57095 7.02716 4.80799C7.5368 4.11148 8.27472 3.8802 9.079 3.87488C9.71074 3.86957 10.3611 3.71272 10.9716 4.10882C11.1574 4.23111 11.5449 4.22314 11.7467 4.10882C12.4872 3.69145 13.2729 3.93603 14.0427 3.8483V3.85096Z" fill="black"/>
<path id="Vector_10" d="M34.5531 6.47541C34.7894 6.89278 34.954 7.17989 35.1477 7.52283V10.1201C34.5266 10.673 34.0541 11.4706 33.1092 11.5689C31.5351 11.7364 30.768 11.6354 30.1336 11.21V7.43776C29.9558 7.32079 29.7354 7.17723 29.7381 7.17989C29.3054 6.4249 30.2876 5.95436 29.6638 5.41471C29.7222 4.84315 29.6664 4.2264 29.8735 3.71598C30.0911 3.17367 30.0805 2.64198 30.1177 2.00397C31.0971 2.00397 32.058 1.98536 33.0163 2.00928C33.8816 2.03055 35.0761 3.05935 35.1345 3.91005C35.1955 4.7953 35.3229 5.7284 34.5531 6.47541ZM32.5597 9.87286C32.7429 9.60436 32.8623 9.42891 32.9871 9.24548V7.65575C32.65 7.52017 32.3686 7.40586 32.0102 7.2623V9.37308C32.1615 9.51132 32.2863 9.62297 32.5597 9.87552V9.87286ZM32.0315 3.73725V5.57687C32.4217 5.428 32.7216 5.31369 33.0056 5.20469V4.12538C32.7296 4.01372 32.4323 3.89675 32.0315 3.73725Z" fill="black"/>
<path id="Vector_11" d="M24.8088 4.32458C25.5627 3.68922 26.1918 3.80885 26.8793 4.24483C27.2748 4.76853 27.1845 5.34009 26.8235 5.98343C26.4466 6.65866 26.5076 7.51467 26.72 8.15003C26.9191 8.75349 26.7917 9.33834 26.9907 9.96839C27.5482 10.2209 28.1454 10.4921 28.8435 10.8084C28.7267 11.3428 28.6232 11.8186 28.5276 12.2546C28.1427 12.4327 27.8056 12.5869 27.434 12.7597C27.5455 13.0681 27.6543 13.3712 27.7738 13.7088C27.4818 13.9826 27.2111 14.2378 26.9323 14.4983C26.5368 14.4983 25.998 13.6423 25.8441 12.6826C25.6184 12.6693 25.3636 12.6826 25.1274 12.6295C24.8938 12.5736 24.6761 12.446 24.4425 12.3477C24.3019 12.4806 24.1771 12.6002 24.0922 12.68C24.1718 13.0681 24.2461 13.4217 24.3284 13.8098C24.0683 14.0198 23.832 14.2139 23.5082 14.4744H22.5181C22.0271 14.0118 21.8439 13.4775 21.8731 12.8395C21.9129 11.9941 21.7059 11.1009 22.3934 10.3964C22.4411 9.16023 23.0331 8.09952 23.4684 6.98831C23.5294 6.83678 23.5135 6.60284 23.6197 6.5284C24.408 5.9595 24.4478 5.00513 24.8062 4.32724L24.8088 4.32458ZM25.0132 10.4868C25.2097 9.88597 24.7425 9.46595 24.5753 8.96351V10.4868H25.0132Z" fill="black"/>
<path id="Vector_12" d="M21.613 5.46183C21.613 6.25138 21.613 7.09144 21.613 7.93149C20.6495 9.22614 19.3781 9.85618 17.6952 9.69668C17.3607 10.8345 18.7012 11.3103 18.6906 12.4136C18.372 12.8389 18.0774 13.4158 17.3183 13.7534C16.8378 13.3998 16.3016 13.0037 15.8238 12.6502C15.7787 12.3338 15.8238 12.0414 15.7017 11.9351C15.4071 11.6719 15.439 11.3289 15.5239 11.0844C16.0495 9.54515 15.646 7.96871 15.7575 6.4162C15.7734 6.19289 15.6035 5.95895 15.5027 5.6878C15.5876 5.54424 15.6885 5.36879 15.8238 5.1375C15.5451 4.95407 15.285 4.78394 15.001 4.60051V3.79501C15.3514 3.51056 15.6354 3.26332 15.9353 3.04002C16.5299 2.60138 17.1245 2.2744 17.873 2.79279C18.4092 3.16496 19.0781 3.27928 19.6727 3.56107C20.5194 3.96249 21.1698 4.46227 21.6104 5.46449L21.613 5.46183ZM19.8426 6.67938C19.3382 5.58943 18.7543 4.88496 17.666 4.6457V6.60495C17.9049 6.96117 18.1146 7.27221 18.3827 7.67097C18.8551 7.3493 19.3303 7.02498 19.8426 6.67672V6.67938Z" fill="black"/>
<path id="Vector_13" d="M2.08735 11.0101C1.01764 10.1514 0.699111 8.99233 0.608862 7.64983C0.537194 6.57052 0.911462 5.65336 1.28308 4.73089C1.42376 4.37733 1.37332 4.06097 1.43703 3.74462C1.75025 3.42561 2.06081 3.11192 2.25193 2.9152C2.90225 2.70784 3.41189 2.54834 3.93215 2.38086C4.84526 2.39415 5.33101 3.13585 5.86189 3.64095C5.99195 4.20719 6.19103 4.69368 6.19368 5.18017C6.19368 5.66666 5.99991 6.1558 5.86189 6.77521C5.62299 6.91877 5.2673 7.13144 4.85853 7.37867C4.40994 7.06232 3.96666 6.75129 3.48887 6.41101C3.60566 5.9192 3.70918 5.47525 3.85783 4.84255C3.45436 5.13231 3.173 5.35296 3.04293 5.68261C2.83324 6.21429 2.58903 6.76192 2.53329 7.31753C2.48817 7.75883 2.3873 8.22671 2.6607 8.71319C2.90225 9.1412 3.19954 9.4416 3.58177 9.85897C3.84455 9.51603 4.03832 9.26614 4.29049 8.93916H5.10008C5.11866 9.06145 5.17971 9.19171 5.15051 9.3007C4.97532 9.98923 5.10804 10.816 4.15512 11.135C3.63751 11.3078 3.20219 11.3849 2.70848 11.1244C2.53329 11.0313 2.2997 11.042 2.08735 11.0047V11.0101Z" fill="black"/>
</g>
</svg>
