<svg width="265" height="48" viewBox="0 0 265 48" fill="none" xmlns="http://www.w3.org/2000/svg">
<path d="M90.473 18.9204C92.8589 14.9767 92.1315 10.6602 88.477 7.81163C84.5199 4.72425 79.3872 4.7359 74.5979 4.83493C61.8129 5.09707 49.1384 8.56309 37.3427 13.3398C32.1984 15.4252 27.1007 17.6971 22.2066 20.3184C17.7025 22.7359 13.1518 25.4854 9.57289 29.1844C7.29172 31.5437 4.45189 35.1087 6.06966 38.5573C7.90856 42.4718 13.175 43.4213 17.0332 43.165C23.8069 42.7107 30.2315 39.7456 36.1846 36.6757C42.6441 33.3437 49.0744 29.9301 55.336 26.2369L54.5504 25.4505C52.758 28.0252 50.4012 29.9301 48.1666 32.1029C45.0824 35.1029 42.1087 38.2136 39.007 41.1903C38.524 41.6505 39.1408 42.4019 39.7053 42.0932C43.7032 39.932 47.2297 37.2 51.0472 34.7767C54.3351 32.6912 57.7394 30.7107 61.3008 29.1145C62.5054 28.5786 69.442 25.6951 67.51 29.5631C65.8224 32.9476 61.7896 34.6369 60.0671 38.0272C59.4968 39.1514 59.4037 40.4097 60.2649 41.4116C61.3008 42.6233 63.0466 42.6116 64.4956 42.4194C68.7088 41.8602 73.0849 39.7864 76.5008 37.299C80.039 34.7184 84.4151 30.4602 83.3735 25.5961C82.2329 20.2776 75.7909 17.831 71.1063 16.8466C63.4423 15.2388 55.3069 16.5437 48.0968 19.4155C41.6955 21.967 34.9044 25.3631 29.9114 30.2039C29.376 30.7223 30.1907 31.532 30.7261 31.0194C35.1022 26.7786 40.8866 23.8485 46.3975 21.3844C52.7755 18.5301 59.8285 16.8815 66.835 17.4C72.0141 17.7844 81.1912 19.7883 82.2794 26.0446C83.1989 31.3107 77.1526 35.8485 73.1722 38.0738C71.5137 39 69.7388 39.7573 67.9406 40.3747C66.1425 40.9922 63.4714 42.0175 61.714 41.1029C58.362 39.3553 64.9204 34.299 66.1483 33.0582C67.3936 31.8058 70.4255 28.6893 68.3596 26.8718C66.672 25.3806 63.2153 27.0582 61.5568 27.7573C57.8092 29.3417 54.2478 31.4039 50.8027 33.565C46.8631 36.0408 43.226 38.8777 39.1117 41.1029L39.8101 42.0058C43.0689 38.8777 46.1822 35.6039 49.4352 32.4641C51.6058 30.367 53.8055 28.5145 55.5338 26.0272C55.8714 25.5378 55.2196 24.9611 54.7482 25.2408C49.7844 28.1709 44.6925 30.8621 39.6064 33.565C34.8345 36.1048 30.0336 38.6738 24.8777 40.3573C20.1815 41.8893 14.1992 43.2408 9.62526 40.6136C8.01331 39.6874 6.63995 38.1437 6.72724 36.1806C6.81453 34.2175 8.28682 32.365 9.4856 30.9786C12.4244 27.5709 16.2942 25.0194 20.1582 22.7767C24.383 20.3243 28.8174 18.2388 33.2924 16.2874C43.6508 11.767 54.5155 8.1961 65.7467 6.68736C68.7786 6.27959 71.8337 6.02911 74.8889 5.98251C77.6181 5.94173 80.5976 5.85435 83.2571 6.5359C85.6313 7.14173 87.9707 8.43493 89.4605 10.4213C91.3343 12.9145 91.0375 15.7689 89.4837 18.3437C89.0997 18.9786 90.0948 19.5611 90.4788 18.9262L90.473 18.9204Z" fill="black"/>
<path d="M105.469 33.466C104.253 33.466 103.229 33.198 102.391 32.6563C101.553 32.1145 100.924 31.3689 100.494 30.4136C100.063 29.4582 99.8479 28.3572 99.8479 27.1048C99.8479 25.8524 100.063 24.7514 100.494 23.7961C100.924 22.8407 101.559 22.0951 102.391 21.5534C103.229 21.0116 104.253 20.7437 105.469 20.7437C106.889 20.7437 108.047 21.1048 108.943 21.833C109.84 22.5611 110.457 23.5339 110.794 24.7572L109.525 25.0893C109.264 24.1223 108.798 23.3534 108.129 22.7883C107.46 22.2233 106.569 21.9378 105.475 21.9378C104.521 21.9378 103.729 22.1534 103.095 22.5903C102.461 23.0271 101.984 23.633 101.669 24.4077C101.349 25.1883 101.186 26.0854 101.175 27.099C101.175 28.1184 101.326 29.0155 101.646 29.7903C101.966 30.565 102.443 31.1708 103.089 31.6077C103.729 32.0446 104.527 32.266 105.481 32.266C106.575 32.266 107.46 31.9805 108.135 31.4155C108.81 30.8504 109.275 30.0815 109.531 29.1204L110.8 29.4524C110.468 30.6757 109.851 31.6485 108.949 32.3767C108.053 33.1048 106.895 33.466 105.475 33.466H105.469Z" fill="black"/>
<path d="M113.069 33.2155V24.0524H120.349V33.2155H119.104V25.2465H114.315V33.2155H113.069Z" fill="black"/>
<path d="M123.137 37.2873V24.0523H124.254V30.9494H124.388V37.2873H123.131H123.137ZM127.257 33.4659C126.413 33.4659 125.703 33.2504 125.121 32.8251C124.539 32.3999 124.097 31.8174 123.8 31.0892C123.503 30.3552 123.352 29.5339 123.352 28.6251C123.352 27.7164 123.503 26.8718 123.806 26.1436C124.109 25.4154 124.551 24.8446 125.139 24.4251C125.726 24.0057 126.448 23.796 127.309 23.796C128.17 23.796 128.863 24.0116 129.462 24.431C130.062 24.8562 130.521 25.4329 130.841 26.1611C131.162 26.8892 131.319 27.7106 131.319 28.6193C131.319 29.5281 131.156 30.3552 130.836 31.0892C130.516 31.8174 130.05 32.3941 129.445 32.8251C128.84 33.2504 128.112 33.4659 127.257 33.4659ZM127.129 32.3067C127.769 32.3067 128.298 32.1494 128.723 31.8232C129.148 31.5028 129.462 31.0601 129.678 30.5067C129.887 29.9475 129.998 29.3242 129.998 28.6251C129.998 27.9261 129.893 27.3145 129.683 26.7611C129.474 26.2077 129.154 25.7708 128.729 25.4446C128.304 25.1242 127.763 24.9611 127.105 24.9611C126.448 24.9611 125.936 25.1184 125.517 25.4271C125.098 25.7358 124.784 26.1669 124.574 26.7203C124.365 27.2737 124.26 27.9086 124.26 28.6251C124.26 29.3417 124.365 29.965 124.574 30.5184C124.784 31.0776 125.098 31.5145 125.523 31.829C125.947 32.1494 126.483 32.3067 127.135 32.3067H127.129Z" fill="black"/>
<path d="M136.225 33.466C135.538 33.466 134.956 33.3437 134.49 33.0932C134.025 32.8427 133.676 32.5107 133.443 32.1029C133.21 31.6951 133.094 31.2408 133.094 30.7514C133.094 30.2621 133.193 29.8252 133.396 29.4757C133.6 29.1262 133.874 28.8349 134.217 28.6078C134.566 28.3806 134.968 28.2058 135.427 28.0893C135.893 27.9786 136.405 27.8738 136.964 27.7864C137.528 27.699 138.075 27.6233 138.616 27.5592C139.157 27.4951 139.629 27.4311 140.036 27.367L139.594 27.6349C139.611 26.732 139.437 26.0621 139.07 25.6252C138.704 25.1883 138.063 24.9728 137.156 24.9728C136.527 24.9728 135.998 25.1126 135.567 25.398C135.136 25.6835 134.834 26.1262 134.653 26.7379L133.443 26.3825C133.652 25.5612 134.071 24.9262 134.706 24.4718C135.34 24.0175 136.161 23.7903 137.173 23.7903C138.011 23.7903 138.721 23.9476 139.303 24.2621C139.891 24.5767 140.304 25.0311 140.542 25.6252C140.653 25.8932 140.729 26.1903 140.764 26.5165C140.799 26.8427 140.816 27.1806 140.816 27.5184V33.2097H139.704V30.9087L140.025 31.0427C139.71 31.8291 139.227 32.4291 138.576 32.8427C137.918 33.2563 137.132 33.4602 136.219 33.4602L136.225 33.466ZM136.37 32.3942C136.952 32.3942 137.458 32.2893 137.895 32.0796C138.331 31.8699 138.68 31.5845 138.948 31.2175C139.216 30.8505 139.384 30.4427 139.466 29.9825C139.536 29.6913 139.571 29.365 139.576 29.0097C139.582 28.6544 139.582 28.3922 139.582 28.2175L140.059 28.4621C139.635 28.5204 139.175 28.5728 138.68 28.6311C138.186 28.6893 137.697 28.7534 137.22 28.8233C136.742 28.899 136.312 28.9864 135.928 29.0854C135.666 29.1612 135.416 29.2602 135.171 29.3942C134.927 29.5281 134.729 29.7029 134.572 29.9243C134.415 30.1456 134.339 30.4194 134.339 30.7456C134.339 31.0136 134.403 31.2699 134.537 31.5204C134.671 31.7709 134.886 31.9747 135.183 32.1379C135.48 32.301 135.875 32.3825 136.364 32.3825L136.37 32.3942Z" fill="black"/>
<path d="M143.435 33.2155V24.0524H147.205C147.398 24.0524 147.63 24.064 147.904 24.0873C148.177 24.1106 148.433 24.1514 148.672 24.2155C149.184 24.3495 149.603 24.6291 149.911 25.0485C150.226 25.4679 150.383 25.9689 150.383 26.5572C150.383 26.8834 150.33 27.1747 150.237 27.4368C150.138 27.6931 149.999 27.9145 149.818 28.1009C149.731 28.1999 149.638 28.2815 149.539 28.3514C149.44 28.4213 149.341 28.4796 149.242 28.5262C149.423 28.5611 149.615 28.6368 149.83 28.765C150.156 28.9572 150.406 29.2194 150.575 29.5397C150.744 29.866 150.831 30.2621 150.831 30.7223C150.831 31.3514 150.68 31.864 150.383 32.2601C150.086 32.6563 149.685 32.93 149.178 33.0757C148.951 33.1397 148.707 33.1805 148.445 33.1922C148.183 33.2097 147.939 33.2213 147.706 33.2213H143.44L143.435 33.2155ZM144.692 28.1009H147.252C147.398 28.1009 147.566 28.0893 147.747 28.0718C147.933 28.0543 148.09 28.0194 148.224 27.9669C148.515 27.8621 148.73 27.6873 148.87 27.4427C149.009 27.1922 149.079 26.9242 149.079 26.6271C149.079 26.3067 149.004 26.0213 148.852 25.7766C148.701 25.532 148.48 25.363 148.177 25.2698C147.974 25.1941 147.753 25.1533 147.52 25.1417C147.287 25.13 147.136 25.1242 147.072 25.1242H144.68V28.1009H144.692ZM144.692 32.1553H147.642C147.758 32.1553 147.91 32.1436 148.09 32.1262C148.27 32.1087 148.433 32.0796 148.573 32.0446C148.905 31.9572 149.149 31.7883 149.306 31.532C149.463 31.2757 149.539 30.9961 149.539 30.6873C149.539 30.2854 149.423 29.9533 149.19 29.697C148.957 29.4407 148.643 29.2834 148.253 29.2252C148.125 29.1961 147.985 29.1786 147.846 29.1728C147.706 29.1669 147.578 29.1669 147.467 29.1669H144.697V32.1553H144.692Z" fill="black"/>
<path d="M160.217 24.0524V33.2155H159.007V26.0796L153.991 33.2155H152.938V24.0524H154.148V31.13L159.176 24.0524H160.217Z" fill="black"/>
<path d="M165.496 33.2155V25.2058H162.249V24.0524H169.988V25.2058H166.741V33.2155H165.496Z" fill="black"/>
<path d="M172.031 33.2155L172.013 24.0524H173.264V27.5067H175.412C175.679 27.5067 175.935 27.5067 176.197 27.5242C176.453 27.5359 176.68 27.5592 176.878 27.5941C177.332 27.6815 177.734 27.8271 178.089 28.0427C178.444 28.2582 178.717 28.5553 178.921 28.9339C179.124 29.3126 179.223 29.7902 179.223 30.3611C179.223 31.1475 179.02 31.765 178.618 32.2194C178.217 32.6737 177.704 32.965 177.088 33.099C176.855 33.1514 176.605 33.1805 176.331 33.198C176.058 33.2155 175.79 33.2213 175.528 33.2213H172.036L172.031 33.2155ZM173.27 32.1436H175.476C175.668 32.1436 175.883 32.1436 176.116 32.1262C176.354 32.1145 176.564 32.0854 176.744 32.033C177.041 31.9456 177.315 31.7766 177.565 31.5203C177.815 31.264 177.931 30.8737 177.931 30.3553C177.931 29.8368 177.815 29.4524 177.576 29.1902C177.338 28.9281 177.024 28.7533 176.628 28.6718C176.453 28.631 176.261 28.6077 176.058 28.5961C175.854 28.5844 175.662 28.5786 175.476 28.5786H173.27V32.1495V32.1436Z" fill="black"/>
<path d="M185.305 33.466C184.385 33.466 183.605 33.2621 182.965 32.8485C182.325 32.4349 181.842 31.864 181.51 31.1417C181.179 30.4135 181.01 29.5805 180.998 28.6368C181.01 27.6757 181.185 26.831 181.522 26.1029C181.86 25.3747 182.348 24.8096 182.989 24.4077C183.629 24.0058 184.403 23.8019 185.31 23.8019C186.218 23.8019 187.045 24.0291 187.731 24.4834C188.418 24.9378 188.889 25.5553 189.14 26.3417L187.917 26.732C187.702 26.1844 187.365 25.7592 186.899 25.4562C186.434 25.1533 185.898 25.0019 185.299 25.0019C184.624 25.0019 184.071 25.1533 183.629 25.4621C183.186 25.7708 182.86 26.2019 182.645 26.7495C182.43 27.297 182.319 27.9261 182.313 28.6427C182.325 29.7378 182.581 30.6232 183.076 31.2873C183.576 31.9514 184.315 32.2834 185.299 32.2834C185.921 32.2834 186.451 32.1378 186.887 31.8524C187.324 31.5669 187.656 31.1533 187.883 30.5999L189.134 30.9728C188.796 31.7883 188.296 32.4058 187.644 32.8368C186.992 33.2679 186.207 33.4776 185.299 33.4776L185.305 33.466Z" fill="black"/>
<path d="M190.746 33.2155L193.294 29.3708H194.679L192.113 33.2155H190.751H190.746ZM196.996 33.2155V29.7611H194.86C194.61 29.7611 194.354 29.7495 194.092 29.732C193.83 29.7087 193.585 29.6796 193.358 29.6446C192.713 29.5223 192.166 29.2368 191.717 28.7941C191.269 28.3514 191.042 27.7339 191.042 26.9475C191.042 26.1611 191.252 25.5611 191.671 25.0951C192.09 24.6291 192.596 24.3262 193.19 24.1805C193.463 24.1164 193.737 24.0815 194.016 24.0698C194.295 24.0582 194.54 24.0524 194.743 24.0524H198.241V33.2155H196.996ZM194.79 28.6951H196.996V25.1242H194.79C194.656 25.1242 194.464 25.13 194.226 25.1417C193.987 25.1533 193.754 25.1883 193.539 25.2524C193.353 25.3106 193.166 25.4038 192.986 25.5436C192.8 25.6834 192.649 25.864 192.526 26.097C192.404 26.33 192.34 26.6038 192.34 26.93C192.34 27.3902 192.468 27.7572 192.718 28.031C192.969 28.3048 193.283 28.4912 193.661 28.5961C193.865 28.6427 194.068 28.6718 194.272 28.6834C194.476 28.6951 194.65 28.7009 194.796 28.7009L194.79 28.6951Z" fill="black"/>
<path d="M204.857 33.2155V21H214.203V33.2155H212.958V22.1942H206.103V33.2155H204.857Z" fill="black"/>
<path d="M216.991 37.2873V24.0523H218.108V30.9494H218.242V37.2873H216.985H216.991ZM221.111 33.4659C220.267 33.4659 219.557 33.2504 218.975 32.8251C218.393 32.3999 217.951 31.8174 217.654 31.0892C217.357 30.3552 217.206 29.5339 217.206 28.6251C217.206 27.7164 217.357 26.8718 217.66 26.1436C217.963 25.4154 218.405 24.8446 218.993 24.4251C219.58 24.0057 220.302 23.796 221.163 23.796C222.024 23.796 222.717 24.0116 223.316 24.431C223.916 24.8562 224.375 25.4329 224.695 26.1611C225.016 26.8892 225.173 27.7106 225.173 28.6193C225.173 29.5281 225.01 30.3552 224.69 31.0892C224.37 31.8174 223.904 32.3941 223.299 32.8251C222.694 33.2504 221.966 33.4659 221.111 33.4659ZM220.983 32.3067C221.623 32.3067 222.152 32.1494 222.577 31.8232C223.002 31.5028 223.322 31.0601 223.532 30.5067C223.747 29.9475 223.852 29.3242 223.852 28.6251C223.852 27.9261 223.747 27.3145 223.537 26.7611C223.328 26.2077 223.008 25.7708 222.583 25.4446C222.158 25.1242 221.617 24.9611 220.959 24.9611C220.302 24.9611 219.79 25.1184 219.371 25.4271C218.946 25.7358 218.632 26.1669 218.428 26.7203C218.219 27.2737 218.114 27.9086 218.114 28.6251C218.114 29.3417 218.219 29.965 218.428 30.5184C218.638 31.0776 218.952 31.5145 219.377 31.829C219.801 32.1494 220.337 32.3067 220.989 32.3067H220.983Z" fill="black"/>
<path d="M231.283 33.4659C230.375 33.4659 229.595 33.262 228.955 32.8484C228.315 32.4349 227.815 31.864 227.471 31.1358C227.128 30.4077 226.953 29.5688 226.953 28.6251C226.953 27.6815 227.128 26.8193 227.477 26.097C227.826 25.3747 228.327 24.8096 228.973 24.4018C229.619 23.9941 230.387 23.796 231.283 23.796C232.179 23.796 232.982 23.9999 233.628 24.4135C234.274 24.8271 234.769 25.3921 235.112 26.1203C235.455 26.8484 235.624 27.6815 235.624 28.6251C235.624 29.5688 235.45 30.431 235.106 31.1591C234.763 31.8873 234.262 32.4523 233.616 32.8601C232.971 33.2679 232.191 33.4717 231.283 33.4717V33.4659ZM231.283 32.2718C232.301 32.2718 233.058 31.9339 233.552 31.2582C234.047 30.5824 234.297 29.7028 234.297 28.6251C234.297 27.5475 234.047 26.6329 233.547 25.9805C233.046 25.3222 232.29 24.996 231.277 24.996C230.596 24.996 230.032 25.1475 229.59 25.4562C229.147 25.765 228.816 26.1902 228.6 26.7378C228.385 27.2853 228.274 27.9145 228.274 28.6251C228.274 29.7261 228.53 30.6116 229.037 31.2756C229.543 31.9397 230.294 32.2718 231.283 32.2718Z" fill="black"/>
<path d="M248.345 34.7999V33.2155H237.905V24.0524H239.116V32.0621H242.549V24.0524H243.76V32.0621H247.181V24.0524H248.392V32.0621H249.585V34.8058H248.339L248.345 34.7999Z" fill="black"/>
<path d="M255.241 33.466C254.351 33.466 253.577 33.268 252.925 32.8718C252.273 32.4757 251.767 31.9165 251.406 31.2C251.045 30.4777 250.865 29.6388 250.865 28.6718C250.865 27.7048 251.045 26.8078 251.4 26.0738C251.755 25.3456 252.256 24.7806 252.902 24.3845C253.548 23.9883 254.31 23.7903 255.195 23.7903C256.079 23.7903 256.871 24 257.511 24.4136C258.151 24.8272 258.634 25.4272 258.96 26.2019C259.286 26.9767 259.437 27.9029 259.408 28.9748H258.133V28.532C258.11 27.3437 257.854 26.4466 257.365 25.8408C256.876 25.2349 256.166 24.932 255.224 24.932C254.281 24.932 253.49 25.2524 252.966 25.8932C252.442 26.534 252.18 27.4427 252.18 28.6252C252.18 29.8078 252.442 30.6757 252.966 31.3107C253.49 31.9456 254.229 32.266 255.189 32.266C255.846 32.266 256.417 32.1146 256.905 31.8116C257.394 31.5087 257.778 31.0718 258.063 30.501L259.227 30.9495C258.867 31.7476 258.331 32.365 257.627 32.8019C256.923 33.2388 256.126 33.4602 255.241 33.4602V33.466ZM251.744 28.9806V27.9379H258.739V28.9806H251.744Z" fill="black"/>
</svg>
