<svg width="265" height="48" viewBox="0 0 265 48" fill="none" xmlns="http://www.w3.org/2000/svg">
<path d="M90.4729 18.9204C92.8588 14.9767 92.1314 10.6602 88.4769 7.81163C84.5197 4.72425 79.3871 4.7359 74.5978 4.83493C61.8128 5.09707 49.1383 8.56309 37.3425 13.3398C32.1983 15.4252 27.1005 17.6971 22.2065 20.3184C17.7023 22.7359 13.1516 25.4854 9.57277 29.1844C7.29159 31.5437 4.45177 35.1087 6.06954 38.5573C7.90844 42.4718 13.1749 43.4213 17.0331 43.165C23.8068 42.7107 30.2313 39.7456 36.1845 36.6757C42.6439 33.3437 49.0743 29.9301 55.3359 26.2369L54.5503 25.4505C52.7579 28.0252 50.4011 29.9301 48.1665 32.1029C45.0822 35.1029 42.1086 38.2136 39.0069 41.1903C38.5239 41.6505 39.1407 42.4019 39.7052 42.0932C43.7031 39.932 47.2296 37.2 51.047 34.7767C54.3349 32.6912 57.7392 30.7107 61.3007 29.1145C62.5053 28.5786 69.4419 25.6951 67.5099 29.5631C65.8223 32.9476 61.7895 34.6369 60.067 38.0272C59.4967 39.1514 59.4036 40.4097 60.2648 41.4116C61.3007 42.6233 63.0465 42.6116 64.4955 42.4194C68.7087 41.8602 73.0848 39.7864 76.5007 37.299C80.0389 34.7184 84.415 30.4602 83.3733 25.5961C82.2327 20.2776 75.7908 17.831 71.1062 16.8466C63.4422 15.2388 55.3068 16.5437 48.0966 19.4155C41.6954 21.967 34.9042 25.3631 29.9113 30.2039C29.3759 30.7223 30.1906 31.532 30.726 31.0194C35.1021 26.7786 40.8865 23.8485 46.3974 21.3844C52.7754 18.5301 59.8284 16.8815 66.8348 17.4C72.014 17.7844 81.1911 19.7883 82.2793 26.0446C83.1988 31.3107 77.1525 35.8485 73.1721 38.0738C71.5136 39 69.7387 39.7573 67.9405 40.3747C66.1423 40.9922 63.4713 42.0175 61.7138 41.1029C58.3619 39.3553 64.9203 34.299 66.1482 33.0582C67.3935 31.8058 70.4254 28.6893 68.3595 26.8718C66.6719 25.3806 63.2152 27.0582 61.5567 27.7573C57.8091 29.3417 54.2477 31.4039 50.8026 33.565C46.8629 36.0408 43.2259 38.8777 39.1116 41.1029L39.8099 42.0058C43.0687 38.8777 46.1821 35.6039 49.4351 32.4641C51.6057 30.367 53.8054 28.5145 55.5337 26.0272C55.8712 25.5378 55.2195 24.9611 54.7481 25.2408C49.7842 28.1709 44.6923 30.8621 39.6063 33.565C34.8344 36.1048 30.0335 38.6738 24.8776 40.3573C20.1814 41.8893 14.1991 43.2408 9.62514 40.6136C8.01319 39.6874 6.63983 38.1437 6.72712 36.1806C6.81441 34.2175 8.2867 32.365 9.48547 30.9786C12.4242 27.5709 16.2941 25.0194 20.1581 22.7767C24.3829 20.3243 28.8172 18.2388 33.2923 16.2874C43.6507 11.767 54.5153 8.1961 65.7466 6.68736C68.7785 6.27959 71.8336 6.02911 74.8888 5.98251C77.618 5.94173 80.5975 5.85435 83.257 6.5359C85.6312 7.14173 87.9706 8.43493 89.4603 10.4213C91.3342 12.9145 91.0374 15.7689 89.4836 18.3437C89.0995 18.9786 90.0946 19.5611 90.4787 18.9262L90.4729 18.9204Z" fill="white"/>
<path d="M105.469 33.466C104.253 33.466 103.229 33.198 102.391 32.6563C101.553 32.1145 100.924 31.3689 100.494 30.4136C100.063 29.4582 99.8478 28.3572 99.8478 27.1048C99.8478 25.8524 100.063 24.7514 100.494 23.7961C100.924 22.8407 101.559 22.0951 102.391 21.5534C103.229 21.0116 104.253 20.7437 105.469 20.7437C106.889 20.7437 108.047 21.1048 108.943 21.833C109.84 22.5611 110.456 23.5339 110.794 24.7572L109.525 25.0893C109.263 24.1223 108.798 23.3534 108.129 22.7883C107.46 22.2233 106.569 21.9378 105.475 21.9378C104.521 21.9378 103.729 22.1534 103.095 22.5903C102.461 23.0271 101.984 23.633 101.669 24.4077C101.349 25.1883 101.186 26.0854 101.175 27.099C101.175 28.1184 101.326 29.0155 101.646 29.7903C101.966 30.565 102.443 31.1708 103.089 31.6077C103.729 32.0446 104.527 32.266 105.481 32.266C106.575 32.266 107.46 31.9805 108.135 31.4155C108.81 30.8504 109.275 30.0815 109.531 29.1204L110.8 29.4524C110.468 30.6757 109.851 31.6485 108.949 32.3767C108.053 33.1048 106.895 33.466 105.475 33.466H105.469Z" fill="white"/>
<path d="M113.069 33.2156V24.0525H120.349V33.2156H119.104V25.2467H114.315V33.2156H113.069Z" fill="white"/>
<path d="M123.137 37.2874V24.0525H124.254V30.9495H124.388V37.2874H123.131H123.137ZM127.257 33.466C126.413 33.466 125.703 33.2505 125.121 32.8253C124.539 32.4 124.097 31.8175 123.8 31.0893C123.503 30.3554 123.352 29.534 123.352 28.6253C123.352 27.7165 123.503 26.8719 123.806 26.1437C124.109 25.4156 124.551 24.8447 125.139 24.4253C125.726 24.0059 126.448 23.7961 127.309 23.7961C128.17 23.7961 128.863 24.0117 129.462 24.4311C130.062 24.8563 130.521 25.433 130.842 26.1612C131.162 26.8893 131.319 27.7107 131.319 28.6194C131.319 29.5282 131.156 30.3554 130.836 31.0893C130.516 31.8175 130.05 32.3942 129.445 32.8253C128.84 33.2505 128.112 33.466 127.257 33.466ZM127.129 32.3068C127.769 32.3068 128.298 32.1495 128.723 31.8233C129.148 31.5029 129.462 31.0602 129.678 30.5068C129.887 29.9476 129.998 29.3243 129.998 28.6253C129.998 27.9262 129.893 27.3146 129.683 26.7612C129.474 26.2078 129.154 25.7709 128.729 25.4447C128.304 25.1243 127.763 24.9612 127.106 24.9612C126.448 24.9612 125.936 25.1185 125.517 25.4272C125.098 25.736 124.784 26.167 124.574 26.7204C124.365 27.2738 124.26 27.9088 124.26 28.6253C124.26 29.3418 124.365 29.9651 124.574 30.5185C124.784 31.0777 125.098 31.5146 125.523 31.8292C125.947 32.1495 126.483 32.3068 127.135 32.3068H127.129Z" fill="white"/>
<path d="M136.224 33.466C135.538 33.466 134.956 33.3437 134.49 33.0932C134.025 32.8427 133.675 32.5107 133.443 32.1029C133.21 31.6951 133.094 31.2408 133.094 30.7514C133.094 30.2621 133.192 29.8252 133.396 29.4757C133.6 29.1262 133.873 28.8349 134.217 28.6078C134.566 28.3806 134.967 28.2058 135.427 28.0893C135.893 27.9786 136.405 27.8738 136.963 27.7864C137.528 27.699 138.075 27.6233 138.616 27.5592C139.157 27.4951 139.629 27.4311 140.036 27.367L139.594 27.6349C139.611 26.732 139.437 26.0621 139.07 25.6252C138.703 25.1883 138.063 24.9728 137.155 24.9728C136.527 24.9728 135.997 25.1126 135.567 25.398C135.136 25.6835 134.834 26.1262 134.653 26.7379L133.443 26.3825C133.652 25.5612 134.071 24.9262 134.706 24.4718C135.34 24.0175 136.16 23.7903 137.173 23.7903C138.011 23.7903 138.721 23.9476 139.303 24.2621C139.891 24.5767 140.304 25.0311 140.542 25.6252C140.653 25.8932 140.729 26.1903 140.763 26.5165C140.798 26.8427 140.816 27.1806 140.816 27.5184V33.2097H139.704V30.9087L140.024 31.0427C139.71 31.8291 139.227 32.4291 138.575 32.8427C137.918 33.2563 137.132 33.4602 136.219 33.4602L136.224 33.466ZM136.37 32.3942C136.952 32.3942 137.458 32.2893 137.895 32.0796C138.331 31.8699 138.68 31.5845 138.948 31.2175C139.215 30.8505 139.384 30.4427 139.466 29.9825C139.536 29.6913 139.57 29.365 139.576 29.0097C139.582 28.6544 139.582 28.3922 139.582 28.2175L140.059 28.4621C139.634 28.5204 139.175 28.5728 138.68 28.6311C138.185 28.6893 137.697 28.7534 137.219 28.8233C136.742 28.899 136.312 28.9864 135.928 29.0854C135.666 29.1612 135.415 29.2602 135.171 29.3942C134.927 29.5281 134.729 29.7029 134.572 29.9243C134.415 30.1456 134.339 30.4194 134.339 30.7456C134.339 31.0136 134.403 31.2699 134.537 31.5204C134.671 31.7709 134.886 31.9747 135.183 32.1379C135.479 32.301 135.875 32.3825 136.364 32.3825L136.37 32.3942Z" fill="white"/>
<path d="M143.435 33.2156V24.0525H147.205C147.397 24.0525 147.63 24.0641 147.904 24.0874C148.177 24.1107 148.433 24.1515 148.672 24.2156C149.184 24.3496 149.603 24.6292 149.911 25.0486C150.226 25.468 150.383 25.969 150.383 26.5573C150.383 26.8836 150.33 27.1748 150.237 27.437C150.138 27.6933 149.999 27.9146 149.818 28.101C149.731 28.2001 149.638 28.2816 149.539 28.3515C149.44 28.4214 149.341 28.4797 149.242 28.5263C149.423 28.5612 149.615 28.637 149.83 28.7651C150.156 28.9573 150.406 29.2195 150.575 29.5399C150.744 29.8661 150.831 30.2622 150.831 30.7224C150.831 31.3515 150.68 31.8641 150.383 32.2603C150.086 32.6564 149.684 32.9302 149.178 33.0758C148.951 33.1399 148.707 33.1806 148.445 33.1923C148.183 33.2098 147.939 33.2214 147.706 33.2214H143.44L143.435 33.2156ZM144.691 28.101H147.252C147.397 28.101 147.566 28.0894 147.747 28.0719C147.933 28.0544 148.09 28.0195 148.224 27.9671C148.515 27.8622 148.73 27.6874 148.87 27.4428C149.009 27.1923 149.079 26.9243 149.079 26.6272C149.079 26.3069 149.004 26.0214 148.852 25.7768C148.701 25.5321 148.48 25.3632 148.177 25.27C147.974 25.1942 147.752 25.1535 147.52 25.1418C147.287 25.1302 147.136 25.1243 147.072 25.1243H144.68V28.101H144.691ZM144.691 32.1554H147.642C147.758 32.1554 147.91 32.1438 148.09 32.1263C148.27 32.1088 148.433 32.0797 148.573 32.0447C148.905 31.9573 149.149 31.7884 149.306 31.5321C149.463 31.2758 149.539 30.9962 149.539 30.6874C149.539 30.2855 149.423 29.9535 149.19 29.6972C148.957 29.4408 148.643 29.2836 148.253 29.2253C148.125 29.1962 147.985 29.1787 147.846 29.1729C147.706 29.1671 147.578 29.1671 147.467 29.1671H144.697V32.1554H144.691Z" fill="white"/>
<path d="M160.217 24.0525V33.2156H159.007V26.0797L153.991 33.2156H152.937V24.0525H154.148V31.1302L159.176 24.0525H160.217Z" fill="white"/>
<path d="M165.496 33.2156V25.2059H162.248V24.0525H169.988V25.2059H166.741V33.2156H165.496Z" fill="white"/>
<path d="M172.031 33.2156L172.013 24.0525H173.264V27.5069H175.412C175.679 27.5069 175.935 27.5069 176.197 27.5243C176.453 27.536 176.68 27.5593 176.878 27.5942C177.332 27.6816 177.734 27.8272 178.089 28.0428C178.444 28.2583 178.717 28.5554 178.921 28.934C179.124 29.3127 179.223 29.7904 179.223 30.3612C179.223 31.1476 179.02 31.7651 178.618 32.2195C178.217 32.6739 177.704 32.9651 177.088 33.0991C176.855 33.1515 176.605 33.1806 176.331 33.1981C176.058 33.2156 175.79 33.2214 175.528 33.2214H172.036L172.031 33.2156ZM173.27 32.1438H175.476C175.668 32.1438 175.883 32.1438 176.116 32.1263C176.354 32.1146 176.564 32.0855 176.744 32.0331C177.041 31.9457 177.315 31.7768 177.565 31.5205C177.815 31.2641 177.931 30.8739 177.931 30.3554C177.931 29.837 177.815 29.4525 177.576 29.1904C177.338 28.9282 177.024 28.7535 176.628 28.6719C176.453 28.6311 176.261 28.6078 176.058 28.5962C175.854 28.5845 175.662 28.5787 175.476 28.5787H173.27V32.1496V32.1438Z" fill="white"/>
<path d="M185.304 33.4661C184.385 33.4661 183.605 33.2622 182.965 32.8486C182.325 32.435 181.842 31.8641 181.51 31.1418C181.179 30.4137 181.01 29.5806 180.998 28.637C181.01 27.6758 181.184 26.8311 181.522 26.103C181.859 25.3748 182.348 24.8098 182.988 24.4078C183.629 24.0059 184.402 23.802 185.31 23.802C186.218 23.802 187.044 24.0292 187.731 24.4836C188.418 24.9379 188.889 25.5554 189.139 26.3418L187.917 26.7321C187.702 26.1845 187.365 25.7593 186.899 25.4564C186.433 25.1535 185.898 25.002 185.299 25.002C184.624 25.002 184.071 25.1535 183.628 25.4622C183.186 25.7709 182.86 26.202 182.645 26.7496C182.43 27.2971 182.319 27.9263 182.313 28.6428C182.325 29.7379 182.581 30.6234 183.076 31.2874C183.576 31.9515 184.315 32.2836 185.299 32.2836C185.921 32.2836 186.451 32.1379 186.887 31.8525C187.324 31.567 187.655 31.1535 187.882 30.6001L189.134 30.9729C188.796 31.7884 188.296 32.4059 187.644 32.837C186.992 33.268 186.206 33.4777 185.299 33.4777L185.304 33.4661Z" fill="white"/>
<path d="M190.746 33.2156L193.294 29.3709H194.679L192.113 33.2156H190.751H190.746ZM196.995 33.2156V29.7612H194.86C194.61 29.7612 194.354 29.7496 194.092 29.7321C193.83 29.7088 193.585 29.6797 193.358 29.6447C192.712 29.5224 192.165 29.237 191.717 28.7942C191.269 28.3515 191.042 27.734 191.042 26.9476C191.042 26.1612 191.252 25.5612 191.671 25.0952C192.09 24.6292 192.596 24.3263 193.19 24.1806C193.463 24.1166 193.737 24.0816 194.016 24.07C194.295 24.0583 194.54 24.0525 194.743 24.0525H198.241V33.2156H196.995ZM194.79 28.6952H196.995V25.1243H194.79C194.656 25.1243 194.464 25.1302 194.226 25.1418C193.987 25.1535 193.754 25.1884 193.539 25.2525C193.353 25.3107 193.166 25.4039 192.986 25.5438C192.8 25.6836 192.648 25.8641 192.526 26.0971C192.404 26.3302 192.34 26.6039 192.34 26.9302C192.34 27.3904 192.468 27.7573 192.718 28.0311C192.969 28.3049 193.283 28.4913 193.661 28.5962C193.865 28.6428 194.068 28.6719 194.272 28.6836C194.476 28.6952 194.65 28.701 194.796 28.701L194.79 28.6952Z" fill="white"/>
<path d="M204.857 33.2155V21H214.203V33.2155H212.958V22.1942H206.103V33.2155H204.857Z" fill="white"/>
<path d="M216.991 37.2874V24.0525H218.108V30.9495H218.242V37.2874H216.985H216.991ZM221.111 33.466C220.267 33.466 219.557 33.2505 218.975 32.8253C218.393 32.4 217.951 31.8175 217.654 31.0893C217.357 30.3554 217.206 29.534 217.206 28.6253C217.206 27.7165 217.357 26.8719 217.66 26.1437C217.963 25.4156 218.405 24.8447 218.993 24.4253C219.58 24.0059 220.302 23.7961 221.163 23.7961C222.024 23.7961 222.717 24.0117 223.316 24.4311C223.916 24.8563 224.375 25.433 224.695 26.1612C225.016 26.8893 225.173 27.7107 225.173 28.6194C225.173 29.5282 225.01 30.3554 224.69 31.0893C224.37 31.8175 223.904 32.3942 223.299 32.8253C222.694 33.2505 221.966 33.466 221.111 33.466ZM220.983 32.3068C221.623 32.3068 222.152 32.1495 222.577 31.8233C223.002 31.5029 223.322 31.0602 223.532 30.5068C223.747 29.9476 223.852 29.3243 223.852 28.6253C223.852 27.9262 223.747 27.3146 223.537 26.7612C223.328 26.2078 223.008 25.7709 222.583 25.4447C222.158 25.1243 221.617 24.9612 220.959 24.9612C220.302 24.9612 219.79 25.1185 219.371 25.4272C218.946 25.736 218.632 26.167 218.428 26.7204C218.219 27.2738 218.114 27.9088 218.114 28.6253C218.114 29.3418 218.219 29.9651 218.428 30.5185C218.638 31.0777 218.952 31.5146 219.377 31.8292C219.801 32.1495 220.337 32.3068 220.989 32.3068H220.983Z" fill="white"/>
<path d="M231.283 33.466C230.375 33.466 229.595 33.2622 228.955 32.8486C228.315 32.435 227.815 31.8641 227.471 31.1359C227.128 30.4078 226.953 29.569 226.953 28.6253C226.953 27.6816 227.128 26.8194 227.477 26.0971C227.826 25.3748 228.327 24.8097 228.973 24.402C229.619 23.9942 230.387 23.7961 231.283 23.7961C232.179 23.7961 232.982 24 233.628 24.4136C234.274 24.8272 234.769 25.3923 235.112 26.1204C235.455 26.8486 235.624 27.6816 235.624 28.6253C235.624 29.569 235.45 30.4311 235.106 31.1593C234.763 31.8874 234.262 32.4525 233.616 32.8602C232.97 33.268 232.191 33.4719 231.283 33.4719V33.466ZM231.283 32.2719C232.301 32.2719 233.058 31.934 233.552 31.2583C234.047 30.5826 234.297 29.7029 234.297 28.6253C234.297 27.5476 234.047 26.633 233.547 25.9806C233.046 25.3224 232.29 24.9961 231.277 24.9961C230.596 24.9961 230.032 25.1476 229.589 25.4563C229.147 25.7651 228.815 26.1903 228.6 26.7379C228.385 27.2855 228.274 27.9146 228.274 28.6253C228.274 29.7262 228.53 30.6117 229.037 31.2758C229.543 31.9398 230.294 32.2719 231.283 32.2719Z" fill="white"/>
<path d="M248.345 34.8001V33.2156H237.905V24.0525H239.116V32.0622H242.549V24.0525H243.76V32.0622H247.181V24.0525H248.392V32.0622H249.585V34.8059H248.339L248.345 34.8001Z" fill="white"/>
<path d="M255.241 33.466C254.351 33.466 253.577 33.268 252.925 32.8718C252.273 32.4757 251.767 31.9165 251.406 31.2C251.045 30.4777 250.865 29.6388 250.865 28.6718C250.865 27.7048 251.045 26.8078 251.4 26.0738C251.755 25.3456 252.256 24.7806 252.902 24.3845C253.548 23.9883 254.31 23.7903 255.194 23.7903C256.079 23.7903 256.87 24 257.511 24.4136C258.151 24.8272 258.634 25.4272 258.96 26.2019C259.285 26.9767 259.437 27.9029 259.408 28.9748H258.133V28.532C258.11 27.3437 257.854 26.4466 257.365 25.8408C256.876 25.2349 256.166 24.932 255.224 24.932C254.281 24.932 253.489 25.2524 252.966 25.8932C252.442 26.534 252.18 27.4427 252.18 28.6252C252.18 29.8078 252.442 30.6757 252.966 31.3107C253.489 31.9456 254.228 32.266 255.189 32.266C255.846 32.266 256.417 32.1146 256.905 31.8116C257.394 31.5087 257.778 31.0718 258.063 30.501L259.227 30.9495C258.866 31.7476 258.331 32.365 257.627 32.8019C256.923 33.2388 256.126 33.4602 255.241 33.4602V33.466ZM251.744 28.9806V27.9379H258.738V28.9806H251.744Z" fill="white"/>
</svg>
