<svg width="97" height="17" viewBox="0 0 97 17" fill="none" xmlns="http://www.w3.org/2000/svg">
<path d="M1.46157 9.11296C0.971632 8.85805 0.367811 9.04857 0.112895 9.5385C-0.142022 10.0284 0.0484983 10.6323 0.538433 10.8872L1 10.0001L1.46157 9.11296ZM50.2973 10.0001L49.7968 9.13433L50.2973 10.0001ZM97 10.0001L89.9897 0.824572L85.5487 11.4834L97 10.0001ZM1 10.0001C0.538433 10.8872 0.53887 10.8874 0.539405 10.8877C0.539715 10.8878 0.540351 10.8882 0.540972 10.8885C0.542214 10.8891 0.543852 10.89 0.545884 10.891C0.549949 10.8931 0.555589 10.896 0.562792 10.8997C0.577198 10.9071 0.597855 10.9176 0.624654 10.9312C0.67825 10.9582 0.756421 10.9972 0.858293 11.047C1.06203 11.1465 1.36063 11.2889 1.74711 11.4643C2.51997 11.8152 3.64495 12.2984 5.06613 12.8342C7.90699 13.9053 11.9397 15.19 16.7153 16.0468C26.2576 17.7588 38.8467 17.7749 50.7978 10.8658L50.2973 10.0001L49.7968 9.13433C38.3965 15.725 26.337 15.7411 17.0685 14.0782C12.4386 13.2476 8.52544 12.001 5.77171 10.9628C4.39559 10.4439 3.31111 9.9779 2.57383 9.64321C2.20525 9.47588 1.92361 9.34147 1.73588 9.24979C1.64202 9.20396 1.57164 9.16882 1.52563 9.1456C1.50263 9.13399 1.48571 9.12537 1.475 9.11987C1.46964 9.11713 1.46583 9.11517 1.46359 9.11401C1.46247 9.11343 1.46174 9.11305 1.4614 9.11288C1.46123 9.11279 1.46127 9.11281 1.46119 9.11277C1.46133 9.11284 1.46157 9.11296 1 10.0001ZM50.2973 10.0001L50.7978 10.8658C65.2238 2.52585 79.666 4.71992 88.3897 7.49175L88.6926 6.5387L88.9954 5.58565C79.9962 2.7263 64.905 0.400021 49.7968 9.13433L50.2973 10.0001Z" fill="#366159"/>
</svg>
