<svg width="56" height="56" viewBox="0 0 56 56" fill="none" xmlns="http://www.w3.org/2000/svg">
<circle cx="28" cy="28" r="28" fill="#F0FDFA"/>
<path fill-rule="evenodd" clip-rule="evenodd" d="M19 14C18.2044 14 17.4413 14.3161 16.8787 14.8787C16.3161 15.4413 16 16.2044 16 17V39C16 39.7956 16.3161 40.5587 16.8787 41.1213C17.4413 41.6839 18.2044 42 19 42H37C37.7956 42 38.5587 41.6839 39.1213 41.1213C39.6839 40.5587 40 39.7956 40 39V23C40 22.2044 39.6839 21.4413 39.1213 20.8787C38.5587 20.3161 37.7956 20 37 20H36V17C36 16.2044 35.6839 15.4413 35.1213 14.8787C34.5587 14.3161 33.7956 14 33 14H19ZM24 16H22V40H33C33.2652 40 33.5196 39.8946 33.7071 39.7071C33.8946 39.5196 34 39.2652 34 39V17C34 16.7348 33.8946 16.4804 33.7071 16.2929C33.5196 16.1054 33.2652 16 33 16H32V25C32.0001 25.1873 31.9477 25.3708 31.8486 25.5297C31.7495 25.6886 31.6078 25.8165 31.4396 25.8989C31.2714 25.9812 31.0835 26.0146 30.8972 25.9954C30.7109 25.9761 30.5338 25.905 30.386 25.79L28 23.933L25.614 25.788C25.4663 25.9029 25.2894 25.974 25.1033 25.9933C24.9172 26.0127 24.7294 25.9794 24.5613 25.8973C24.3931 25.8152 24.2514 25.6876 24.1522 25.529C24.053 25.3704 24.0002 25.1871 24 25V16ZM30 16H26V22.955L27.386 21.877C27.5615 21.7404 27.7776 21.6663 28 21.6663C28.2224 21.6663 28.4385 21.7404 28.614 21.877L30 22.955V16ZM36 22V39C36 39.35 35.94 39.687 35.83 40H37C37.2652 40 37.5196 39.8946 37.7071 39.7071C37.8946 39.5196 38 39.2652 38 39V23C38 22.7348 37.8946 22.4804 37.7071 22.2929C37.5196 22.1054 37.2652 22 37 22H36ZM20 40V16H19C18.7348 16 18.4804 16.1054 18.2929 16.2929C18.1054 16.4804 18 16.7348 18 17V39C18 39.2652 18.1054 39.5196 18.2929 39.7071C18.4804 39.8946 18.7348 40 19 40H20Z" fill="#366159"/>
</svg>
