<svg width="56" height="56" viewBox="0 0 56 56" fill="none" xmlns="http://www.w3.org/2000/svg">
<circle cx="28" cy="28" r="28" fill="#F0FDFA"/>
<path d="M30.8124 27.7501L27.0624 31.5001L25.1874 29.6251" stroke="#366159" stroke-width="2" stroke-miterlimit="10" stroke-linecap="round"/>
<path d="M35.2718 32.4633C35.2193 32.1476 35.3212 31.8258 35.5458 31.5977L40.6817 26.3826C41.254 25.8015 40.9274 24.8166 40.1214 24.6925L32.9536 23.5891C32.6331 23.5398 32.3564 23.338 32.2113 23.048L28.8943 16.414C28.5258 15.6769 27.474 15.6769 27.1055 16.414L23.7884 23.048C23.6434 23.3381 23.3667 23.5398 23.0462 23.5891L15.8833 24.6925C15.0775 24.8167 14.7509 25.8011 15.3228 26.3822L20.4544 31.5978C20.6788 31.8258 20.7805 32.1474 20.7281 32.463L19.511 39.7873C19.3759 40.6002 20.2268 41.2185 20.9582 40.8388L27.5392 37.4225C27.828 37.2726 28.1718 37.2726 28.4606 37.4225L35.0416 40.8388C35.7729 41.2185 36.6239 40.6002 36.4888 39.7873L35.2718 32.4633Z" stroke="#366159" stroke-width="2" stroke-miterlimit="10"/>
</svg>
