<svg width="56" height="56" viewBox="0 0 56 56" fill="none" xmlns="http://www.w3.org/2000/svg">
<circle cx="28" cy="28" r="28" fill="#F0FDFA"/>
<g clip-path="url(#clip0_10038_2230)">
<path d="M41.315 15.6349C37.6185 11.9176 31.5179 12.1024 27.9985 15.9664C24.4788 12.1025 18.3785 11.9175 14.682 15.635C11.0061 19.2957 11.1314 25.3237 14.9187 28.8568C12.9811 30.7074 14.0912 34.0328 16.7285 34.357C16.5705 36.1629 18.1076 37.819 19.9257 37.7883C20.0372 39.7763 22.0326 41.1994 23.9456 40.674C24.5732 43.0425 27.5903 43.8518 29.3211 42.1086C30.3042 41.1315 31.086 40.5153 31.1358 39.0353C32.7602 38.99 34.1656 37.5655 34.1903 35.9422C35.8303 35.9168 37.2591 34.4876 37.2843 32.8481C38.9856 32.8223 40.4607 31.2868 40.3815 29.5533L41.3148 28.6201C44.8949 25.04 44.8949 19.2149 41.315 15.6349ZM16.326 30.3511L17.2026 29.4745C17.3105 29.3665 17.4386 29.2809 17.5796 29.2226C17.7206 29.1643 17.8718 29.1344 18.0244 29.1346C19.0449 29.1279 19.5776 30.3896 18.8459 31.1178L17.9693 31.9944C16.8346 33.039 15.2812 31.4863 16.326 30.3511ZM18.7704 34.5763C18.7704 34.2658 18.8913 33.974 19.1107 33.7546L19.9878 32.8775C20.0955 32.7694 20.2235 32.6837 20.3644 32.6254C20.5053 32.567 20.6565 32.5372 20.809 32.5376C21.8382 32.5358 22.3599 33.7946 21.6306 34.5213L20.8572 35.2948C20.6207 35.5627 20.2959 35.744 19.9323 35.7382C19.3078 35.7511 18.7574 35.2009 18.7704 34.5763ZM22.3079 38.3888C21.8572 37.9563 21.8572 37.178 22.3079 36.7455L23.0814 35.972C23.5324 35.4366 24.3241 35.3669 24.8279 35.8688C25.2809 36.3219 25.2809 37.059 24.8279 37.5121L23.9512 38.3888C23.4982 38.842 22.761 38.842 22.3079 38.3888ZM28.7471 39.7812L27.8704 40.6579C27.7628 40.7661 27.6348 40.8519 27.4937 40.9104C27.3527 40.9688 27.2015 40.9987 27.0488 40.9983C26.8961 40.9987 26.7449 40.9688 26.6039 40.9104C26.4628 40.8519 26.3348 40.7661 26.2271 40.6579C25.7764 40.2253 25.7762 39.4471 26.2272 39.0146L27.1037 38.138C27.5567 37.6849 28.294 37.6849 28.747 38.1379C29.1978 38.5705 29.1979 39.3487 28.7471 39.7812ZM37.9907 30.4603C37.5581 30.9111 36.7799 30.9112 36.3474 30.4603L31.7818 25.8948L30.3311 27.3456L34.8966 31.9111C35.3496 32.3642 35.3496 33.1013 34.8966 33.5544C34.4435 34.0076 33.7064 34.0075 33.2533 33.5544L28.7652 29.0663L28.6878 28.9888L27.237 30.4396L27.3144 30.517L31.8026 35.0051C32.2556 35.4582 32.2556 36.1954 31.8026 36.6485C31.3495 37.1016 30.6123 37.1016 30.1592 36.6485L30.1583 36.6494C29.3247 35.8435 28.1597 35.5781 27.1074 35.8533C26.7724 34.4846 25.3965 33.4483 24.0128 33.4785C23.9457 32.0052 22.7002 30.6743 21.2283 30.5153C21.4225 27.9876 18.6464 26.2469 16.4556 27.492C13.4044 24.7666 13.2165 19.982 16.1329 17.0857C19.0325 14.1658 23.8235 14.3592 26.5478 17.4172L24.0115 19.9535L26.0439 21.9859C27.605 23.5471 30.0107 23.762 31.8044 22.6305L37.9909 28.817C38.4437 29.2701 38.4437 30.0072 37.9907 30.4603ZM39.8642 27.1693L39.5516 27.4819C39.5158 27.4424 39.4791 27.4039 39.4415 27.3663L31.885 19.8098L31.1596 20.5351C30.1492 21.5455 28.5051 21.5456 27.4945 20.5351L26.9129 19.9535L29.7807 17.0857C36.747 10.6739 46.2746 20.2075 39.8642 27.1693Z" fill="#366159"/>
</g>
<defs>
<clipPath id="clip0_10038_2230">
<rect width="32" height="32" fill="white" transform="translate(12 12)"/>
</clipPath>
</defs>
</svg>
