<svg width="56" height="56" viewBox="0 0 56 56" fill="none" xmlns="http://www.w3.org/2000/svg">
<circle cx="28" cy="28" r="28" fill="#F0FDFA"/>
<path d="M29.25 29.3654L31.25 32.8295C31.5261 33.3078 32.1377 33.4716 32.616 33.1955L37.3792 30.4455C37.8575 30.1694 38.0213 29.5578 37.7452 29.0795L31.2452 17.8211C30.969 17.3429 30.3575 17.179 29.8792 17.4551L25.116 20.2051C24.6377 20.4813 24.4739 21.0929 24.75 21.5712L26.75 25.0352M22.8325 15.75L27.1627 13.25M27.4976 18.8301L24.9976 14.5M22.7316 38.3797C20.0496 37.9517 18 35.6279 18 32.8253C18 29.7187 20.5184 27.2003 23.625 27.2003H25.5M38 38.4503H28.3044M15.5 42.75H40.5" stroke="#366159" stroke-width="2" stroke-miterlimit="10" stroke-linecap="round" stroke-linejoin="round"/>
<path d="M28 29.7003C29.3807 29.7003 30.5 28.581 30.5 27.2003C30.5 25.8196 29.3807 24.7003 28 24.7003C26.6193 24.7003 25.5 25.8196 25.5 27.2003C25.5 28.581 26.6193 29.7003 28 29.7003Z" stroke="#366159" stroke-width="2" stroke-miterlimit="10" stroke-linecap="round" stroke-linejoin="round"/>
<path d="M20.5 42.75L23.2201 37.423C23.612 36.5546 24.4854 35.9503 25.5 35.9503C26.5146 35.9503 27.388 36.5547 27.7799 37.423L30.5 42.75" stroke="#366159" stroke-width="2" stroke-miterlimit="10" stroke-linecap="round" stroke-linejoin="round"/>
</svg>
