<svg width="56" height="56" viewBox="0 0 56 56" fill="none" xmlns="http://www.w3.org/2000/svg">
<circle cx="28" cy="28" r="28" fill="#F0FDFA"/>
<g clip-path="url(#clip0_10039_3165)">
<path d="M28 27.7877C30.7634 27.7877 33.0115 25.5447 33.0115 22.7877C33.0115 20.0307 30.7634 17.7877 28 17.7877C25.2367 17.7877 22.9885 20.0307 22.9885 22.7877C22.9885 25.5447 25.2367 27.7877 28 27.7877ZM28 20.2877C29.3817 20.2877 30.5058 21.4092 30.5058 22.7877C30.5058 24.1662 29.3817 25.2877 28 25.2877C26.6184 25.2877 25.4943 24.1662 25.4943 22.7877C25.4943 21.4092 26.6184 20.2877 28 20.2877Z" fill="#366159"/>
<path d="M34.9519 31.0484C37.3823 29.0081 38.8125 25.9771 38.8125 22.7878C38.8125 16.8394 33.962 12 28 12C22.038 12 17.1875 16.8394 17.1875 22.7878C17.1875 25.9771 18.6178 29.0081 21.0481 31.0484L18.9289 42.5235C18.8844 42.7652 18.9121 43.0146 19.0087 43.2406C19.1053 43.4666 19.2664 43.659 19.4718 43.7939C19.6775 43.929 19.9184 44.0007 20.1645 44C20.4106 43.9993 20.6511 43.9263 20.8561 43.79L28 39.0376L35.1439 43.7901C35.3489 43.9263 35.5894 43.9993 35.8355 44C36.0816 44.0007 36.3225 43.929 36.5282 43.7939C36.7336 43.6591 36.8947 43.4666 36.9913 43.2407C37.0879 43.0147 37.1156 42.7652 37.0711 42.5236L34.9519 31.0484ZM19.6933 22.7878C19.6933 18.2178 23.4196 14.5 28 14.5C32.5804 14.5 36.3067 18.2178 36.3067 22.7878C36.3067 25.4453 35.0145 27.9609 32.8499 29.5169C31.4318 30.5365 29.7547 31.0755 28 31.0755C26.2453 31.0755 24.5682 30.5366 23.15 29.5169C20.9855 27.9609 19.6933 25.4453 19.6933 22.7878ZM28.695 36.4951C28.4891 36.3582 28.2473 36.2852 28 36.2852C27.7527 36.2852 27.5109 36.3582 27.305 36.4951L21.9298 40.071L23.3246 32.5185C24.7732 33.2137 26.3609 33.5755 28 33.5755C29.6392 33.5755 31.2268 33.2137 32.6754 32.5185L34.0702 40.0711L28.695 36.4951Z" fill="#366159"/>
</g>
<defs>
<clipPath id="clip0_10039_3165">
<rect width="32" height="32" fill="white" transform="translate(12 12)"/>
</clipPath>
</defs>
</svg>
