<svg width="56" height="56" viewBox="0 0 56 56" fill="none" xmlns="http://www.w3.org/2000/svg">
<circle cx="28" cy="28" r="28" fill="#F0FDFA"/>
<path d="M37.8419 34.4621C37.26 33.8802 36.5078 33.57 35.7442 33.5316C35.7058 32.768 35.3956 32.0157 34.8136 31.4338C34.2483 30.8685 33.5086 30.5411 32.7159 30.5018C32.6771 29.7387 32.367 28.9871 31.7854 28.4056C31.5237 28.1433 31.2182 27.9288 30.8826 27.7717L34.7822 23.8721C36.0121 22.6423 36.054 20.6292 34.8758 19.3846C34.2769 18.7519 33.4679 18.3969 32.5977 18.385C31.7267 18.3728 30.9093 18.7054 30.2939 19.3208L25.0833 24.5313C25.0186 24.2467 24.926 23.9691 24.8067 23.7026L23.7966 21.4493C23.4232 20.621 22.7494 19.9877 21.8997 19.6661C21.0499 19.3445 20.1257 19.3731 19.2975 19.7466C17.5877 20.5175 16.8239 22.5358 17.596 24.248L18.5127 26.2671C19.1912 27.7617 19.2436 29.4917 18.6613 31.0255C16.5787 33.6805 16.758 37.5439 19.2027 39.9887L23.2306 44.0165C24.5096 45.2956 26.2101 46 28.0189 46C29.8277 46 31.5283 45.2956 32.8073 44.0166L37.8419 38.982C39.0881 37.7358 39.0881 35.7082 37.8419 34.4621ZM20.1357 21.6624C20.7816 21.3704 21.5421 21.6545 21.8384 22.2983L22.8819 24.5655C23.2831 25.4606 23.0867 26.5279 22.3932 27.2215L21.1635 28.4512C21.1163 27.4023 20.8723 26.362 20.4334 25.3951L19.4973 23.3811C19.1948 22.7304 19.4817 21.958 20.1357 21.6624ZM36.3465 37.4944L31.3157 42.5251C30.4351 43.4057 29.2643 43.8906 28.0189 43.8906C26.7736 43.8906 25.6027 43.4057 24.7221 42.525L20.6943 38.4972C18.8735 36.6763 18.8735 33.7243 20.6943 31.9035L31.7678 20.8294C32.1983 20.3989 32.8985 20.406 33.3201 20.8453C33.7297 21.2719 33.7227 21.9478 33.3046 22.3661L25.2468 30.4244L26.7383 31.916L28.7573 29.897C29.1938 29.4606 29.9122 29.4739 30.3316 29.9368C30.724 30.3699 30.6849 31.0428 30.2717 31.456L28.275 33.4527L29.7665 34.9442L31.7854 32.9253C32.2219 32.4888 32.9405 32.502 33.3599 32.965C33.7522 33.3982 33.713 34.0712 33.2997 34.4844L31.3033 36.4809L32.7948 37.9724L34.8314 35.9358C35.2681 35.4992 35.9839 35.5118 36.4044 35.9739C36.7982 36.4066 36.7602 37.0806 36.3465 37.4944Z" fill="#366159"/>
<path d="M26.0637 20.3415C26.0637 20.3415 29.7218 16.9668 30.2245 16.4657C30.9419 15.7502 31.3371 14.7983 31.3371 13.7852C31.3371 11.698 29.6391 10 27.552 10C27.0403 9.99964 26.534 10.1033 26.0637 10.3047C25.5934 10.1033 25.087 9.9996 24.5754 10C22.4883 10 20.7903 11.698 20.7903 13.7851C20.7903 14.7983 21.1854 15.7502 21.9029 16.4656C22.4055 16.9668 26.0637 20.3415 26.0637 20.3415ZM26.0637 12.7552L26.6394 12.3801C26.9108 12.2031 27.2279 12.109 27.552 12.1094C28.476 12.1094 29.2277 12.8612 29.2277 13.7851C29.2277 14.2337 29.0528 14.6551 28.7351 14.9719C28.433 15.273 27.1013 16.5108 26.0637 17.4708C25.0261 16.5109 23.6943 15.2731 23.3922 14.9719C23.2356 14.8166 23.1113 14.6317 23.0268 14.428C22.9422 14.2243 22.899 14.0058 22.8996 13.7852C22.8996 12.8612 23.6514 12.1094 24.5753 12.1094C24.9005 12.1094 25.216 12.203 25.4878 12.3801L26.0637 12.7552Z" fill="#366159"/>
</svg>
