<svg width="56" height="56" viewBox="0 0 56 56" fill="none" xmlns="http://www.w3.org/2000/svg">
<circle cx="28" cy="28" r="28" fill="#F0FDFA"/>
<path d="M42.2195 23.727C42.2195 20.4342 39.6246 17.736 36.3722 17.569C36.921 14.6711 34.6866 12 31.7584 12C30.223 12 28.8574 12.7407 28 13.8835C27.1427 12.7407 25.7771 12 24.2416 12C21.33 12 19.112 14.6357 19.6167 17.5069C14.3166 17.7885 11.8583 24.1996 15.5331 27.9687C11.8607 31.7353 14.3119 38.1581 19.6279 38.431C19.0791 41.3288 21.3135 44 24.2417 44C25.7771 44 27.1427 43.2593 28.0001 42.1165C28.8574 43.2593 30.223 44 31.7584 44C34.6701 44 36.888 41.3643 36.3833 38.4931C39.6306 38.3206 42.2195 35.6247 42.2195 32.3356C42.2195 30.6835 41.5821 29.124 40.4729 27.9768C41.5945 26.8445 42.2195 25.3472 42.2195 23.727ZM20.7838 19.4551C21.5679 19.6094 22.1739 18.7715 21.782 18.0754C20.7294 16.2059 22.0868 13.875 24.2416 13.875C25.7971 13.875 27.0625 15.1402 27.0625 16.6953V18.7018C24.9234 18.1781 22.843 19.8764 22.999 22.1259C23.1382 24.1332 25.0686 25.5731 27.0625 25.0837V27.0312H24.0038C23.0479 27.0312 22.4834 28.1049 23.0252 28.8921C23.6398 29.7848 23.0496 31.0233 21.964 31.0986C20.7618 31.1816 20.0418 29.8449 20.6974 28.8923C21.2392 28.1051 20.675 27.0312 19.719 27.0312H17.288C16.261 26.2191 15.6556 24.9804 15.6556 23.6644C15.6556 20.9751 18.1172 18.9296 20.7838 19.4551ZM24.2416 42.125C22.0605 42.125 20.7059 39.7415 21.8121 37.872C22.2243 37.1752 21.6149 36.313 20.8166 36.4762C18.1404 37.0261 15.6555 34.9728 15.6555 32.273C15.6555 30.9569 16.261 29.7183 17.2879 28.9062H18.6692C18.148 31.0333 19.8316 33.1259 22.0937 32.9691C24.0764 32.8317 25.5471 30.9223 25.0519 28.9062H27.0625V31.9018C27.0625 32.8572 28.1357 33.422 28.9236 32.8803C29.899 32.209 31.2121 32.9686 31.1305 34.1464C31.0552 35.2319 29.8159 35.8217 28.9234 35.2073C28.1365 34.6658 27.0626 35.2299 27.0626 36.1858V39.3047C27.0625 40.8598 25.7971 42.125 24.2416 42.125ZM35.2163 36.5449C34.4326 36.3905 33.826 37.2283 34.2181 37.9246C35.2707 39.7941 33.9133 42.125 31.7584 42.125C30.203 42.125 28.9375 40.8598 28.9375 39.3047V37.2339C30.9584 37.7301 32.8638 36.2543 33.001 34.2761C33.1563 32.0379 31.0899 30.325 28.9375 30.852V28.9062H31.9963C32.9523 28.9062 33.5165 27.8324 32.9746 27.0451C32.3216 26.0962 33.0355 24.7551 34.2413 24.8388C35.3268 24.9141 35.917 26.1525 35.3025 27.0452C34.7605 27.8326 35.3253 28.9062 36.281 28.9062H38.7113C39.7247 29.7137 40.3445 31.0028 40.3445 32.3356C40.3445 35.0249 37.8829 37.0704 35.2163 36.5449ZM38.7196 27.0312H37.3292C37.8244 25.0148 36.3536 23.1057 34.371 22.9683C32.1272 22.8125 30.421 24.8854 30.9465 27.0312H28.9376V24.0356C28.9376 23.0803 27.8641 22.5151 27.0767 23.0571C26.1822 23.6724 24.9447 23.0792 24.8696 21.9962C24.7877 20.8144 26.1047 20.0614 27.0766 20.73C27.864 21.2715 28.9376 20.7074 28.9376 19.7515V16.6953C28.9376 15.1402 30.203 13.875 31.7585 13.875C33.9396 13.875 35.2942 16.2585 34.188 18.128C33.7751 18.8259 34.3868 19.6869 35.1835 19.5237C37.8597 18.9739 40.3446 21.0272 40.3446 23.727C40.3445 25.0278 39.7558 26.2171 38.7196 27.0312Z" fill="#366159"/>
</svg>
