<svg width="16" height="53" viewBox="0 0 16 53" fill="none" xmlns="http://www.w3.org/2000/svg">
<path d="M6.78063 1.62492C7.12577 1.19376 7.05603 0.564444 6.62486 0.219311C6.1937 -0.125823 5.56439 -0.0560825 5.21925 0.37508L5.99994 1L6.78063 1.62492ZM5.99994 27.7027L6.74716 27.0381L5.99994 27.7027ZM5.99994 53L15.7963 46.8874L5.60443 41.4598L5.99994 53ZM5.99994 1C5.21925 0.37508 5.21893 0.375488 5.21856 0.375949C5.21838 0.376175 5.21797 0.376691 5.21761 0.377142C5.21689 0.378045 5.216 0.379164 5.21494 0.380498C5.21282 0.383165 5.21002 0.38669 5.20657 0.391068C5.19967 0.399822 5.19013 0.411983 5.17809 0.427493C5.15402 0.45851 5.11991 0.50293 5.07683 0.560281C4.99067 0.674964 4.86851 0.841469 4.71867 1.05601C4.41915 1.48488 4.00819 2.10694 3.55292 2.89183C2.64412 4.45858 1.54917 6.69052 0.81729 9.34203C-0.653575 14.6708 -0.654834 21.7252 5.25273 28.3673L5.99994 27.7027L6.74716 27.0381C1.40485 21.0316 1.40359 14.7346 2.74519 9.87418C3.41955 7.4311 4.43395 5.35898 5.28294 3.89533C5.70656 3.16502 6.08661 2.59029 6.35837 2.20117C6.49418 2.00671 6.60272 1.85892 6.67587 1.76156C6.71243 1.71289 6.74013 1.67685 6.75794 1.65391C6.76684 1.64244 6.77327 1.63425 6.77709 1.6294C6.77901 1.62697 6.78027 1.62538 6.78086 1.62463C6.78116 1.62426 6.78129 1.62409 6.78125 1.62414C6.78124 1.62417 6.78108 1.62436 6.78107 1.62437C6.78087 1.62462 6.78063 1.62492 5.99994 1ZM5.99994 27.7027L5.25273 28.3673C10.5919 34.3703 10.5873 40.3018 9.27054 44.7747L10.2298 45.0572L11.1891 45.3396C12.6626 40.3345 12.6285 33.6507 6.74716 27.0381L5.99994 27.7027Z" fill="#366159"/>
</svg>
