<svg width="56" height="56" viewBox="0 0 56 56" fill="none" xmlns="http://www.w3.org/2000/svg">
<circle cx="28" cy="28" r="28" fill="#F0FDFA"/>
<path d="M14.2756 33.0107C14.3084 33.0107 14.3425 33.0062 14.3759 32.9971C14.4249 32.9839 14.4708 32.9611 14.511 32.9301C14.5511 32.8991 14.5849 32.8604 14.6102 32.8162C14.6355 32.7721 14.6519 32.7233 14.6585 32.6728C14.6651 32.6222 14.6618 32.5709 14.6486 32.5217C14.3361 31.3502 14.1778 30.1353 14.1778 28.9102C14.1778 22.052 19.1797 16.2113 25.8724 15.1718C26.1168 16.124 26.9787 16.8297 28.0006 16.8297C29.2124 16.8297 30.1983 15.8381 30.1983 14.6193C30.1977 13.4019 29.2117 12.4103 28 12.4103C26.8635 12.4103 25.9258 13.2822 25.8139 14.3962C18.7166 15.468 13.4054 21.6496 13.4054 28.9108C13.4054 30.2033 13.5726 31.486 13.9026 32.7229C13.9246 32.8054 13.973 32.8784 14.0405 32.9305C14.1079 32.9825 14.1906 33.0107 14.2756 33.0107ZM28 13.1865C28.7859 13.1865 29.4259 13.8302 29.4259 14.6206C29.4259 15.4111 28.7859 16.0548 28 16.0548C27.2141 16.0548 26.5741 15.4118 26.5741 14.6206C26.5741 13.8295 27.2141 13.1865 28 13.1865ZM37.7831 38.733C35.1712 41.3645 31.6969 42.8135 28 42.8135C23.7777 42.8135 19.8762 40.9298 17.2361 37.6327C17.9333 36.9437 18.1095 35.8408 17.5988 34.9507C16.993 33.895 15.6462 33.5321 14.5972 34.1415C13.5475 34.7508 13.1867 36.1054 13.7926 37.1604C14.1991 37.8688 14.9393 38.2653 15.6996 38.2653C16.0025 38.2653 16.308 38.2013 16.5974 38.0699C17.9024 39.7098 19.5637 41.0702 21.4211 42.0159C23.4715 43.0606 25.6853 43.5897 28 43.5897C31.9033 43.5897 35.5713 42.0592 38.3292 39.2809C38.365 39.2449 38.3934 39.2021 38.4127 39.155C38.4321 39.1079 38.442 39.0574 38.442 39.0065C38.4419 38.9555 38.4318 38.9051 38.4124 38.8581C38.3929 38.811 38.3644 38.7683 38.3285 38.7323C38.2927 38.6963 38.2501 38.6678 38.2033 38.6483C38.1565 38.6288 38.1063 38.6188 38.0557 38.6189C38.005 38.6189 37.9549 38.6291 37.9081 38.6486C37.8613 38.6682 37.8189 38.6969 37.7831 38.733ZM14.4602 36.7736C14.0672 36.0886 14.3013 35.2101 14.9818 34.8149C15.2056 34.6848 15.4507 34.6227 15.6925 34.6227C16.1858 34.6227 16.6656 34.8802 16.9299 35.3395C17.3229 36.0245 17.0888 36.903 16.4083 37.2982C15.7279 37.6935 14.8538 37.458 14.4602 36.7736ZM41.5926 34.265C42.2569 32.5605 42.5946 30.7609 42.5946 28.9108C42.5946 22.2661 38.1414 16.4332 31.7651 14.7254C31.5592 14.6704 31.3477 14.7934 31.293 15.0004C31.2383 15.2074 31.3605 15.4202 31.5663 15.4752C37.605 17.0924 41.8228 22.6173 41.8228 28.9108C41.8228 30.6438 41.5109 32.3295 40.8954 33.9267C39.9525 33.6628 38.9131 34.0599 38.4018 34.9507C37.796 36.0064 38.1568 37.3603 39.2064 37.9697C39.5518 38.1702 39.9287 38.2653 40.3017 38.2653C41.0619 38.2653 41.8022 37.8688 42.2087 37.1604C42.502 36.6494 42.5804 36.0536 42.428 35.4831C42.2949 34.9876 42.0022 34.5619 41.5926 34.265ZM41.5398 36.7736C41.1468 37.4586 40.2728 37.6941 39.5923 37.2982C38.9112 36.903 38.6771 36.0239 39.0707 35.3395C39.3344 34.8802 39.8149 34.6227 40.3082 34.6227C40.55 34.6227 40.7944 34.6848 41.0189 34.8149C41.3488 35.0063 41.5848 35.3155 41.6832 35.6856C41.7804 36.0549 41.7302 36.4418 41.5398 36.7736ZM37.3393 31.8554C37.3765 31.8192 37.406 31.7759 37.4261 31.728C37.4462 31.6801 37.4565 31.6286 37.4564 31.5766V30.2932C37.4564 28.6792 36.1508 27.3661 34.5461 27.3661H34.1518C34.011 27.3661 33.8817 27.443 33.8142 27.5666C33.6752 27.8195 33.4109 27.9767 33.1241 27.9767C32.8372 27.9767 32.5729 27.8195 32.4339 27.5666C32.4007 27.5058 32.3518 27.4552 32.2924 27.4199C32.233 27.3846 32.1653 27.366 32.0963 27.3661H31.702C31.4068 27.3661 31.1174 27.4107 30.8402 27.4974C30.8511 27.3945 30.8576 27.2904 30.8576 27.1849C30.8576 25.6001 29.5757 24.3115 28.0006 24.3115C26.4255 24.3115 25.1437 25.6007 25.1437 27.1849C25.1437 27.2904 25.1495 27.3945 25.1611 27.4974C24.8845 27.4107 24.5951 27.3661 24.2993 27.3661H23.905C23.7641 27.3661 23.6349 27.443 23.5673 27.5666C23.4284 27.8195 23.1641 27.9767 22.8772 27.9767C22.5904 27.9767 22.326 27.8195 22.1871 27.5666C22.1537 27.5059 22.1048 27.4553 22.0454 27.4201C21.9861 27.3848 21.9184 27.3662 21.8495 27.3661H21.4552C19.8505 27.3661 18.5449 28.6792 18.5449 30.2932V31.5766C18.5449 31.6814 18.5873 31.7823 18.662 31.8554C19.4749 32.6478 21.0899 33.1401 22.8772 33.1401C22.9737 33.1401 23.0702 33.1381 23.1666 33.1349C23.1171 33.3626 23.0901 33.5994 23.0901 33.842V35.3136C23.0901 35.4184 23.1326 35.5193 23.2072 35.5924C24.1288 36.4909 25.9657 37.0492 28.0006 37.0492C30.0356 37.0492 31.8725 36.4909 32.7941 35.5924C32.8313 35.5562 32.8608 35.5129 32.8809 35.465C32.901 35.4171 32.9113 35.3656 32.9112 35.3136V33.842C32.9112 33.5994 32.8842 33.3626 32.8346 33.1349C32.9311 33.1375 33.0276 33.1401 33.1241 33.1401C34.9114 33.1401 36.5264 32.6478 37.3393 31.8554ZM28 25.0884C29.15 25.0884 30.0851 26.029 30.0851 27.1856C30.0851 28.3422 29.15 29.2828 28 29.2828C26.85 29.2828 25.9149 28.3422 25.9149 27.1856C25.9149 26.029 26.85 25.0884 28 25.0884ZM32.1394 35.1415C31.3245 35.8324 29.7275 36.2729 28 36.2729C26.2725 36.2729 24.6755 35.8324 23.8606 35.1415V33.842C23.8606 32.4512 24.9861 31.3191 26.3689 31.3191H26.6121C26.9362 31.7564 27.4495 32.0197 28 32.0197C28.5505 32.0197 29.0638 31.7564 29.3879 31.3191H29.6311C31.0145 31.3191 32.1394 32.4512 32.1394 33.842V35.1415ZM29.6311 30.5429H29.1789C29.0381 30.5429 28.9088 30.6199 28.8413 30.7434C28.6721 31.052 28.3499 31.2434 28.0006 31.2434C27.6514 31.2434 27.3292 31.052 27.16 30.7434C27.1267 30.6826 27.0779 30.632 27.0185 30.5967C26.9591 30.5614 26.8913 30.5428 26.8224 30.5429H26.3702C25.0974 30.5429 23.9925 31.2764 23.449 32.3451C23.2606 32.3574 23.0689 32.3638 22.8772 32.3638C21.3941 32.3638 20.0235 31.9906 19.3167 31.4039V30.2938C19.3167 29.1081 20.2756 28.143 21.4552 28.143H21.6424C21.935 28.5246 22.3897 28.7536 22.8772 28.7536C23.3647 28.7536 23.8195 28.5246 24.1121 28.143H24.2993C24.7122 28.143 25.1096 28.2633 25.4557 28.489C25.929 29.4199 26.8918 30.0597 28.0006 30.0597C29.1101 30.0597 30.0729 29.4205 30.5456 28.489C30.8916 28.2633 31.2885 28.143 31.702 28.143H31.8892C32.1818 28.5246 32.6365 28.7536 33.1241 28.7536C33.6116 28.7536 34.0663 28.5246 34.3589 28.143H34.5461C35.725 28.143 36.6846 29.1075 36.6846 30.2938V31.4039C35.9778 31.9906 34.6072 32.3638 33.1241 32.3638C32.9324 32.3638 32.7414 32.3574 32.5529 32.3451C32.0088 31.2764 30.9039 30.5429 29.6311 30.5429ZM33.1241 21.9323C31.7226 21.9323 30.5829 23.0786 30.5829 24.4881C30.5829 25.8976 31.7226 27.0439 33.1241 27.0439C34.5255 27.0439 35.6652 25.8976 35.6652 24.4881C35.6652 23.0786 34.5249 21.9323 33.1241 21.9323ZM33.1241 26.2677C32.1484 26.2677 31.3547 25.4694 31.3547 24.4881C31.3547 23.5068 32.1484 22.7085 33.1241 22.7085C34.0997 22.7085 34.8934 23.5068 34.8934 24.4881C34.8934 25.4694 34.0997 26.2677 33.1241 26.2677ZM25.4171 24.4881C25.4171 23.0786 24.2774 21.9323 22.8759 21.9323C21.4745 21.9323 20.3348 23.0786 20.3348 24.4881C20.3348 25.8976 21.4745 27.0439 22.8759 27.0439C24.2774 27.0439 25.4171 25.8976 25.4171 24.4881ZM21.1066 24.4881C21.1066 23.5068 21.9003 22.7085 22.8759 22.7085C23.8516 22.7085 24.6453 23.5068 24.6453 24.4881C24.6453 25.4694 23.8516 26.2677 22.8759 26.2677C21.9003 26.2677 21.1066 25.4694 21.1066 24.4881Z" fill="#366159"/>
<path d="M14.3952 33.7853C15.6366 33.0641 17.2311 33.4926 17.9496 34.7444C18.4892 35.6849 18.3804 36.8229 17.7683 37.6378C20.3254 40.6749 24.0136 42.403 28 42.403L28 42.8135L27.6049 42.8077C23.535 42.694 19.7937 40.8265 17.2361 37.6327C17.8896 36.9869 18.0854 35.9773 17.6867 35.1202L17.5988 34.9507C16.993 33.895 15.6462 33.5321 14.5972 34.1415L14.4086 34.2644C13.5064 34.9192 13.2247 36.1713 13.7926 37.1604C14.1991 37.8688 14.9393 38.2653 15.6996 38.2653C16.0025 38.2653 16.308 38.2013 16.5974 38.0699C17.9024 39.7098 19.5637 41.0702 21.4211 42.0159C23.3433 42.9953 25.409 43.5213 27.5669 43.5833L28 43.5897C31.9033 43.5897 35.5713 42.0592 38.3292 39.2809C38.3471 39.2628 38.3634 39.2431 38.3774 39.222L38.4127 39.155C38.4321 39.1079 38.442 39.0574 38.442 39.0065C38.4419 38.9555 38.4318 38.9051 38.4124 38.8581C38.4026 38.8345 38.3907 38.8119 38.3766 38.7909L38.3285 38.7323C38.2927 38.6963 38.2501 38.6678 38.2033 38.6483C38.1565 38.6288 38.1063 38.6188 38.0557 38.6189C38.005 38.6189 37.9549 38.6291 37.9081 38.6486C37.8613 38.6682 37.8189 38.6969 37.7831 38.733L37.5357 38.976C34.9539 41.4535 31.5814 42.8135 28 42.8135L28 42.403C31.59 42.403 34.9613 40.9969 37.4969 38.4423L37.5539 38.3902C37.614 38.3404 37.6815 38.2994 37.7535 38.2692L37.8263 38.2428C37.9004 38.2201 37.9775 38.2084 38.0552 38.2083C38.1328 38.2082 38.2099 38.2203 38.284 38.2428L38.3576 38.2684L38.4273 38.3021C38.4956 38.3387 38.5583 38.3854 38.6134 38.4407C38.6871 38.5146 38.7458 38.6026 38.786 38.6995C38.8261 38.7964 38.8468 38.9005 38.847 39.0056C38.8471 39.1109 38.8267 39.2154 38.7868 39.3125C38.7469 39.4096 38.6886 39.4981 38.615 39.5721C35.7809 42.427 32.0101 44 28 44C25.6226 44 23.3463 43.456 21.2388 42.3822C19.4167 41.4545 17.7795 40.139 16.4681 38.5561C16.2161 38.6354 15.9571 38.6755 15.6993 38.6755C14.8019 38.6754 13.9244 38.2071 13.4418 37.3662C12.7227 36.1134 13.1518 34.5071 14.3952 33.7853ZM42.5946 28.9108C42.5946 22.2661 38.1414 16.4332 31.7651 14.7254C31.5592 14.6704 31.3477 14.7934 31.293 15.0004C31.2383 15.2074 31.3605 15.4202 31.5663 15.4752C37.605 17.0924 41.8228 22.6173 41.8228 28.9108L41.8194 29.2348C41.7829 30.8539 41.4724 32.4292 40.8954 33.9267L40.7172 33.8846C39.8245 33.7143 38.8812 34.116 38.4018 34.9507L38.2998 35.1522C37.8442 36.173 38.2225 37.3984 39.2064 37.9697C39.5518 38.1702 39.9287 38.2653 40.3017 38.2653C41.0146 38.2653 41.71 37.9167 42.129 37.2893L42.2087 37.1604C42.502 36.6494 42.5804 36.0536 42.428 35.4831C42.2949 34.9876 42.0022 34.5619 41.5926 34.265C42.2154 32.6671 42.5511 30.9855 42.5906 29.2572L42.5946 28.9108ZM15.6925 34.6227C16.1858 34.6227 16.6656 34.8802 16.9299 35.3395C17.3229 36.0245 17.0888 36.903 16.4083 37.2982C15.7279 37.6935 14.8538 37.458 14.4602 36.7736C14.092 36.1315 14.2744 35.3189 14.8592 34.8942L14.9818 34.8149C15.2056 34.6848 15.4507 34.6227 15.6925 34.6227ZM40.3082 34.6227C40.55 34.6227 40.7944 34.6848 41.0189 34.8149C41.3488 35.0063 41.5848 35.3155 41.6832 35.6856C41.7804 36.0549 41.7302 36.4418 41.5398 36.7736C41.1468 37.4586 40.2728 37.6941 39.5923 37.2982C38.9538 36.9275 38.7082 36.1315 39.0045 35.4696L39.0707 35.3395C39.3344 34.8802 39.8149 34.6227 40.3082 34.6227ZM32.9112 33.842C32.9112 33.5994 32.8842 33.3626 32.8346 33.1349C32.9311 33.1375 33.0276 33.1401 33.1241 33.1401C34.9114 33.1401 36.5264 32.6478 37.3393 31.8554C37.3579 31.8374 37.3747 31.8177 37.3893 31.7965L37.4261 31.728C37.4462 31.6801 37.4565 31.6286 37.4564 31.5766V30.2932C37.4564 28.7296 36.231 27.4487 34.6955 27.3702L34.5461 27.3661H34.1518L34.0993 27.3694C33.9794 27.3859 33.8732 27.4586 33.8142 27.5666L33.7564 27.6571C33.6089 27.8565 33.375 27.9767 33.1241 27.9767L33.1238 27.5665C33.2332 27.5665 33.3349 27.5187 33.4065 27.4399C33.3135 27.4488 33.219 27.4543 33.1238 27.4543C33.0282 27.4543 32.9336 27.4489 32.8403 27.4399C32.9119 27.5191 33.0142 27.5664 33.1238 27.5665L33.1241 27.9767L33.0177 27.9696C32.8081 27.9408 32.6184 27.8279 32.4919 27.6571L32.4339 27.5666C32.4007 27.5058 32.3518 27.4552 32.2924 27.4199C32.2478 27.3934 32.1985 27.3762 32.1475 27.3694L32.0963 27.3661H31.702L31.4816 27.3742C31.2627 27.3908 31.048 27.4324 30.8402 27.4974C30.8511 27.3945 30.8576 27.2904 30.8576 27.1849C30.8576 25.6496 29.6545 24.3919 28.1473 24.3149L28.0006 24.3115C26.4255 24.3115 25.1437 25.6007 25.1437 27.1849C25.1437 27.2904 25.1495 27.3945 25.1611 27.4974C24.9537 27.4324 24.7391 27.3908 24.52 27.3742L24.2993 27.3661H23.905L23.8525 27.3694C23.7326 27.3859 23.6264 27.4586 23.5673 27.5666L23.5097 27.6571C23.3621 27.8565 23.1282 27.9767 22.8772 27.9767L22.877 27.5665C22.9864 27.5665 23.0881 27.5187 23.1597 27.4399C23.0664 27.4489 22.9718 27.4543 22.8762 27.4543C22.781 27.4543 22.6865 27.4488 22.5935 27.4399C22.6651 27.5191 22.7674 27.5664 22.877 27.5665L22.8772 27.9767L22.7709 27.9696C22.5263 27.936 22.3087 27.7879 22.1871 27.5666C22.1537 27.5059 22.1048 27.4553 22.0454 27.4201C22.0009 27.3936 21.9517 27.3763 21.9007 27.3694L21.8495 27.3661H21.4552L21.3061 27.3702C19.7704 27.4486 18.5449 28.7295 18.5449 30.2932V31.5766C18.5449 31.6814 18.5873 31.7823 18.662 31.8554C19.4749 32.6478 21.0899 33.1401 22.8772 33.1401C22.9737 33.1401 23.0702 33.1381 23.1666 33.1349C23.1171 33.3626 23.0901 33.5994 23.0901 33.842V35.3136C23.0901 35.4184 23.1326 35.5193 23.2072 35.5924C24.0712 36.4347 25.7396 36.9778 27.6215 37.0425L28.0006 37.0492C29.9082 37.0491 31.642 36.5588 32.6107 35.7572L32.7941 35.5924C32.8313 35.5562 32.8608 35.5129 32.8809 35.465C32.901 35.4171 32.9113 35.3656 32.9112 35.3136V33.842ZM40.3079 35.0329C39.9965 35.0329 39.6948 35.1752 39.4986 35.4295L39.421 35.5457C39.1412 36.0322 39.3069 36.6596 39.794 36.9423C40.2818 37.226 40.9088 37.056 41.1891 36.5673C41.3251 36.3302 41.3608 36.0554 41.2913 35.7909C41.2207 35.5277 41.0534 35.3079 40.817 35.1707C40.6553 35.0771 40.4804 35.0329 40.3079 35.0329ZM15.6921 35.0329C15.5193 35.0329 15.3444 35.0774 15.1838 35.1707C14.6973 35.4532 14.5314 36.0799 14.8109 36.5673L14.8671 36.6554C15.1693 37.0755 15.7495 37.208 16.2068 36.9423C16.6931 36.6596 16.8585 36.033 16.579 35.5457C16.3905 35.219 16.0475 35.0329 15.6921 35.0329ZM31.7342 33.8421C31.7342 32.6803 30.7929 31.7292 29.6311 31.7292H29.5765C29.1763 32.17 28.6066 32.4303 28 32.4303C27.3934 32.4303 26.8237 32.17 26.4235 31.7292H26.3689C25.2077 31.7292 24.2658 32.6803 24.2658 33.8421V34.9391C25.0199 35.4812 26.4209 35.863 28 35.863L28 36.2729L27.6777 36.2676C26.0759 36.2167 24.6246 35.7892 23.8606 35.1415V33.842C23.8606 32.4512 24.9861 31.3191 26.3689 31.3191H26.6121C26.8957 31.7018 27.3242 31.9509 27.7957 32.0072L28 32.0197C28.5505 32.0197 29.0638 31.7564 29.3879 31.3191H29.6311L29.7602 31.3221C31.0838 31.3899 32.1394 32.4947 32.1394 33.842V35.1415C31.3245 35.8324 29.7275 36.2729 28 36.2729L28 35.863C29.5791 35.863 30.9801 35.4812 31.7342 34.9391V33.8421ZM14.1778 28.9102C14.1778 22.052 19.1797 16.2113 25.8724 15.1718C26.1015 16.0644 26.8732 16.7402 27.8108 16.8213L28.0006 16.8297C29.1364 16.8296 30.0741 15.9583 30.187 14.8454L30.1983 14.6193C30.1977 13.4779 29.331 12.5347 28.2241 12.4215L28 12.4103C26.8635 12.4103 25.9258 13.2822 25.8139 14.3962C18.7166 15.468 13.4054 21.6496 13.4054 28.9108L13.4133 29.395C13.4498 30.5233 13.6139 31.6407 13.9026 32.7229C13.9246 32.8054 13.973 32.8784 14.0405 32.9305C14.091 32.9695 14.1501 32.9952 14.2123 33.0056L14.2756 33.0107C14.292 33.0107 14.3087 33.0095 14.3255 33.0072L14.3759 32.9971C14.4003 32.9905 14.4241 32.9815 14.4466 32.9704L14.511 32.9301C14.531 32.9146 14.5496 32.8973 14.5662 32.8782L14.6102 32.8162C14.6229 32.7941 14.6333 32.7708 14.6414 32.7468L14.6585 32.6728C14.6651 32.6222 14.6618 32.5709 14.6486 32.5217C14.3752 31.4967 14.2199 30.4386 14.1853 29.3694L14.1778 28.9102ZM26.3702 30.5429C25.0974 30.5429 23.9925 31.2764 23.449 32.3451C23.2606 32.3574 23.0689 32.3638 22.8772 32.3638L22.877 31.9535C22.9864 31.9535 23.096 31.9498 23.2048 31.9455C23.8482 30.8612 25.0259 30.133 26.3705 30.133L26.3702 30.5429ZM29.6311 30.133C30.9755 30.133 32.1521 30.8615 32.796 31.9455C32.9049 31.9498 33.0142 31.9535 33.1238 31.9535L33.1241 32.3638C32.9324 32.3638 32.7414 32.3574 32.5529 32.3451C32.0429 31.3433 31.0399 30.6359 29.8679 30.5513L29.6311 30.5429L29.6311 30.133ZM36.2791 30.2941C36.2791 29.3367 35.5033 28.5529 34.5459 28.5529H34.5435C34.1774 28.9382 33.6665 29.1643 33.1238 29.1643C32.5813 29.1642 32.0709 28.938 31.7049 28.5529H31.7017C31.3987 28.5529 31.1073 28.6336 30.8458 28.7853C30.5228 29.366 30.0308 29.838 29.4355 30.133H29.6311L29.6311 30.5429H29.1789L29.1267 30.5465C29.0067 30.5629 28.9003 30.6353 28.8413 30.7434C28.6721 31.052 28.3499 31.2434 28.0006 31.2434L28.0008 30.8333C28.2032 30.8333 28.3896 30.7217 28.487 30.5441C28.5121 30.4981 28.5421 30.4559 28.5749 30.4167C28.3883 30.4502 28.1968 30.4695 28.0008 30.4696C27.8043 30.4696 27.6121 30.4504 27.4251 30.4167C27.4583 30.4563 27.4887 30.4983 27.5138 30.5441C27.6113 30.7218 27.7983 30.8333 28.0008 30.8333L28.0006 31.2434L27.8709 31.2348C27.5731 31.1938 27.308 31.0133 27.16 30.7434C27.1267 30.6826 27.0779 30.632 27.0185 30.5967C26.974 30.5703 26.9248 30.5534 26.8741 30.5465L26.8224 30.5429H26.3702L26.3705 30.133H26.5668C25.9709 29.8377 25.4776 29.3655 25.1542 28.7845C24.8929 28.6333 24.6012 28.5529 24.2991 28.5529H24.2967C23.9306 28.9382 23.4197 29.1643 22.877 29.1643C22.3345 29.1642 21.8242 28.938 21.4581 28.5529H21.4549C20.4971 28.553 19.7224 29.3373 19.7224 30.2941V31.1971C20.3684 31.6391 21.5444 31.9535 22.877 31.9535L22.8772 32.3638C21.3941 32.3638 20.0235 31.9906 19.3167 31.4039V30.2938C19.3167 29.1081 20.2756 28.143 21.4552 28.143H21.6424C21.8985 28.477 22.2787 28.6938 22.6965 28.7428L22.8772 28.7536C23.3647 28.7536 23.8195 28.5246 24.1121 28.143H24.2993C24.7122 28.143 25.1096 28.2633 25.4557 28.489C25.8995 29.3618 26.7736 29.9785 27.7949 30.0521L28.0006 30.0597C29.1101 30.0597 30.0729 29.4205 30.5456 28.489C30.8916 28.2633 31.2885 28.143 31.702 28.143H31.8892C32.1453 28.477 32.5255 28.6938 32.9433 28.7428L33.1241 28.7536C33.6116 28.7536 34.0663 28.5246 34.3589 28.143H34.5461C35.725 28.143 36.6846 29.1075 36.6846 30.2938V31.4039C35.9778 31.9906 34.6072 32.3638 33.1241 32.3638L33.1238 31.9535C34.4569 31.9535 35.6333 31.6385 36.2791 31.1963V30.2941ZM29.6794 27.1859C29.6794 26.2582 28.9284 25.4984 28 25.4984C27.0716 25.4984 26.3206 26.2582 26.3206 27.1859C26.3207 28.1134 27.0717 28.8726 28 28.8726L28 29.2828L27.787 29.2716C26.8068 29.1712 26.0253 28.3857 25.9255 27.3998L25.9149 27.1856C25.9149 26.029 26.85 25.0884 28 25.0884L28.213 25.0994C29.2632 25.207 30.0851 26.1013 30.0851 27.1856L30.0745 27.3998C29.9675 28.4562 29.0781 29.2828 28 29.2828L28 28.8726C28.9283 28.8726 29.6793 28.1134 29.6794 27.1859ZM24.7655 26.7612C24.6799 26.8334 24.5905 26.901 24.497 26.9631C24.58 26.9681 24.6623 26.9761 24.7441 26.9872C24.7486 26.9111 24.7559 26.8358 24.7655 26.7612ZM31.2345 26.762C31.2441 26.8364 31.2522 26.9113 31.2567 26.9872C31.338 26.9761 31.4198 26.9681 31.5022 26.9631C31.4091 26.9012 31.3198 26.8339 31.2345 26.762ZM24.2397 24.488C24.2396 23.7358 23.6302 23.1187 22.8762 23.1186C22.1221 23.1186 21.512 23.7357 21.5119 24.488C21.5119 25.2403 22.1221 25.8574 22.8762 25.8574L22.8759 26.2677L22.6949 26.2588C21.8039 26.1674 21.1066 25.408 21.1066 24.4881C21.1066 23.5068 21.9003 22.7085 22.8759 22.7085L23.0567 22.7179C23.9478 22.8093 24.6452 23.5682 24.6453 24.4881C24.6453 25.4694 23.8516 26.2677 22.8759 26.2677L22.8762 25.8574C23.6302 25.8572 24.2397 25.2403 24.2397 24.488ZM34.4881 24.488C34.488 23.7357 33.8779 23.1186 33.1238 23.1186C32.3698 23.1187 31.7604 23.7358 31.7603 24.488C31.7603 25.2403 32.3698 25.8572 33.1238 25.8574L33.1241 26.2677C32.2095 26.2675 31.4544 25.566 31.3636 24.6699L31.3547 24.4881C31.3547 23.5068 32.1484 22.7085 33.1241 22.7085C34.0997 22.7085 34.8934 23.5068 34.8934 24.4881L34.884 24.6699C34.7932 25.5661 34.0387 26.2677 33.1241 26.2677L33.1238 25.8574C33.8779 25.8574 34.4881 25.2403 34.4881 24.488ZM29.0206 14.621C29.0206 14.0595 28.5644 13.597 28 13.597C27.4355 13.597 26.9794 14.0589 26.9794 14.621C26.9796 15.1829 27.4356 15.6442 28 15.6442L28 16.0548L27.8543 16.0473C27.1843 15.9786 26.6501 15.4412 26.5819 14.7668L26.5741 14.6206C26.5741 13.8295 27.2141 13.1865 28 13.1865L28.1457 13.1939C28.8635 13.2676 29.4259 13.8796 29.4259 14.6206L29.4181 14.7668C29.345 15.4889 28.7369 16.0548 28 16.0548L28 15.6442C28.5643 15.6442 29.0204 15.1824 29.0206 14.621ZM25.4171 24.4881C25.417 23.1228 24.3476 22.0046 23.0069 21.9359L22.8759 21.9323C21.4745 21.9323 20.3348 23.0786 20.3348 24.4881C20.3348 25.8537 21.4045 26.9724 22.7456 27.0409L22.8759 27.0439C24.2335 27.0438 25.3458 25.9681 25.414 24.6194L25.4171 24.4881ZM43 28.9111C43 30.7119 42.6879 32.4672 42.0744 34.137C42.3767 34.4186 42.6093 34.7663 42.7514 35.1595L42.8195 35.3758L42.8503 35.5032C42.9877 36.1408 42.8846 36.7987 42.559 37.3662C42.0764 38.2072 41.199 38.6755 40.3015 38.6755C39.86 38.6754 39.4132 38.5626 39.0045 38.3253C37.7611 37.6033 37.3319 35.9977 38.0512 34.7444C38.592 33.8024 39.6279 33.3291 40.6357 33.4575C41.1541 32.0039 41.4171 30.4781 41.4172 28.9111C41.4172 22.9956 37.5762 17.7771 32.0065 16.0296L31.4626 15.8718C31.041 15.759 30.7883 15.3216 30.9012 14.8942C31.0073 14.4929 31.3963 14.2486 31.7896 14.3117L31.8688 14.3285C38.4217 16.0836 43 22.079 43 28.9111ZM35.6652 24.4881C35.6652 23.0786 34.5249 21.9323 33.1241 21.9323C31.7226 21.9323 30.5829 23.0786 30.5829 24.4881C30.5829 25.8535 31.6523 26.9721 32.9931 27.0409L33.1241 27.0439C34.4817 27.0439 35.5934 25.9681 35.6615 24.6194L35.6652 24.4881ZM36.0709 24.488C36.0709 25.5216 35.5433 26.4306 34.747 26.9615C36.4803 27.0663 37.862 28.5184 37.862 30.2933V31.5753L37.858 31.6554C37.8502 31.7355 37.8306 31.8143 37.7994 31.8886C37.7579 31.9875 37.6969 32.077 37.6205 32.1514L37.6197 32.1506C36.7273 33.0201 35.0697 33.5159 33.3027 33.5473C33.3105 33.6445 33.3162 33.7429 33.3162 33.8421V35.3125L33.313 35.3926C33.3052 35.4727 33.2856 35.5515 33.2544 35.6258C33.213 35.7245 33.1518 35.8135 33.0755 35.8878C32.0443 36.8931 30.0812 37.4591 28.0008 37.4591C25.9204 37.4591 23.9574 36.8931 22.9261 35.8878L22.9253 35.887C22.7723 35.7371 22.6846 35.5299 22.6846 35.3133V33.8421C22.6846 33.7429 22.6895 33.6445 22.6973 33.5473C20.9306 33.5156 19.2724 33.0202 18.3803 32.1506C18.2274 32.0008 18.1397 31.7934 18.1396 31.5769V30.2933C18.1396 28.5191 19.5199 27.0682 21.2522 26.9623C20.456 26.4314 19.9291 25.5215 19.9291 24.488C19.9292 22.8495 21.2533 21.5216 22.8762 21.5216C24.499 21.5218 25.8225 22.8496 25.8225 24.488C25.8225 24.5774 25.8176 24.6658 25.8099 24.7532C26.3896 24.2237 27.1591 23.9014 28.0008 23.9014C28.8415 23.9015 29.6098 24.2232 30.1893 24.7516C30.1817 24.6648 30.1775 24.5768 30.1775 24.488C30.1775 22.8496 31.501 21.5218 33.1238 21.5216C34.746 21.5216 36.0708 22.8495 36.0709 24.488ZM30.6035 14.6194C30.6034 16.067 29.434 17.2395 28.0008 17.2396C26.923 17.2396 25.9971 16.5764 25.6024 15.633C19.2727 16.7804 14.5836 22.3702 14.5836 28.9103C14.5836 30.0997 14.7365 31.2789 15.0397 32.4151C15.0667 32.5165 15.0739 32.6226 15.0603 32.7268C15.0466 32.8309 15.0126 32.9316 14.9605 33.0224C14.9084 33.1132 14.8394 33.1928 14.757 33.2564C14.6952 33.3041 14.6268 33.3419 14.5543 33.3694L14.4807 33.3934C14.4474 33.4024 14.4135 33.4096 14.3793 33.4143L14.2756 33.4207C14.102 33.4207 13.9332 33.3631 13.795 33.2564C13.6568 33.1498 13.5569 33.0002 13.5115 32.8301L13.3919 32.351C13.1317 31.2282 13 30.0733 13 28.9111C13 21.5441 18.3157 15.2609 25.4638 14.0369C25.7283 12.8702 26.7652 12 28 12C29.4332 12 30.6027 13.1731 30.6035 14.6194Z" fill="#366159"/>
</svg>
