<svg width="56" height="56" viewBox="0 0 56 56" fill="none" xmlns="http://www.w3.org/2000/svg">
<circle cx="28" cy="28" r="28" fill="#F0FDFA"/>
<path d="M25.7798 41.0565H17.6185C16.9187 41.0559 16.2478 40.783 15.7529 40.2977C15.258 39.8123 14.9796 39.1542 14.9787 38.4676V19.9162C14.9787 18.4885 16.1633 17.3263 17.6185 17.3263H19.6082C19.5818 17.8119 19.7006 18.2996 19.9866 18.714C20.1973 19.0197 20.4814 19.27 20.8137 19.4429C21.146 19.6158 21.5165 19.7061 21.8927 19.7058H29.9946C30.759 19.7058 31.4718 19.3345 31.9007 18.714C32.1867 18.2996 32.3055 17.8119 32.2791 17.3263H34.2721C35.7284 17.3263 36.9119 18.4885 36.9119 19.9162V26.3047C36.9119 26.5623 37.0162 26.8093 37.2018 26.9914C37.3875 27.1736 37.6392 27.2759 37.9018 27.2759C38.1643 27.2759 38.4161 27.1736 38.6018 26.9914C38.7874 26.8093 38.8917 26.5623 38.8917 26.3047V19.9162C38.8917 17.4169 36.8195 15.3838 34.2721 15.3838H31.6356L31.2441 14.4212C31.0745 14.001 30.7798 13.6406 30.3984 13.387C30.017 13.1335 29.5666 12.9986 29.1059 13H22.7825C21.8344 13 20.9952 13.559 20.6443 14.4223L20.2517 15.3849H17.6196C16.3948 15.3863 15.2207 15.8643 14.3547 16.714C13.4886 17.5637 13.0015 18.7157 13 19.9173V38.4676C13 40.9658 15.0722 43 17.6196 43H25.7809C26.0436 42.9999 26.2954 42.8973 26.4811 42.715C26.6667 42.5327 26.7709 42.2854 26.7708 42.0277C26.7706 41.77 26.6661 41.5229 26.4803 41.3407C26.2944 41.1586 26.0424 41.0563 25.7798 41.0565ZM21.5924 17.3284L22.4823 15.1421C22.506 15.0833 22.5473 15.0328 22.6006 14.9972C22.6539 14.9616 22.7169 14.9425 22.7814 14.9425H29.1048C29.1694 14.9421 29.2326 14.961 29.286 14.9966C29.3394 15.0323 29.3805 15.083 29.4039 15.1421L30.2938 17.3284C30.314 17.3765 30.3216 17.4287 30.3158 17.4804C30.31 17.5321 30.2911 17.5815 30.2608 17.6241C30.2318 17.6676 30.1921 17.7031 30.1454 17.7275C30.0986 17.7518 30.0464 17.7641 29.9935 17.7633H21.8916C21.8387 17.7639 21.7866 17.7515 21.7399 17.7272C21.6932 17.7029 21.6534 17.6674 21.6243 17.6241C21.5944 17.5813 21.5759 17.5318 21.5703 17.4802C21.5647 17.4286 21.5723 17.3764 21.5924 17.3284Z" fill="#366159"/>
<path d="M33.1139 27.4389C33.1139 27.1813 33.0096 26.9342 32.824 26.7521C32.6383 26.57 32.3865 26.4676 32.124 26.4676H24.7316C24.469 26.4676 24.2172 26.57 24.0316 26.7521C23.8459 26.9342 23.7416 27.1813 23.7416 27.4389C23.7416 27.6964 23.8459 27.9435 24.0316 28.1256C24.2172 28.3078 24.469 28.4101 24.7316 28.4101H32.124C32.6717 28.4101 33.1139 27.9763 33.1139 27.4389ZM20.7642 26.4687H19.7622C19.4997 26.4687 19.2479 26.571 19.0622 26.7532C18.8766 26.9353 18.7723 27.1823 18.7723 27.4399C18.7723 27.6975 18.8766 27.9446 19.0622 28.1267C19.2479 28.3088 19.4997 28.4112 19.7622 28.4112H20.7653C21.0279 28.411 21.2796 28.3086 21.4651 28.1263C21.6507 27.9441 21.7548 27.697 21.7547 27.4394C21.7545 27.1818 21.6501 26.9348 21.4643 26.7528C21.2786 26.5708 21.0267 26.4686 20.7642 26.4687ZM24.7349 32.3586C24.4723 32.3586 24.2205 32.461 24.0349 32.6431C23.8492 32.8252 23.7449 33.0723 23.7449 33.3299C23.7449 33.5874 23.8492 33.8345 24.0349 34.0166C24.2205 34.1988 24.4723 34.3011 24.7349 34.3011H29.6294C29.892 34.3011 30.1437 34.1988 30.3294 34.0166C30.515 33.8345 30.6193 33.5874 30.6193 33.3299C30.6193 33.0723 30.515 32.8252 30.3294 32.6431C30.1437 32.461 29.892 32.3586 29.6294 32.3586H24.7349ZM20.7642 32.3597H19.7622C19.4997 32.3597 19.2479 32.462 19.0622 32.6442C18.8766 32.8263 18.7723 33.0734 18.7723 33.3309C18.7723 33.5885 18.8766 33.8356 19.0622 34.0177C19.2479 34.1998 19.4997 34.3022 19.7622 34.3022H20.7653C20.8953 34.3021 21.024 34.2769 21.1441 34.228C21.2642 34.1792 21.3733 34.1076 21.4651 34.0173C21.557 33.9271 21.6298 33.82 21.6795 33.7021C21.7292 33.5842 21.7547 33.4579 21.7547 33.3304C21.7546 33.2029 21.7289 33.0766 21.6791 32.9588C21.6293 32.841 21.5563 32.7339 21.4643 32.6438C21.3724 32.5537 21.2632 32.4822 21.1431 32.4334C21.0229 32.3847 20.8942 32.3596 20.7642 32.3597ZM42.0627 30.3061C40.8528 29.1191 38.7421 29.1191 37.5322 30.3061L30.0573 37.6399C29.7954 37.8961 29.622 38.2263 29.5612 38.5842L29.151 40.9615C29.1041 41.2366 29.1249 41.5186 29.2115 41.7842C29.2982 42.0498 29.4483 42.2913 29.6492 42.4885C29.8504 42.6846 30.0963 42.8309 30.3665 42.9154C30.6368 42.9998 30.9236 43.0199 31.2034 42.9741L33.6243 42.5727C33.9927 42.5122 34.326 42.3439 34.5878 42.086L42.0627 34.7522C42.6629 34.1622 43 33.3627 43 32.5291C43 31.6956 42.6629 30.8961 42.0627 30.3061ZM33.2338 40.6658L31.1517 41.0112L31.5026 38.9683L36.7117 33.8576L38.4418 35.555L33.2338 40.6658ZM40.6636 33.3763L39.8431 34.1813L38.113 32.4838L38.9335 31.6788C39.1661 31.4599 39.476 31.3375 39.7983 31.3373C40.1207 31.3371 40.4307 31.4591 40.6636 31.6777C41.1399 32.1471 41.1399 32.909 40.6636 33.3763Z" fill="#366159"/>
</svg>
