<svg width="56" height="56" viewBox="0 0 56 56" fill="none" xmlns="http://www.w3.org/2000/svg">
<circle cx="28" cy="28" r="28" fill="#F0FDFA"/>
<path d="M44 31.917V32.917C44.3916 32.917 44.7472 32.6884 44.9097 32.3322C45.0723 31.9759 45.012 31.5575 44.7554 31.2617L44 31.917ZM41.2871 28.7896L40.5596 28.1035C40.2072 28.4772 40.1952 29.057 40.5317 29.4449L41.2871 28.7896ZM30.2168 18.9409C30.2168 19.4932 30.6645 19.9409 31.2168 19.9409C31.7691 19.9409 32.2168 19.4932 32.2168 18.9409H31.2168H30.2168ZM31.244 18.5469L30.2536 18.4087L30.2536 18.4091L31.244 18.5469ZM34.0998 16.1168L34.1199 15.117L34.1199 15.117L34.0998 16.1168ZM36.8623 18.7906L35.8637 18.8425L35.8637 18.8425L36.8623 18.7906ZM34.0415 21.7656V20.7656C33.4892 20.7656 33.0415 21.2134 33.0415 21.7656H34.0415ZM33.0415 24.7194C33.0415 25.2717 33.4892 25.7194 34.0415 25.7194C34.5938 25.7194 35.0415 25.2717 35.0415 24.7194H34.0415H33.0415ZM24.3801 24.3801L25.3503 24.1377C25.2608 23.7793 24.9809 23.4994 24.6224 23.4099L24.3801 24.3801ZM21.9585 24.083V25.083H21.959L21.9585 24.083ZM14.713 40.8726L15.4683 41.5279C15.8049 41.14 15.7928 40.5601 15.4404 40.1865L14.713 40.8726ZM12 44L11.2446 43.3447C10.988 43.6405 10.9277 44.0589 11.0903 44.4152C11.2528 44.7714 11.6084 45 12 45V44ZM31.6199 31.6199L32.5901 31.3775C32.5005 31.0191 32.2207 30.7393 31.8623 30.6497L31.6199 31.6199ZM18.639 31.0498C18.0867 31.0498 17.639 31.4975 17.639 32.0498C17.639 32.6021 18.0867 33.0498 18.639 33.0498V32.0498V31.0498ZM25.278 33.0498C25.8303 33.0498 26.278 32.6021 26.278 32.0498C26.278 31.4975 25.8303 31.0498 25.278 31.0498V32.0498V33.0498ZM18.639 35.0332C18.0867 35.0332 17.639 35.4809 17.639 36.0332C17.639 36.5855 18.0867 37.0332 18.639 37.0332V36.0332V35.0332ZM25.278 37.0332C25.8303 37.0332 26.278 36.5855 26.278 36.0332C26.278 35.4809 25.8303 35.0332 25.278 35.0332V36.0332V37.0332ZM44 21.9585H45C45 15.9063 40.0937 11 34.0415 11V12V13C38.9892 13 43 17.0108 43 21.9585H44ZM34.0415 12V11C27.9893 11 23.083 15.9063 23.083 21.9585H24.083H25.083C25.083 17.0108 29.0938 13 34.0415 13V12ZM24.083 21.9585H23.083C23.083 28.0107 27.9893 32.917 34.0415 32.917V31.917V30.917C29.0938 30.917 25.083 26.9062 25.083 21.9585H24.083ZM34.0415 31.917V32.917H44V31.917V30.917H34.0415V31.917ZM44 31.917L44.7554 31.2617L42.0425 28.1344L41.2871 28.7896L40.5317 29.4449L43.2446 32.5723L44 31.917ZM41.2871 28.7896L42.0146 29.4758C43.8643 27.5145 45 24.8682 45 21.9585H44H43C43 24.3378 42.0734 26.4984 40.5596 28.1035L41.2871 28.7896ZM33.0456 27.7344H32.0456C32.0456 28.8367 32.9392 29.7303 34.0415 29.7303V28.7303V27.7303C34.0405 27.7303 34.0405 27.7302 34.0413 27.7304C34.042 27.7305 34.0428 27.7307 34.0434 27.731C34.0447 27.7315 34.0448 27.7319 34.0444 27.7315C34.0441 27.7311 34.0444 27.7313 34.0449 27.7325C34.0452 27.7332 34.0454 27.7339 34.0456 27.7346C34.0457 27.7354 34.0456 27.7355 34.0456 27.7344H33.0456ZM34.0415 28.7303V29.7303C35.1438 29.7303 36.0373 28.8367 36.0373 27.7344H35.0373H34.0373C34.0373 27.7355 34.0373 27.7354 34.0374 27.7346C34.0376 27.7339 34.0378 27.7332 34.0381 27.7325C34.0386 27.7313 34.0389 27.7311 34.0385 27.7315C34.0382 27.7319 34.0383 27.7315 34.0395 27.731C34.0402 27.7307 34.041 27.7305 34.0417 27.7304C34.0425 27.7302 34.0425 27.7303 34.0415 27.7303V28.7303ZM35.0373 27.7344H36.0373C36.0373 26.6322 35.1438 25.7386 34.0415 25.7386V26.7386V27.7386C34.0425 27.7386 34.0425 27.7387 34.0417 27.7385C34.041 27.7384 34.0402 27.7381 34.0396 27.7378C34.0383 27.7373 34.0382 27.737 34.0385 27.7374C34.0389 27.7377 34.0386 27.7376 34.0381 27.7364C34.0378 27.7357 34.0376 27.7349 34.0374 27.7342C34.0373 27.7335 34.0373 27.7334 34.0373 27.7344H35.0373ZM34.0415 26.7386V25.7386C32.9392 25.7386 32.0456 26.6322 32.0456 27.7344H33.0456H34.0456C34.0456 27.7334 34.0457 27.7335 34.0456 27.7342C34.0454 27.7349 34.0452 27.7357 34.0449 27.7364C34.0444 27.7376 34.0441 27.7377 34.0444 27.7374C34.0448 27.737 34.0447 27.7373 34.0434 27.7379C34.0428 27.7381 34.042 27.7384 34.0413 27.7385C34.0405 27.7387 34.0405 27.7386 34.0415 27.7386V26.7386ZM31.2168 18.9409H32.2168C32.2168 18.8536 32.2229 18.7682 32.2345 18.6848L31.244 18.5469L30.2536 18.4091C30.2293 18.5832 30.2168 18.7607 30.2168 18.9409H31.2168ZM31.244 18.5469L32.2344 18.6852C32.3598 17.7867 33.1417 17.0977 34.0797 17.1166L34.0998 16.1168L34.1199 15.117C32.1531 15.0774 30.5169 16.5228 30.2536 18.4087L31.244 18.5469ZM34.0998 16.1168L34.0796 17.1166C35.0258 17.1356 35.8148 17.8997 35.8637 18.8425L36.8623 18.7906L37.861 18.7388C37.7576 16.7464 36.1123 15.1571 34.1199 15.117L34.0998 16.1168ZM36.8623 18.7906L35.8637 18.8425C35.9183 19.8943 35.0814 20.7656 34.0415 20.7656V21.7656V22.7656C36.2214 22.7656 37.9753 20.9396 37.861 18.7388L36.8623 18.7906ZM34.0415 21.7656H33.0415V24.7194H34.0415H35.0415V21.7656H34.0415ZM24.3801 24.3801L24.6224 23.4099C23.751 23.1924 22.8562 23.0826 21.958 23.083L21.9585 24.083L21.959 25.083C22.6935 25.0826 23.4253 25.1724 24.1379 25.3504L24.3801 24.3801ZM21.9585 24.083V23.083C15.9063 23.083 11 27.9893 11 34.0415H12H13C13 29.0939 17.0109 25.083 21.9585 25.083V24.083ZM12 34.0415H11C11 36.9512 12.1358 39.5976 13.9855 41.5588L14.713 40.8726L15.4404 40.1865C13.9267 38.5815 13 36.4208 13 34.0415H12ZM14.713 40.8726L13.9576 40.2173L11.2446 43.3447L12 44L12.7554 44.6553L15.4683 41.5279L14.713 40.8726ZM12 44V45H21.9585V44V43H12V44ZM21.9585 44V45C28.0107 45 32.917 40.0937 32.917 34.0415H31.917H30.917C30.917 38.9892 26.9062 43 21.9585 43V44ZM31.917 34.0415H32.917C32.917 33.1233 32.8034 32.231 32.5901 31.3775L31.6199 31.6199L30.6497 31.8623C30.8239 32.5594 30.917 33.289 30.917 34.0415H31.917ZM31.6199 31.6199L31.8623 30.6497C28.6665 29.8513 26.1488 27.3336 25.3503 24.1377L24.3801 24.3801L23.41 24.6225C24.3876 28.5352 27.4649 31.6125 31.3775 32.5901L31.6199 31.6199ZM18.639 32.0498V33.0498H25.278V32.0498V31.0498H18.639V32.0498ZM18.639 36.0332V37.0332H25.278V36.0332V35.0332H18.639V36.0332Z" fill="#366159"/>
</svg>
