<svg width="56" height="56" viewBox="0 0 56 56" fill="none" xmlns="http://www.w3.org/2000/svg">
<circle cx="28" cy="28" r="28" fill="#F0FDFA"/>
<path d="M19.4647 45H11V34.4191C11 32.0816 12.8949 30.1867 15.2324 30.1867C17.5698 30.1867 19.4647 32.0816 19.4647 34.4191V36.5353L23.6971 36.5353C24.8658 36.5353 25.8133 37.4828 25.8133 38.6515C25.8133 39.8201 24.8658 40.7676 23.6971 40.7676L18.0539 40.7676M18.0539 40.7676V45H37.9461V40.7676M18.0539 40.7676H37.9461M18.0539 40.7676C16.4956 40.7676 15.2324 39.5044 15.2324 37.9461V36.5353M37.9461 40.7676L32.3029 40.7676C31.1342 40.7676 30.1867 39.8201 30.1867 38.6515C30.1867 37.4828 31.1342 36.5353 32.3029 36.5353L36.5353 36.5353V34.4191C36.5353 32.0816 38.4302 30.1867 40.7676 30.1867C43.1051 30.1867 45 32.0816 45 34.4191V45H36.5353M37.9461 40.7676C39.5044 40.7676 40.7676 39.5044 40.7676 37.9461V36.5353M25.1784 15.2324H30.8216M20.5228 26.3071C20.5228 28.4498 18.7859 30.1867 16.6432 30.1867C14.5004 30.1867 12.7635 28.4498 12.7635 26.3071C12.7635 24.1643 14.5004 22.4274 16.6432 22.4274C18.7859 22.4274 20.5228 24.1643 20.5228 26.3071ZM35.4772 26.3071C35.4772 28.4498 37.2141 30.1867 39.3568 30.1867C41.4996 30.1867 43.2365 28.4498 43.2365 26.3071C43.2365 24.1643 41.4996 22.4274 39.3568 22.4274C37.2141 22.4274 35.4772 24.1643 35.4772 26.3071ZM20.9461 12.4108V18.0539C20.9461 18.8331 21.5777 19.4647 22.3568 19.4647H23.7676V22.2863L27.2946 19.4647H28.7054L32.2324 22.2863V19.4647H33.6432C34.4223 19.4647 35.0539 18.8331 35.0539 18.0539V12.4108C35.0539 11.6316 34.4223 11 33.6432 11H22.3568C21.5777 11 20.9461 11.6316 20.9461 12.4108Z" stroke="#366159" stroke-width="2" stroke-miterlimit="10" stroke-linecap="round" stroke-linejoin="round"/>
</svg>
