<svg width="56" height="56" viewBox="0 0 56 56" fill="none" xmlns="http://www.w3.org/2000/svg">
<circle cx="28" cy="28" r="28" fill="#F0FDFA"/>
<path d="M34.0465 41H17.1163C16.5552 40.9993 16.0173 40.7762 15.6206 40.3794C15.2238 39.9827 15.0006 39.4448 15 38.8837V17.1163C15.0006 16.5552 15.2238 16.0173 15.6206 15.6205C16.0173 15.2238 16.5552 15.0006 17.1163 15H34.0465C34.6076 15.0006 35.1455 15.2238 35.5422 15.6205C35.939 16.0173 36.1621 16.5552 36.1628 17.1163V30.4186C36.1628 30.6591 36.0672 30.8898 35.8971 31.0599C35.7271 31.23 35.4964 31.3256 35.2558 31.3256C35.0153 31.3256 34.7846 31.23 34.6145 31.0599C34.4444 30.8898 34.3488 30.6591 34.3488 30.4186V17.1163C34.3479 17.0364 34.3157 16.96 34.2592 16.9035C34.2028 16.847 34.1264 16.8149 34.0465 16.814H17.1163C17.0364 16.8149 16.96 16.847 16.9035 16.9035C16.847 16.96 16.8149 17.0364 16.814 17.1163V38.8837C16.8149 38.9636 16.847 39.0399 16.9035 39.0964C16.96 39.1529 17.0364 39.1851 17.1163 39.186H34.0465C34.2738 39.0959 34.5272 39.0979 34.753 39.1916C34.9787 39.2853 35.1591 39.4633 35.2558 39.6879C35.3029 39.796 35.3279 39.9123 35.3295 40.0302C35.3311 40.1481 35.3091 40.2651 35.265 40.3744C35.2209 40.4837 35.1554 40.5831 35.0725 40.6669C34.9895 40.7506 34.8907 40.817 34.7818 40.8621C34.5478 40.9547 34.2982 41.0015 34.0465 41Z" fill="#366159"/>
<path d="M31.0233 21.6512H20.1395C19.899 21.6512 19.6683 21.5556 19.4982 21.3855C19.3281 21.2154 19.2326 20.9847 19.2326 20.7442C19.2326 20.5036 19.3281 20.2729 19.4982 20.1028C19.6683 19.9328 19.899 19.8372 20.1395 19.8372H31.0233C31.2638 19.8372 31.4945 19.9328 31.6646 20.1028C31.8347 20.2729 31.9302 20.5036 31.9302 20.7442C31.9302 20.9847 31.8347 21.2154 31.6646 21.3855C31.4945 21.5556 31.2638 21.6512 31.0233 21.6512ZM31.0233 26.4884H20.1395C19.899 26.4884 19.6683 26.3928 19.4982 26.2227C19.3281 26.0526 19.2326 25.8219 19.2326 25.5814C19.2326 25.3408 19.3281 25.1101 19.4982 24.9401C19.6683 24.77 19.899 24.6744 20.1395 24.6744H31.0233C31.2638 24.6744 31.4945 24.77 31.6646 24.9401C31.8347 25.1101 31.9302 25.3408 31.9302 25.5814C31.9302 25.8219 31.8347 26.0526 31.6646 26.2227C31.4945 26.3928 31.2638 26.4884 31.0233 26.4884ZM28 31.3256H20.1395C19.899 31.3256 19.6683 31.23 19.4982 31.0599C19.3281 30.8898 19.2326 30.6591 19.2326 30.4186C19.2326 30.178 19.3281 29.9473 19.4982 29.7773C19.6683 29.6072 19.899 29.5116 20.1395 29.5116H28C28.2405 29.5116 28.4712 29.6072 28.6413 29.7773C28.8114 29.9473 28.907 30.178 28.907 30.4186C28.907 30.6591 28.8114 30.8898 28.6413 31.0599C28.4712 31.23 28.2405 31.3256 28 31.3256ZM26.7907 36.1628H20.1395C19.899 36.1628 19.6683 36.0672 19.4982 35.8971C19.3281 35.727 19.2326 35.4963 19.2326 35.2558C19.2326 35.0152 19.3281 34.7845 19.4982 34.6145C19.6683 34.4444 19.899 34.3488 20.1395 34.3488H26.7907C27.0312 34.3488 27.2619 34.4444 27.432 34.6145C27.6021 34.7845 27.6977 35.0152 27.6977 35.2558C27.6977 35.4963 27.6021 35.727 27.432 35.8971C27.2619 36.0672 27.0312 36.1628 26.7907 36.1628ZM35.2558 41C34.1197 41 33.0091 40.6631 32.0645 40.0319C31.1199 39.4007 30.3836 38.5036 29.9489 37.454C29.5141 36.4044 29.4004 35.2494 29.622 34.1352C29.8436 33.0209 30.3907 31.9974 31.1941 31.194C31.9974 30.3907 33.0209 29.8436 34.1352 29.622C35.2494 29.4003 36.4044 29.5141 37.454 29.9489C38.5036 30.3836 39.4007 31.1199 40.0319 32.0645C40.6631 33.0091 41 34.1197 41 35.2558C40.9984 36.7787 40.3927 38.2389 39.3158 39.3158C38.2389 40.3927 36.7788 40.9984 35.2558 41ZM35.2558 31.3256C34.4785 31.3256 33.7186 31.5561 33.0723 31.9879C32.426 32.4198 31.9222 33.0336 31.6248 33.7518C31.3273 34.4699 31.2494 35.2601 31.4011 36.0225C31.5527 36.7849 31.9271 37.4852 32.4767 38.0349C33.0264 38.5845 33.7267 38.9588 34.4891 39.1105C35.2515 39.2621 36.0417 39.1843 36.7598 38.8868C37.478 38.5894 38.0918 38.0856 38.5237 37.4393C38.9555 36.793 39.186 36.0331 39.186 35.2558C39.1848 34.2138 38.7703 33.2149 38.0335 32.4781C37.2967 31.7413 36.2978 31.3268 35.2558 31.3256Z" fill="#366159"/>
<path d="M34.6512 37.3721C34.5321 37.3721 34.4142 37.3486 34.3042 37.3029C34.1942 37.2573 34.0943 37.1904 34.0102 37.106L32.8009 35.8967C32.7118 35.8137 32.6403 35.7136 32.5908 35.6023C32.5412 35.491 32.5145 35.3709 32.5124 35.2492C32.5103 35.1274 32.5327 35.0064 32.5783 34.8935C32.6239 34.7805 32.6918 34.678 32.7779 34.5918C32.864 34.5057 32.9666 34.4378 33.0796 34.3922C33.1925 34.3466 33.3135 34.3242 33.4352 34.3263C33.557 34.3285 33.6771 34.3551 33.7884 34.4047C33.8996 34.4543 33.9998 34.5257 34.0828 34.6149L34.6512 35.1832L36.4288 33.4056C36.6008 33.2453 36.8282 33.1581 37.0631 33.1623C37.2981 33.1664 37.5223 33.2616 37.6885 33.4278C37.8546 33.594 37.9498 33.8181 37.954 34.0531C37.9581 34.2881 37.8709 34.5155 37.7107 34.6874L35.2921 37.106C35.208 37.1904 35.1081 37.2573 34.9982 37.3029C34.8882 37.3486 34.7702 37.3721 34.6512 37.3721Z" fill="#366159"/>
</svg>
