<svg width="56" height="56" viewBox="0 0 56 56" fill="none" xmlns="http://www.w3.org/2000/svg">
<circle cx="28" cy="28" r="28" fill="#F0FDFA"/>
<path d="M38 38H42C42.5523 38 43 37.5523 43 37V14C43 13.4477 42.5523 13 42 13H14C13.4477 13 13 13.4477 13 14V37C13 37.5523 13.4477 38 14 38H32M32 34.6445V43L35 41.5L38 43V34.6445M22 19H34.0001M19 24H36.9999M19 28H27M19 32H27M35 28C37.2075 28 39 29.7925 39 32C39 34.2075 37.2075 36 35 36C32.7925 36 31 34.2075 31 32C31 29.7925 32.7925 28 35 28Z" stroke="#366159" stroke-width="2" stroke-miterlimit="10" stroke-linecap="round" stroke-linejoin="round"/>
</svg>
