<svg width="56" height="56" viewBox="0 0 56 56" fill="none" xmlns="http://www.w3.org/2000/svg">
<circle cx="28" cy="28" r="28" fill="#F0FDFA"/>
<path d="M37.5153 36.4097C37.4732 35.9345 37.618 35.4613 37.9213 35.0827C42.7438 29.078 44.2449 22.4031 41.9378 17.2269C40.0689 13.0343 35.2767 10.1321 30.0124 10.0053C25.8429 9.90035 21.8064 11.3018 18.9551 13.8401C16.59 15.9453 14.3714 19.7934 15.0892 23.2679C15.1591 23.5731 15.2469 23.8742 15.3522 24.1699C15.5884 24.877 15.8117 25.5449 15.4999 26.0509C15.4957 26.0574 15.4957 26.0571 13.5448 29.3185C13.1749 29.7701 12.9825 30.3316 13.0012 30.905C13.1012 32.1701 14.3132 32.4305 15.0374 32.5861C15.1227 32.6043 15.2063 32.6223 15.2875 32.6412C15.365 32.6573 15.441 32.6797 15.5146 32.7081C15.5363 33.0278 15.4944 33.3484 15.391 33.6531C15.3328 33.8202 15.0733 34.6707 15.6843 35.0476C15.6989 35.0571 15.7142 35.0656 15.7302 35.0729C15.8881 35.1589 15.9282 35.3193 15.8505 35.5488C15.7618 35.7231 15.7142 35.914 15.7109 36.1078C15.7077 36.3017 15.7489 36.4939 15.8317 36.6709C15.894 36.7736 15.9785 36.8623 16.0796 36.9313C16.1806 37.0003 16.2959 37.0478 16.4176 37.0709C16.4812 37.1058 16.5903 37.182 16.57 37.2844C16.1247 38.7033 16.1967 40.5182 17.7314 41.3794C18.9563 42.0665 20.4468 41.9222 21.7608 41.7956C22.1509 41.7579 22.5192 41.7225 22.861 41.7096C22.8804 41.709 22.8997 41.7075 22.9189 41.7051C23.2705 41.6471 23.631 41.6623 23.9759 41.7498C24.0968 41.9146 25.3661 43.6893 25.2096 45.388C25.2028 45.4616 25.2113 45.5358 25.2346 45.6062C25.2578 45.6767 25.2953 45.7421 25.345 45.7987C25.3946 45.8553 25.4554 45.902 25.524 45.9361C25.5925 45.9702 25.6674 45.9911 25.7444 45.9975C25.762 45.9989 25.7794 45.9998 25.7964 45.9998C25.9435 45.9997 26.0853 45.9469 26.1937 45.8519C26.3022 45.7569 26.3695 45.6266 26.3824 45.4865C26.5839 43.2981 24.9881 41.1665 24.9307 41.0919C24.4777 40.4526 23.3034 40.521 22.7869 40.5868C22.4174 40.6017 22.0409 40.638 21.6426 40.6762C20.4512 40.7913 19.2201 40.9102 18.3273 40.4093C17.0989 39.7203 17.5919 37.9419 17.7025 37.5926C17.7058 37.5833 17.7084 37.574 17.7108 37.5648C17.7829 37.2626 17.7426 36.9458 17.5967 36.6689C17.4508 36.3921 17.2085 36.1726 16.9115 36.0483C16.9188 36.0258 16.9273 36.0038 16.9368 35.9822C16.9443 35.9667 16.951 35.951 16.9568 35.9349C17.0893 35.6338 17.1132 35.2992 17.0248 34.9837C16.9364 34.6681 16.7407 34.3897 16.4685 34.1923C16.4767 34.1284 16.4904 34.0652 16.5097 34.0036C16.6693 33.5365 16.7279 33.0434 16.6821 32.554C16.598 31.7895 15.849 31.6146 15.5672 31.5488C15.477 31.5279 15.3866 31.5079 15.296 31.4886C14.4676 31.3106 14.2047 31.1953 14.1752 30.8204C14.1793 30.5082 14.2964 30.2071 14.5065 29.9682C14.522 29.9488 14.5362 29.9284 14.5488 29.9071C14.5488 29.9071 16.4962 26.6517 16.5118 26.6258C17.0933 25.6819 16.75 24.6539 16.4738 23.8282C16.3827 23.5729 16.3061 23.3131 16.2444 23.05C15.6137 19.9975 17.6237 16.5629 19.7576 14.6631C22.3856 12.3242 26.1188 11.0411 29.9827 11.1297C34.7943 11.2459 39.1635 13.873 40.8549 17.6677C42.9935 22.4655 41.548 28.7197 36.9876 34.3976C36.5062 34.9977 36.2761 35.7477 36.3422 36.5013C36.5179 38.8872 37.0967 41.2301 38.0563 43.439C38.1179 43.5761 38.2339 43.6843 38.3789 43.7397C38.5239 43.795 38.686 43.793 38.8295 43.7341C38.973 43.6752 39.0861 43.5643 39.144 43.4256C39.2019 43.287 39.1998 43.132 39.1382 42.9949C38.2295 40.8978 37.6813 38.674 37.5153 36.4097Z" fill="#366159"/>
<path d="M36.8426 28.207C36.8442 28.023 36.8076 27.8405 36.7349 27.6702C36.6622 27.4999 36.5548 27.345 36.419 27.2147L35.8006 26.623C36.1008 26.1104 36.3371 25.5659 36.5046 25.0007H37.3785C37.7966 24.9848 38.1911 24.8113 38.4757 24.5181C38.7604 24.2249 38.9121 23.8359 38.8976 23.4361V22.4385C38.912 22.0388 38.7603 21.6499 38.4756 21.3568C38.191 21.0637 37.7965 20.8903 37.3785 20.8745H36.7464C36.8063 21.0458 36.837 21.2253 36.8373 21.406C36.8373 21.606 36.8267 21.8035 36.8102 21.9995H37.3785C37.5639 21.9995 37.7203 22.2006 37.7203 22.4385V23.4361C37.7203 23.6746 37.5639 23.876 37.3785 23.876H36.3872C35.9869 24.9358 35.3316 25.8908 34.4743 26.664C34.467 26.7453 34.4784 26.8271 34.5076 26.9038C34.5368 26.9804 34.5832 27.0501 34.6434 27.1078L35.5868 28.0107C35.6128 28.0369 35.6332 28.0678 35.6466 28.1016C35.6601 28.1354 35.6663 28.1714 35.665 28.2075C35.6603 28.3378 35.6022 28.461 35.5032 28.5507L34.7643 29.2569C34.6979 29.3359 34.6027 29.3879 34.4978 29.4025C34.3929 29.4171 34.2861 29.3932 34.1989 29.3356L33.2541 28.4342C33.1592 28.3437 33.0349 28.2868 32.9017 28.273C32.7684 28.2592 32.6342 28.2893 32.5213 28.3583C31.8515 28.7683 31.111 29.0615 30.3342 29.2243C30.2031 29.2516 30.0856 29.3211 30.0014 29.421C29.9172 29.521 29.8713 29.6455 29.8712 29.7738V31.047C29.8712 31.2248 29.6617 31.3747 29.4138 31.3747H28.3671C28.1186 31.3747 27.9085 31.2248 27.9085 31.047V29.7738C27.9085 29.6455 27.8626 29.521 27.7784 29.421C27.6942 29.321 27.5767 29.2516 27.4455 29.2243C26.6683 29.061 25.9273 28.7677 25.2569 28.3577C25.1439 28.289 25.0098 28.2592 24.8767 28.2731C24.7435 28.287 24.6193 28.3438 24.5245 28.4342L23.5808 29.3356C23.4937 29.3932 23.387 29.4172 23.2821 29.4027C23.1773 29.3883 23.082 29.3365 23.0154 29.2577L22.2768 28.5504C22.1941 28.4871 22.1395 28.3962 22.1238 28.2961C22.1082 28.1959 22.1326 28.0938 22.1924 28.0101L23.1375 27.1084C23.2326 27.0177 23.2923 26.8986 23.3067 26.7709C23.3212 26.6433 23.2895 26.5147 23.2169 26.4067C22.7869 25.7678 22.4798 25.0604 22.3103 24.3181C22.2815 24.1928 22.2088 24.0807 22.1042 24.0003C21.9996 23.9198 21.8694 23.876 21.7352 23.876H20.4015C20.2162 23.876 20.0597 23.6746 20.0597 23.4361V22.4385C20.0597 22.2006 20.2162 21.9995 20.4015 21.9995H21.7352C21.8695 21.9995 21.9997 21.9556 22.1043 21.8751C22.2089 21.7947 22.2816 21.6824 22.3103 21.5571C22.4798 20.8147 22.7868 20.1072 23.2169 19.4682C23.2895 19.3601 23.3212 19.2315 23.3067 19.1038C23.2922 18.976 23.2324 18.8569 23.1372 18.7662L22.1941 17.8671C22.1337 17.7833 22.1086 17.6809 22.1238 17.5802C22.1391 17.4795 22.1936 17.3881 22.2765 17.3242L23.0148 16.6186C23.0812 16.5395 23.1763 16.4872 23.2812 16.4723C23.3861 16.4574 23.493 16.4809 23.5805 16.5382L24.5242 17.441C24.6191 17.5316 24.7435 17.5885 24.8768 17.6024C25.0101 17.6164 25.1444 17.5864 25.2575 17.5175C25.9271 17.1067 26.6678 16.8131 27.4449 16.6504C27.5762 16.6231 27.6938 16.5538 27.7781 16.4538C27.8625 16.3538 27.9085 16.2293 27.9085 16.1008V14.8276C27.9085 14.6498 28.1186 14.4999 28.3671 14.4999H29.4138C29.6617 14.4999 29.8712 14.6498 29.8712 14.8276V16.1008C29.8712 16.2293 29.9173 16.3539 30.0017 16.4539C30.0861 16.5539 30.2037 16.6232 30.3351 16.6504C31.1118 16.8126 31.852 17.1062 32.5207 17.5172C32.6337 17.5864 32.7681 17.6167 32.9015 17.6029C33.035 17.589 33.1595 17.532 33.2544 17.4412L34.1986 16.5384C34.2859 16.4808 34.3928 16.457 34.4978 16.4719C34.6027 16.4867 34.6979 16.539 34.764 16.6183L35.5035 17.3242C35.6025 17.4139 35.6606 17.5371 35.6653 17.6674C35.6664 17.7038 35.66 17.7402 35.6463 17.7742C35.6327 17.8083 35.6122 17.8395 35.5859 17.8659L34.6437 18.7668C34.5489 18.8575 34.4893 18.9764 34.4749 19.1039C34.4605 19.2313 34.492 19.3597 34.5643 19.4677C34.626 19.5596 34.679 19.6555 34.7355 19.75C35.0018 19.7001 35.2766 19.7099 35.5383 19.7787C35.8 19.8475 36.0415 19.9735 36.2436 20.1466C36.1166 19.8395 35.9686 19.5408 35.8006 19.2522L36.4184 18.6616C36.5544 18.531 36.662 18.3759 36.7348 18.2052C36.8076 18.0345 36.8443 17.8517 36.8426 17.6674C36.8372 17.2387 36.6551 16.8294 36.336 16.5283L35.5968 15.8226C35.3115 15.5304 34.9168 15.358 34.4989 15.3431C34.0811 15.3282 33.674 15.472 33.3667 15.7431L32.7466 16.3354C32.2102 16.0482 31.6403 15.8222 31.0487 15.6621V14.8276C31.0324 14.428 30.8512 14.0508 30.5449 13.7785C30.2385 13.5062 29.8318 13.361 29.4138 13.3746H28.3671C27.949 13.3609 27.5422 13.506 27.2356 13.7782C26.9291 14.0504 26.7478 14.4276 26.7313 14.8273V15.6618C26.1396 15.822 25.5697 16.0481 25.0331 16.3354L24.413 15.7425C24.1054 15.4718 23.6984 15.3282 23.2806 15.3432C22.8628 15.3582 22.4682 15.5304 22.1826 15.8224L21.4434 16.5289C21.1383 16.8022 20.9584 17.1796 20.9429 17.5791C20.9274 17.9786 21.0776 18.3677 21.3608 18.6619L21.9803 19.2519C21.6798 19.7644 21.4435 20.3089 21.2763 20.8742H20.4015C19.9835 20.89 19.5891 21.0634 19.3044 21.3565C19.0197 21.6496 18.868 22.0385 18.8824 22.4382V23.4358C18.868 23.8356 19.0196 24.2247 19.3043 24.5178C19.5889 24.811 19.9834 24.9845 20.4015 25.0004H21.2763C21.4437 25.5656 21.6799 26.11 21.9803 26.6224L21.3596 27.2144C21.0765 27.5083 20.9265 27.8973 20.9423 28.2965C20.958 28.6958 21.1383 29.0728 21.4437 29.3455L22.1835 30.0537C22.4695 30.3449 22.8642 30.5164 23.2817 30.5309C23.6992 30.5455 24.1059 30.4019 24.4133 30.1313L25.0331 29.5393C25.5699 29.8259 26.1398 30.0518 26.7313 30.2123V31.0468C26.7477 31.4465 26.929 31.8238 27.2355 32.0961C27.5421 32.3683 27.949 32.5135 28.3671 32.4997H29.4138C29.8318 32.5133 30.2384 32.3682 30.5448 32.0959C30.8511 31.8237 31.0323 31.4466 31.0487 31.047V30.2126C31.6401 30.0522 32.21 29.8265 32.7466 29.5398L33.3667 30.1313C33.674 30.4022 34.0808 30.5459 34.4985 30.5312C34.9162 30.5165 35.3109 30.3446 35.5965 30.0528L36.3357 29.3466C36.6552 29.0455 36.8374 28.6359 36.8426 28.207Z" fill="#366159"/>
<path d="M28.8269 21.3768C28.9829 21.3768 29.1326 21.3175 29.2429 21.212C29.3533 21.1066 29.4152 20.9635 29.4152 20.8143C29.4152 20.6651 29.3533 20.522 29.2429 20.4165C29.1326 20.3111 28.9829 20.2518 28.8269 20.2518C28.2789 20.2577 27.7557 20.4711 27.3721 20.8453C26.9885 21.2195 26.7758 21.7239 26.7807 22.2478C26.7746 22.8655 27.025 23.4602 27.4769 23.9016C27.9288 24.3429 28.5454 24.5949 29.1914 24.6022C29.9598 24.5929 30.6929 24.2927 31.2301 23.7674C31.7673 23.242 32.0647 22.5345 32.0571 21.7998C32.0669 20.9186 31.7107 20.0698 31.0667 19.4394C30.4227 18.809 29.5435 18.4486 28.6219 18.4372C27.5089 18.4514 26.4473 18.8871 25.6699 19.6486C24.8925 20.4102 24.4627 21.4354 24.4748 22.4995C24.4595 23.7924 24.9812 25.0383 25.9254 25.964C26.8696 26.8896 28.1592 27.4194 29.5114 27.4372C32.9017 27.4372 35.66 24.7316 35.66 21.4058C35.66 21.2565 35.598 21.1133 35.4876 21.0077C35.3772 20.9021 35.2274 20.8428 35.0713 20.8428C34.9151 20.8428 34.7654 20.9021 34.6549 21.0077C34.5445 21.1133 34.4825 21.2565 34.4825 21.4058C34.4825 24.1114 32.2527 26.3122 29.5114 26.3122C28.4713 26.2946 27.4809 25.8833 26.7574 25.1686C26.034 24.4539 25.6364 23.4941 25.652 22.4995C25.6396 21.7338 25.9452 20.9946 26.5019 20.4439C27.0587 19.8933 27.821 19.5762 28.6219 19.5622C29.2313 19.5735 29.8111 19.8153 30.2343 20.2347C30.6576 20.6541 30.8896 21.2168 30.8796 21.7995C30.8877 22.2359 30.7145 22.6575 30.398 22.972C30.0815 23.2865 29.6475 23.4682 29.1911 23.4772C28.8572 23.4699 28.54 23.3364 28.3089 23.106C28.0778 22.8755 27.9517 22.5668 27.9582 22.2475C27.9531 22.022 28.0416 21.8038 28.2044 21.6405C28.3672 21.4773 28.5911 21.3826 28.8269 21.3768Z" fill="#366159"/>
<path d="M30.0224 9.60523L30.5264 9.62573C35.719 9.92232 40.421 12.8428 42.3027 17.0642C44.6179 22.2584 43.2055 28.8342 38.6806 34.7615L38.2334 35.3328C38.0234 35.5949 37.9111 35.9118 37.9082 36.2351L37.914 36.3748V36.3806C38.0766 38.598 38.6132 40.7762 39.5029 42.8308C39.6098 43.0687 39.6132 43.3391 39.5127 43.5798C39.4124 43.8198 39.2195 44.0065 38.9814 44.1042C38.7437 44.2018 38.4763 44.2047 38.2363 44.113C37.9961 44.0213 37.7979 43.8403 37.6914 43.6033L37.6894 43.5984C36.7128 41.3502 36.1228 38.9651 35.9433 36.5359C35.8682 35.6779 36.1312 34.826 36.6758 34.1472L37.0889 33.6199C41.2654 28.1551 42.4795 22.2962 40.4892 17.8308C38.8722 14.203 34.6602 11.6432 29.9726 11.53C26.1986 11.4437 22.5674 12.6977 20.0234 14.9617C18.9954 15.877 17.9935 17.1673 17.3271 18.5935C16.6615 20.0183 16.345 21.5462 16.6338 22.9587L16.7314 23.3289L16.8506 23.6941L16.8535 23.7009C17.1185 24.4933 17.5468 25.7089 16.8525 26.8357L16.8515 26.8347C16.8504 26.8366 16.8495 26.8394 16.8476 26.8425C16.8435 26.8494 16.8376 26.8593 16.8301 26.8718C16.815 26.897 16.7938 26.9337 16.7666 26.9792C16.7118 27.0707 16.6344 27.2008 16.542 27.3552C16.3573 27.6639 16.1124 28.0729 15.8681 28.4812C15.6238 28.8898 15.3791 29.2977 15.1963 29.6033C15.1049 29.7561 15.0288 29.8834 14.9756 29.9724C14.9489 30.0169 14.9283 30.0521 14.914 30.0759C14.9069 30.0879 14.9011 30.0971 14.8974 30.1033C14.8957 30.1062 14.8935 30.1101 14.8935 30.1101L14.8926 30.1121C14.8704 30.1493 14.8454 30.1848 14.8183 30.2185L14.8066 30.2322C14.6624 30.3962 14.5832 30.5991 14.5762 30.8074C14.5779 30.8209 14.5794 30.8301 14.581 30.8357C14.5822 30.8395 14.584 30.8435 14.584 30.8435L14.5849 30.8445L14.5859 30.8464C14.5859 30.8464 14.5887 30.8496 14.5918 30.8523C14.5981 30.8579 14.6104 30.8679 14.6328 30.8806C14.7434 30.9433 14.9546 31.006 15.3799 31.0974C15.4728 31.1171 15.5647 31.1375 15.6572 31.1589C15.7967 31.1915 16.1167 31.2643 16.4131 31.4519C16.685 31.6242 16.9467 31.9001 17.0469 32.321L17.0801 32.5105V32.5164C17.1284 33.0328 17.0707 33.5525 16.914 34.0476C17.1485 34.2758 17.3216 34.5596 17.4101 34.8757C17.5017 35.2024 17.4966 35.5444 17.4033 35.8669C17.6308 36.0261 17.8198 36.235 17.9502 36.4822C18.1409 36.8441 18.1944 37.2607 18.0996 37.658L18.0986 37.6628C18.095 37.6769 18.0892 37.6938 18.083 37.7126C18.0325 37.872 17.8985 38.3543 17.9131 38.8621C17.9276 39.3696 18.0847 39.8142 18.5234 40.0603C18.8908 40.2664 19.3489 40.3563 19.8857 40.3738C20.4235 40.3913 21.0033 40.3361 21.6045 40.2781L22.1924 40.2244C22.3807 40.2088 22.5674 40.196 22.7529 40.1882C23.0279 40.154 23.4801 40.1187 23.9346 40.1785C24.3792 40.237 24.9211 40.3997 25.2471 40.8484C25.2894 40.9035 25.7204 41.4793 26.1162 42.3269C26.486 43.1189 26.8434 44.1844 26.7959 45.2996L26.7803 45.5232C26.7576 45.7681 26.6404 45.9924 26.457 46.1531C26.2742 46.3131 26.0385 46.4 25.7969 46.4001C25.7669 46.4001 25.7383 46.3983 25.7129 46.3962H25.7109C25.584 46.3856 25.4599 46.3506 25.3457 46.2937C25.2315 46.2368 25.1284 46.1585 25.0439 46.0623C24.9595 45.9659 24.8947 45.8534 24.8545 45.7312C24.8142 45.609 24.7997 45.4796 24.8115 45.3513C24.8803 44.6045 24.6347 43.8124 24.334 43.1619C24.1107 42.679 23.8681 42.2987 23.7392 42.1091C23.4906 42.063 23.2349 42.0581 22.9844 42.0994L22.9707 42.1023L22.9697 42.1013C22.9383 42.1054 22.9067 42.1072 22.875 42.1082L22.876 42.1091C22.548 42.1215 22.1914 42.1562 21.7988 42.1941C20.5137 42.3179 18.8894 42.4872 17.5361 41.7283C15.8382 40.7752 15.7328 38.8534 16.1211 37.3992C16.0274 37.3634 15.9376 37.3182 15.8545 37.2615C15.7073 37.161 15.5827 37.0309 15.4902 36.8787L15.4785 36.8601L15.4697 36.8406C15.3614 36.609 15.3063 36.3564 15.3105 36.1013C15.3145 35.8634 15.3713 35.6301 15.4726 35.4148C15.4757 35.4055 15.4765 35.3968 15.4785 35.3894L15.4746 35.3875C15.0081 35.0997 14.8921 34.6325 14.8867 34.2781C14.8814 33.9284 14.9787 33.6216 15.0137 33.5212C15.0696 33.3556 15.1004 33.1842 15.1123 33.0115C15.0613 33.0002 15.0087 32.989 14.9541 32.9773C14.6014 32.9016 14.0515 32.7864 13.5801 32.5046C13.0848 32.2086 12.6646 31.7214 12.6025 30.9363L12.6015 30.9275V30.9177C12.5802 30.2612 12.796 29.6211 13.207 29.1023C14.9834 26.1327 15.1384 25.873 15.1582 25.8406C15.2455 25.6988 15.2745 25.5137 15.2353 25.2439C15.1951 24.9675 15.0937 24.6592 14.9726 24.2966C14.8634 23.989 14.7719 23.6747 14.6992 23.3572L14.6972 23.3484C14.3162 21.503 14.7192 19.5838 15.5029 17.8738C16.2873 16.1624 17.467 14.6299 18.6894 13.5417C21.6238 10.9295 25.7615 9.49802 30.0224 9.60523ZM30.0019 10.405C25.9241 10.3025 21.9889 11.6742 19.2207 14.1384C18.0782 15.1554 16.9662 16.5993 16.2295 18.2068C15.4935 19.8127 15.145 21.5519 15.4785 23.1785C15.5117 23.3233 15.5501 23.4673 15.5918 23.6101L15.7295 24.0359L15.7314 24.0427C15.8465 24.3873 15.9748 24.7678 16.0273 25.1287C16.0807 25.4956 16.0649 25.8966 15.8408 26.2605L15.8369 26.2654C15.8369 26.2654 15.8423 26.2565 13.8877 29.5242L13.873 29.5496L13.8545 29.572C13.5472 29.9472 13.3887 30.4098 13.4013 30.8806C13.4411 31.3559 13.6752 31.6297 13.9902 31.8181C14.3306 32.0216 14.7496 32.1153 15.1211 32.1951C15.2062 32.2133 15.293 32.232 15.3779 32.2517C15.4245 32.2616 15.47 32.2724 15.5156 32.2859L15.6592 32.3347L15.8965 32.4265L15.914 32.6814C15.9394 33.0539 15.8898 33.4276 15.7695 33.782L15.7685 33.7849C15.7453 33.8517 15.6834 34.054 15.6865 34.2654C15.6892 34.4461 15.7358 34.5803 15.8437 34.6707L15.8945 34.7068L15.8994 34.7097L15.9092 34.7146L15.9219 34.7214C16.0888 34.8125 16.2166 34.961 16.2666 35.1589C16.3123 35.3405 16.2818 35.5217 16.2295 35.6765L16.2197 35.7039L16.207 35.7302C16.1457 35.8509 16.1135 35.9825 16.1113 36.115C16.1093 36.2389 16.1345 36.3618 16.1846 36.4773C16.2158 36.5242 16.2551 36.5675 16.3047 36.6013C16.3321 36.62 16.3622 36.6353 16.3935 36.6482L16.4922 36.6775L16.5547 36.6892L16.6103 36.7205C16.6587 36.747 16.7463 36.8004 16.8222 36.8845C16.899 36.9696 17.0063 37.1379 16.9619 37.3621L16.958 37.3835L16.9521 37.4041C16.5246 38.766 16.6489 40.3125 17.9258 41.03C19.0221 41.645 20.3799 41.5266 21.7226 41.3972C22.1099 41.3598 22.4902 41.3238 22.8457 41.3103L22.8506 41.3093C22.8558 41.3092 22.861 41.309 22.8662 41.3084C23.2173 41.252 23.5759 41.2586 23.9238 41.3279L24.0742 41.3621L24.2138 41.3972L24.2988 41.5134C24.3685 41.6085 24.7318 42.117 25.0596 42.8259C25.3642 43.4847 25.6571 44.3561 25.6201 45.2468L25.6084 45.4246C25.6067 45.4433 25.6081 45.4626 25.6142 45.4812C25.6204 45.4998 25.6308 45.5181 25.6455 45.5349C25.6602 45.5517 25.6794 45.5665 25.7021 45.5779C25.7243 45.5889 25.7492 45.5959 25.7754 45.5984C25.7847 45.5991 25.7918 45.5984 25.7959 45.5984C25.848 45.5984 25.8957 45.581 25.9297 45.5515C25.9631 45.5222 25.981 45.4851 25.9844 45.45C26.0758 44.4571 25.759 43.4525 25.3916 42.6658C25.2097 42.2763 25.0196 41.949 24.8721 41.7156C24.7985 41.5991 24.7359 41.5062 24.6904 41.4412L24.6201 41.3445C24.6182 41.342 24.6152 41.3386 24.6152 41.3386L24.6142 41.3367L24.6045 41.323C24.4763 41.1422 24.2107 41.0215 23.8301 40.9714C23.4647 40.9234 23.0811 40.9522 22.8379 40.9832L22.8203 40.9861H22.8027C22.4464 41.0005 22.0812 41.0355 21.6806 41.074C21.0907 41.1309 20.4589 41.193 19.8603 41.1736C19.2609 41.1541 18.657 41.0531 18.1318 40.7585C17.3423 40.3157 17.1317 39.5266 17.1133 38.8855C17.0949 38.2445 17.2611 37.6614 17.3213 37.4714C17.3706 37.2644 17.3441 37.0468 17.2431 36.8552C17.1419 36.6631 16.9709 36.5064 16.7568 36.4167L16.417 36.2751L16.5312 35.9246C16.5427 35.8894 16.5564 35.8548 16.5713 35.821L16.5771 35.8074C16.5785 35.8046 16.58 35.8014 16.581 35.7986L16.5849 35.7859L16.5908 35.7742C16.6861 35.5575 16.703 35.3175 16.6396 35.0916C16.5762 34.8653 16.4346 34.6624 16.2334 34.5164L16.042 34.3767L16.0713 34.1414C16.0824 34.0543 16.1017 33.9684 16.1279 33.8845L16.1308 33.8738C16.2714 33.4621 16.3236 33.0281 16.2842 32.5974C16.2582 32.3628 16.1393 32.2258 15.9844 32.1277C15.8149 32.0204 15.6188 31.9715 15.4765 31.9382C15.3889 31.918 15.3009 31.8983 15.2129 31.8796C14.8099 31.793 14.4745 31.7091 14.2392 31.5759C14.1109 31.5032 13.9936 31.4068 13.9082 31.2712C13.8229 31.1358 13.7873 30.9903 13.7763 30.8513L13.7754 30.8337V30.8152C13.7807 30.4116 13.9299 30.0245 14.1943 29.7175C14.1982 29.7127 14.202 29.7079 14.2051 29.7029L14.206 29.7019L14.207 29.699C14.207 29.699 14.2092 29.695 14.2109 29.6921C14.2146 29.686 14.2204 29.6766 14.2275 29.6648C14.2417 29.641 14.2626 29.6064 14.289 29.5623C14.3423 29.4733 14.4185 29.3457 14.5097 29.1931C14.6926 28.8875 14.9372 28.4796 15.1816 28.071C15.6669 27.2597 16.1548 26.4432 16.1689 26.4197L16.1709 26.4158C16.6385 25.6568 16.3832 24.8185 16.0967 23.9617C16.0005 23.6924 15.9196 23.4192 15.8545 23.1414L15.8525 23.1306C15.5144 21.4937 15.8881 19.7817 16.6015 18.2546C17.3159 16.7257 18.3855 15.3485 19.4912 14.364C22.1185 12.0258 25.8002 10.722 29.6221 10.7253L29.9922 10.7302L30.4541 10.7488C35.2084 11.019 39.5101 13.6671 41.2207 17.5046C43.4433 22.491 41.9124 28.9052 37.2998 34.6482C36.934 35.1042 36.7368 35.6574 36.7314 36.2234L36.7402 36.4666L36.7412 36.4724C36.9135 38.8114 37.4804 41.1087 38.4209 43.2751L38.459 43.3269C38.4758 43.3427 38.4966 43.3564 38.5215 43.366C38.5715 43.3851 38.6285 43.3842 38.6777 43.364C38.7265 43.344 38.7589 43.3084 38.7744 43.2712C38.7896 43.2348 38.7897 43.1953 38.7734 43.1589L38.7715 43.1541C37.8451 41.0162 37.2855 38.7486 37.1162 36.4392C37.0668 35.8617 37.2443 35.2886 37.6094 34.8328C42.3767 28.8965 43.7966 22.3798 41.5722 17.3894C39.7769 13.3622 35.1399 10.5289 30.0019 10.405ZM29.4717 14.908C29.4555 14.903 29.4358 14.9002 29.414 14.9001H28.3672C28.3451 14.9001 28.325 14.9029 28.3086 14.908V16.1013C28.3084 16.3258 28.2278 16.5411 28.084 16.7117C27.9404 16.8818 27.7428 16.9958 27.5263 17.0408L27.5273 17.0417C26.7947 17.1951 26.0967 17.4717 25.4668 17.8582L25.4658 17.8591C25.2769 17.9742 25.0543 18.0236 24.8349 18.0007C24.6706 17.9835 24.5131 17.9257 24.3769 17.8337L24.248 17.7302L23.3486 16.8699C23.3453 16.8694 23.3418 16.8674 23.3379 16.8679C23.3279 16.8693 23.3213 16.8757 23.3213 16.8757L23.3076 16.8923L23.291 16.908L22.5527 17.613L22.5371 17.6277L22.5283 17.6335L23.4131 18.4763C23.5744 18.6301 23.6787 18.8352 23.7041 19.0584C23.7231 19.2259 23.697 19.394 23.6299 19.5457L23.5488 19.6912C23.1962 20.215 22.9322 20.7877 22.7656 21.3875L22.7002 21.6462C22.6501 21.8645 22.5246 22.0567 22.3486 22.1921C22.1728 22.3274 21.9561 22.3991 21.7353 22.3992H20.4658C20.4623 22.4103 20.46 22.4235 20.4599 22.4382V23.4363C20.46 23.4514 20.4622 23.4649 20.4658 23.4763H21.7353C21.956 23.4764 22.1719 23.5483 22.3476 23.6834C22.4797 23.7848 22.5836 23.9178 22.6484 24.0701L22.7002 24.2283C22.8586 24.922 23.1459 25.5848 23.5488 26.1834L23.6299 26.3298C23.6968 26.4813 23.723 26.6489 23.7041 26.8162C23.6788 27.0392 23.5752 27.2444 23.414 27.3982L22.5293 28.24L22.5371 28.2459L22.5537 28.2615L23.292 28.9685L23.3076 28.9832L23.3213 28.9998C23.3229 29.0014 23.3279 29.0054 23.3369 29.0066C23.3413 29.0072 23.345 29.0043 23.3486 29.0037L24.248 28.1453C24.4083 27.9925 24.616 27.8987 24.8349 27.8757C25.0539 27.8529 25.2761 27.9016 25.4648 28.0164C26.0957 28.4021 26.7945 28.6788 27.5273 28.8328L27.6855 28.8796C27.8388 28.939 27.9765 29.0354 28.084 29.1628C28.2277 29.3335 28.3086 29.5496 28.3086 29.7742V30.9666L28.3672 30.9744H29.414L29.4717 30.9666V29.7732C29.4719 29.5489 29.5517 29.3333 29.6953 29.1628C29.8386 28.9929 30.0358 28.878 30.2519 28.8328L30.5254 28.7693C31.1581 28.6083 31.7611 28.3549 32.3125 28.0173L32.4599 27.9431C32.6123 27.8817 32.7788 27.8577 32.9433 27.8748C33.1625 27.8976 33.3699 27.9922 33.5303 28.1453L34.4297 29.0037C34.4335 29.0045 34.4376 29.0072 34.4424 29.0066C34.4516 29.0053 34.458 28.9998 34.458 28.9998L34.4717 28.9832L34.4883 28.9675L35.2265 28.2615L35.2344 28.2537C35.2395 28.249 35.2423 28.243 35.2461 28.238L34.3672 27.3972L34.3662 27.3962C34.2642 27.2984 34.1844 27.1793 34.1338 27.0466C34.0831 26.9136 34.0635 26.7707 34.0762 26.6287L34.0898 26.4724L34.206 26.3669C35.0168 25.6357 35.6353 24.7339 36.0127 23.7351L36.1103 23.4763H37.3135C37.3171 23.4649 37.3203 23.4515 37.3203 23.4363V22.4382C37.3203 22.4234 37.317 22.4104 37.3135 22.3992H36.375L36.4121 21.9656C36.4279 21.7779 36.4375 21.5925 36.4375 21.407L36.4326 21.3054C36.424 21.2041 36.4031 21.1036 36.3691 21.0066L36.1826 20.4744H37.3935C37.9116 20.494 38.4045 20.7091 38.7627 21.0779C39.118 21.4438 39.3111 21.9321 39.2969 22.4382L39.2978 23.4363C39.3122 23.9425 39.118 24.4306 38.7627 24.7966C38.4045 25.1656 37.9117 25.3805 37.3935 25.4001L37.3857 25.4011H36.7939C36.6603 25.7946 36.4938 26.1763 36.2978 26.5447L36.6953 26.9255L36.6963 26.9265C36.8701 27.0934 37.0084 27.2929 37.1025 27.5134C37.1967 27.7341 37.2443 27.9712 37.2422 28.2107C37.2356 28.7499 37.0063 29.2611 36.6113 29.6345L36.6123 29.6355L35.873 30.3425L35.8721 30.3416C35.5136 30.7026 35.0257 30.9133 34.5127 30.9314C33.9952 30.9496 33.4882 30.7713 33.1025 30.4314L33.0967 30.4265L33.0908 30.4207L32.6728 30.0222C32.2788 30.2154 31.8701 30.378 31.4492 30.5085V31.0554L31.4482 31.0632C31.4273 31.5743 31.1958 32.053 30.8105 32.3953C30.4292 32.7341 29.9274 32.9116 29.414 32.8982V32.9001H28.3672V32.8982C27.8535 32.9118 27.3514 32.7342 26.9697 32.3953C26.5843 32.0529 26.353 31.5744 26.332 31.0632L26.331 31.0554V30.5085C25.9096 30.3777 25.5 30.2157 25.1055 30.0222L24.6894 30.4207L24.6836 30.4265L24.6777 30.4314C24.292 30.7709 23.7848 30.9484 23.2676 30.9304C22.7543 30.9125 22.2661 30.7026 21.9072 30.3416L21.167 29.6345C20.7894 29.2924 20.5629 28.818 20.543 28.3123C20.5228 27.8017 20.7146 27.3077 21.0713 26.9373L21.0771 26.9304L21.084 26.9246L21.4814 26.5447C21.2853 26.1763 21.1209 25.7936 20.9873 25.4001H20.3867C19.8687 25.3805 19.3757 25.1654 19.0176 24.7966C18.6588 24.4272 18.464 23.9329 18.4824 23.4216V22.4382C18.4681 21.932 18.6621 21.4438 19.0176 21.0779C19.3758 20.7091 19.8686 20.494 20.3867 20.4744H20.9873C21.1209 20.0806 21.2851 19.6975 21.4814 19.3289L21.0849 18.9519L21.0791 18.9451L21.0722 18.9392C20.7156 18.5686 20.5232 18.0739 20.543 17.5632C20.5627 17.057 20.7893 16.5828 21.167 16.24L21.9062 15.533C22.2646 15.1716 22.7535 14.9615 23.2666 14.9431C23.7194 14.927 24.1646 15.0607 24.5273 15.322L24.6777 15.4421L24.6894 15.4539L25.1055 15.8513C25.4998 15.6576 25.9096 15.4957 26.331 15.365V14.8191L26.332 14.8113C26.3531 14.3002 26.5844 13.8215 26.9697 13.4792C27.3513 13.1404 27.8535 12.9617 28.3672 12.9753L29.414 12.9744C29.9274 12.961 30.4292 13.1404 30.8105 13.4792C31.1958 13.8216 31.4274 14.3002 31.4482 14.8113L31.4492 14.8191V15.365C31.8701 15.4955 32.279 15.6579 32.6728 15.8513L33.0908 15.4539L33.0957 15.448L33.1025 15.4431C33.4883 15.1029 33.9959 14.9246 34.5137 14.9431C35.0263 14.9615 35.5141 15.1719 35.8721 15.533L36.6103 16.2371C37.0061 16.6105 37.2352 17.1222 37.2422 17.6619V17.6638C37.2444 17.9037 37.1968 18.141 37.1025 18.3621C37.0082 18.5831 36.8695 18.7827 36.6953 18.95L36.6943 18.9509L36.2988 19.3279C36.4139 19.5452 36.5195 19.7672 36.6133 19.9939L35.9834 20.45C35.8279 20.3169 35.6407 20.2195 35.4365 20.1658C35.2323 20.1121 35.0176 20.1043 34.8096 20.1433L34.5351 20.1941L34.3926 19.9548C34.3269 19.8449 34.2863 19.7714 34.2324 19.6912L34.2314 19.6902C34.1073 19.5047 34.0519 19.2811 34.0771 19.0584C34.1025 18.8358 34.2065 18.631 34.3672 18.4773L35.2461 17.6365C35.2424 17.6317 35.2403 17.6254 35.2353 17.6209L35.2275 17.614L34.4883 16.908L34.4717 16.8923L34.457 16.8748C34.457 16.8748 34.451 16.8693 34.4414 16.8679C34.4375 16.8674 34.434 16.8684 34.4306 16.8689L33.5312 17.7302C33.3707 17.8838 33.1621 17.978 32.9424 18.0007C32.7777 18.0177 32.6115 17.9941 32.459 17.9324L32.3115 17.8582C31.6825 17.4715 30.985 17.1947 30.2529 17.0417C30.0367 16.9967 29.8397 16.8816 29.6963 16.7117C29.5523 16.5411 29.4718 16.3259 29.4717 16.1013V14.908ZM27.5586 22.2556C27.5512 21.9189 27.6834 21.5964 27.9209 21.3582C28.1584 21.12 28.4817 20.9856 28.8174 20.9773L28.8271 20.9763C28.8826 20.9763 28.9327 20.9552 28.9668 20.9226C29 20.8907 29.0156 20.8513 29.0156 20.8142C29.0156 20.7772 29.0001 20.7378 28.9668 20.7058C28.9327 20.6733 28.8826 20.6522 28.8271 20.6521C28.3809 20.6579 27.9585 20.8319 27.6513 21.1316C27.3439 21.4315 27.1769 21.8319 27.1806 22.2439V22.2517C27.1756 22.7575 27.3809 23.2479 27.7568 23.615C28.132 23.9814 28.6468 24.1934 29.1904 24.2009C29.8571 24.1919 30.4893 23.9319 30.9502 23.4812C31.4114 23.0302 31.6637 22.4263 31.6572 21.8035V21.7957C31.6657 21.0264 31.355 20.2813 30.7871 19.7253C30.2194 19.1697 29.4408 18.8479 28.6211 18.8367C27.6107 18.8511 26.6509 19.248 25.9502 19.9343C25.2487 20.6215 24.8642 21.5427 24.875 22.4949V22.5046C24.8612 23.6855 25.3369 24.8274 26.2051 25.6785C27.0732 26.5296 28.2629 27.0187 29.5137 27.0359C32.6892 27.0347 35.2596 24.5028 35.2597 21.406C35.2597 21.3687 35.2445 21.3287 35.2109 21.2966C35.1768 21.2641 35.1269 21.2429 35.0713 21.2429C35.0157 21.2429 34.9658 21.2641 34.9316 21.2966C34.8981 21.3287 34.8828 21.3687 34.8828 21.406C34.8827 24.3373 32.4688 26.7125 29.5117 26.7126H29.5049C28.3645 26.6933 27.2751 26.2417 26.4765 25.4529C25.6774 24.6634 25.2346 23.5993 25.2519 22.4929C25.2414 21.6201 25.5916 20.7822 26.2207 20.1599C26.8524 19.5351 27.7141 19.1777 28.6152 19.1619H28.6289C29.3385 19.175 30.0175 19.4573 30.5156 19.9509C31.0108 20.4417 31.2861 21.1025 31.2783 21.7917L31.2793 21.8064L31.2783 21.8054C31.2848 22.3488 31.0685 22.8693 30.6797 23.2556C30.2884 23.6444 29.7557 23.8657 29.1992 23.8767L29.1904 23.8777L29.1826 23.8767C28.7485 23.8673 28.3321 23.6944 28.0263 23.3894C27.7238 23.0876 27.5543 22.6808 27.5586 22.2556ZM38.1201 23.4363C38.1201 23.6404 38.0537 23.8376 37.9346 23.991C37.8163 24.1431 37.6238 24.276 37.3789 24.2761H36.6543C36.6082 24.3854 36.56 24.4935 36.5088 24.6003H37.374C37.688 24.5857 37.9797 24.454 38.1885 24.239C38.3988 24.0223 38.5084 23.739 38.498 23.4509V22.4246C38.5084 22.1364 38.399 21.8522 38.1885 21.6355C37.9774 21.4182 37.6811 21.2862 37.3633 21.2742H37.2314C37.2344 21.3179 37.2372 21.3621 37.2373 21.406L37.2324 21.5994H37.3789C37.6236 21.5995 37.8162 21.7325 37.9346 21.8845C38.0536 22.0376 38.12 22.2343 38.1201 22.4382V23.4363ZM36.0596 21.406C36.0594 24.9597 33.1153 27.8375 29.5117 27.8376H29.5058C28.0536 27.8185 26.6649 27.2491 25.6455 26.2498C24.6254 25.2497 24.0586 23.8996 24.0752 22.4949C24.0644 21.3224 24.5387 20.1968 25.3896 19.363C26.2424 18.5277 27.404 18.0524 28.6172 18.0369H28.6269C29.6487 18.0496 30.6273 18.449 31.3467 19.1531C32.0646 19.8558 32.4656 20.8057 32.457 21.7957L32.4551 21.9539C32.4224 22.7427 32.0846 23.4913 31.5097 24.0535C30.8972 24.6525 30.0648 24.9912 29.1963 25.0017L29.1865 25.0027C28.4404 24.9942 27.7245 24.7022 27.1972 24.1873C26.6695 23.6716 26.3736 22.9732 26.3808 22.2439C26.3771 21.611 26.635 21.0059 27.0928 20.5593C27.2423 20.4135 27.4104 20.2899 27.5898 20.1873C27.2898 20.317 27.0151 20.4989 26.7832 20.7283C26.3021 21.2041 26.0412 21.839 26.0517 22.4929V22.5056C26.0379 23.3883 26.3902 24.2445 27.0381 24.8845C27.6859 25.5245 28.5767 25.8943 29.5156 25.9109C32.0389 25.9087 34.0819 23.8843 34.082 21.406C34.082 21.1447 34.1916 20.8976 34.3789 20.7185C34.5655 20.5402 34.8148 20.4431 35.0713 20.4431C35.3277 20.4431 35.577 20.5402 35.7637 20.7185C35.9509 20.8976 36.0596 21.1447 36.0596 21.406ZM29.8154 20.8142C29.8154 21.0753 29.7065 21.3218 29.5195 21.5007C29.3351 21.677 29.0892 21.7739 28.8359 21.7761C28.7002 21.7797 28.5752 21.8345 28.4873 21.9226C28.3997 22.0105 28.3559 22.1244 28.3584 22.238V22.2556C28.3541 22.463 28.436 22.6676 28.5918 22.823C28.7463 22.9769 28.9611 23.0688 29.1914 23.0759C29.5444 23.0669 29.8764 22.9265 30.1162 22.6882C30.3571 22.4488 30.4854 22.1318 30.4795 21.8074V21.7927C30.4876 21.322 30.3005 20.8638 29.9531 20.5193C29.8594 20.4265 29.7553 20.3444 29.6445 20.2732C29.7541 20.4304 29.8154 20.6182 29.8154 20.8142ZM30.2715 16.1003C30.2715 16.1326 30.2829 16.1667 30.3076 16.196C30.3326 16.2256 30.3702 16.249 30.416 16.2585C31.2374 16.4301 32.022 16.7411 32.7305 17.1765C32.7676 17.1993 32.8131 17.2097 32.8603 17.2048C32.9074 17.2 32.9483 17.18 32.9775 17.1521L33.9219 16.2498L33.9482 16.2244L33.9785 16.2048C34.1484 16.0927 34.3536 16.0477 34.5537 16.0759C34.7389 16.1021 34.9091 16.1921 35.0381 16.3298L35.04 16.3289L35.7724 17.0281L35.8349 17.0906C35.9542 17.2221 36.0329 17.3862 36.0576 17.5632L36.0654 17.6531V17.655C36.0682 17.7467 36.0515 17.8378 36.0176 17.9226C35.9837 18.0074 35.9336 18.0843 35.8701 18.1482L35.8623 18.155L34.9199 19.0554C34.8911 19.083 34.8757 19.117 34.8721 19.1492C34.8685 19.181 34.8763 19.2146 34.8965 19.2449L34.9443 19.324C35.0927 19.3154 35.2415 19.3206 35.3887 19.3416L35.2959 19.1814L36.1416 18.3728L36.2109 18.2996C36.276 18.2233 36.3287 18.1387 36.3672 18.0486C36.4183 17.9288 36.4433 17.8008 36.4424 17.6726L36.4346 17.5544C36.4029 17.2797 36.2737 17.0193 36.0615 16.8191L36.0596 16.8181L35.3203 16.1121L35.3105 16.1023C35.0989 15.8855 34.8022 15.7543 34.4844 15.7429C34.1668 15.7317 33.8605 15.8412 33.6318 16.0427L33.6308 16.0417L32.8135 16.825L32.5576 16.6882C32.0482 16.4155 31.5067 16.2008 30.9443 16.0486L30.6484 15.9685V14.8337C30.634 14.5494 30.5039 14.2776 30.2793 14.0779C30.0512 13.8752 29.7447 13.7638 29.4267 13.7742L29.414 13.7751L28.3535 13.7742C28.0356 13.7638 27.7291 13.8744 27.501 14.0769C27.2734 14.279 27.1428 14.5554 27.1308 14.8435V15.9675L26.8359 16.0476C26.2733 16.2 25.7313 16.4154 25.2217 16.6882L24.9658 16.825L24.1484 16.0427C23.9193 15.8412 23.6127 15.7315 23.2949 15.7429C22.977 15.7543 22.6806 15.8856 22.4687 16.1023L22.459 16.1121L22.458 16.1111L21.7197 16.8181L21.7099 16.8269C21.4834 17.0299 21.354 17.3064 21.3428 17.5945C21.3317 17.881 21.4383 18.1635 21.6455 18.3806L22.2558 18.9626L22.4853 19.1804L22.3252 19.4539C22.0409 19.9385 21.818 20.4541 21.6601 20.988L21.5752 21.2742H20.417L20.2988 21.2839C20.0262 21.3202 19.7766 21.4453 19.5918 21.6355C19.3813 21.8522 19.2719 22.1355 19.2822 22.4236V23.45C19.2718 23.738 19.3805 24.0222 19.5908 24.239C19.8019 24.4565 20.099 24.5883 20.417 24.6003H21.5752L21.6601 24.8865C21.8182 25.4202 22.0412 25.9351 22.3252 26.4197L22.4853 26.6931L22.2568 26.9119L21.6445 27.4949C21.4372 27.7118 21.3305 27.9946 21.3418 28.281C21.3532 28.5687 21.4834 28.8443 21.7099 29.0466L21.7207 29.0564L22.4599 29.7644L22.4687 29.7732C22.681 29.9894 22.9781 30.1205 23.2959 30.1316C23.6136 30.1426 23.9204 30.0324 24.1494 29.8308L24.7568 29.2498L24.9658 29.0505L25.2217 29.1863C25.7316 29.4586 26.2734 29.6732 26.8359 29.8259L27.1308 29.906V31.03C27.1427 31.3181 27.2735 31.5945 27.501 31.7966C27.7291 31.9992 28.0356 32.1107 28.3535 32.1003L28.3672 32.0994H29.4267C29.7447 32.1097 30.0512 31.9993 30.2793 31.7966C30.5039 31.5969 30.634 31.3251 30.6484 31.0408V29.907L30.9443 29.8269C31.5068 29.6744 32.0487 29.4596 32.5586 29.1873L32.8135 29.0505L33.0224 29.2507L33.6308 29.8308C33.8597 30.0325 34.1666 30.1428 34.4844 30.1316C34.802 30.1204 35.0986 29.9895 35.3105 29.7732L35.3203 29.7634L36.0596 29.0574L36.0615 29.0554C36.304 28.8268 36.4385 28.5194 36.4424 28.2019C36.4433 28.074 36.4182 27.9464 36.3672 27.8269C36.316 27.707 36.2391 27.5973 36.1416 27.5037L35.2959 26.6931L35.4551 26.4207C35.5639 26.2348 35.6612 26.0434 35.7519 25.8494C35.4985 26.1887 35.2158 26.5074 34.9062 26.8035C34.9105 26.8087 34.9148 26.8142 34.9199 26.8191L35.8633 27.7214L35.8701 27.7283C35.9019 27.7603 35.9302 27.796 35.9551 27.8337L36.0185 27.9539L36.0556 28.0857C36.0634 28.1303 36.066 28.1758 36.0644 28.2214C36.0556 28.4623 35.9482 28.6874 35.7715 28.8474L35.041 29.5457L35.039 29.5437C34.9096 29.682 34.7387 29.7727 34.5527 29.7986C34.353 29.8263 34.148 29.7816 33.9785 29.6697L33.9482 29.6501L33.9228 29.6248L32.9775 28.7234C32.9483 28.6956 32.9073 28.6755 32.8603 28.6707C32.8132 28.6658 32.7666 28.6773 32.7295 28.7L32.7285 28.699C32.1083 29.0785 31.4319 29.3642 30.7226 29.5447L30.416 29.616C30.3702 29.6255 30.3326 29.6489 30.3076 29.6785C30.2829 29.7078 30.2715 29.7419 30.2715 29.7742V31.0466C30.2715 31.3019 30.1219 31.4924 29.9687 31.6023C29.8125 31.7142 29.6151 31.7751 29.414 31.7751H28.3672C28.1661 31.7751 27.9689 31.7149 27.8125 31.6033C27.6591 31.4937 27.5088 31.3027 27.5088 31.0466V29.7742C27.5088 29.742 27.4973 29.7078 27.4726 29.6785C27.4477 29.6489 27.41 29.6256 27.3642 29.616C26.5429 29.4435 25.7585 29.1329 25.0488 28.699C25.0116 28.6765 24.965 28.6657 24.918 28.6707C24.8945 28.6731 24.8723 28.6792 24.8525 28.6882L24.8008 28.7234L23.8574 29.6248L23.831 29.6492L23.8017 29.6697C23.6324 29.7816 23.4272 29.8261 23.2275 29.7986C23.0413 29.7729 22.869 29.684 22.7392 29.5457L22 28.8396L22.001 28.8376C21.8579 28.7152 21.7582 28.5479 21.7285 28.3582C21.6964 28.153 21.7476 27.9456 21.8672 27.7781L21.8887 27.7468L21.916 27.7205L22.8613 26.8191C22.8901 26.7916 22.9054 26.7584 22.9092 26.7263C22.9128 26.6943 22.9052 26.6601 22.8847 26.6296C22.4277 25.9505 22.1005 25.1976 21.9199 24.407C21.9122 24.3752 21.8928 24.3421 21.8603 24.3171C21.827 24.2916 21.7829 24.2762 21.7353 24.2761H20.4013C20.1564 24.2761 19.964 24.1431 19.8457 23.991C19.7265 23.8376 19.6602 23.6404 19.6601 23.4363V22.4382C19.6602 22.2343 19.7265 22.0377 19.8457 21.8845C19.964 21.7325 20.1565 21.5994 20.4013 21.5994H21.7353C21.7829 21.5993 21.827 21.5839 21.8603 21.5584C21.8931 21.5332 21.9123 21.5005 21.9199 21.4685L21.9951 21.1736C22.1849 20.4903 22.4847 19.8393 22.8847 19.2449C22.905 19.2146 22.9127 19.1811 22.9092 19.1492C22.9055 19.1169 22.8903 19.083 22.8613 19.0554L21.918 18.157L21.8916 18.1316L21.8701 18.1013C21.7493 17.934 21.6973 17.7262 21.7285 17.5203L21.7441 17.4441C21.785 17.2836 21.8763 17.1427 22.001 17.0359L22 17.0349L22.7383 16.3298L22.7392 16.3308C22.8683 16.1928 23.0391 16.1023 23.2246 16.0759C23.3743 16.0546 23.5273 16.0746 23.666 16.1326L23.7998 16.2029L23.8301 16.2234L23.8574 16.2488L24.8008 17.1521C24.83 17.1799 24.871 17.1999 24.918 17.2048C24.9415 17.2073 24.9652 17.2058 24.9873 17.2009L25.0498 17.1755C25.7586 16.7409 26.5422 16.4304 27.3633 16.2585C27.4092 16.249 27.4476 16.2257 27.4726 16.196C27.4973 16.1668 27.5088 16.1325 27.5088 16.1003V14.8279C27.5088 14.5718 27.6591 14.3808 27.8125 14.2712C27.9689 14.1597 28.1661 14.1003 28.3672 14.1003H29.414C29.6151 14.1004 29.8125 14.1603 29.9687 14.2722C30.1219 14.3821 30.2715 14.5726 30.2715 14.8279V16.1003Z" fill="#366159"/>
</svg>
