<svg width="56" height="56" viewBox="0 0 56 56" fill="none" xmlns="http://www.w3.org/2000/svg">
<circle cx="28" cy="28" r="28" fill="#F0FDFA"/>
<path d="M17.92 33.7223V41.5187C19.5663 41.5187 21.093 41.0122 22.3536 40.1466M38.08 33.7223V41.5187C36.4337 41.5187 34.907 41.0122 33.6464 40.1466M22.4 36.8424V46C24.5951 46 26.5775 45.0996 28 43.6481C29.4225 45.0996 31.4049 46 33.6 46V36.842M42 24.0041C42 31.7384 35.732 38.0083 28 38.0083C20.268 38.0083 14 31.7384 14 24.0041C14 16.2699 20.268 10 28 10C35.732 10 42 16.2699 42 24.0041ZM32.1934 25.3671L35.8994 21.4367L30.5917 20.4359L28 15.6958L25.4083 20.4359L20.1006 21.4367L23.8066 25.3671L23.1179 30.7258L28 28.4147L32.8821 30.7258L32.1934 25.3671Z" stroke="#366159" stroke-width="2" stroke-miterlimit="10"/>
</svg>
