<svg width="56" height="56" viewBox="0 0 56 56" fill="none" xmlns="http://www.w3.org/2000/svg">
<circle cx="28" cy="28" r="28" fill="#F0FDFA"/>
<path d="M30.09 36.1535H13V16.7344M13 16.7344H38.6432M13 16.7344V18.627C13 21.4661 15.3015 23.7676 18.1406 23.7676H33.5025C36.3416 23.7676 38.6432 21.4661 38.6432 18.627V16.7344M38.6432 16.7344V30.5145M36.5892 33.9129V36.5892H34.5353M43 36.5892C43 40.1298 40.1298 43 36.5892 43C33.0486 43 30.1784 40.1298 30.1784 36.5892C30.1784 33.0486 33.0486 30.1784 36.5892 30.1784C40.1298 30.1784 43 33.0486 43 36.5892ZM30.1784 16.7344H21.4647V14.8598C21.4647 13.8327 22.2974 13 23.3245 13H28.3186C29.3458 13 30.1784 13.8327 30.1784 14.8598V16.7344ZM27.1677 27.5021H24.4754C23.6033 27.5021 22.8963 26.7951 22.8963 25.9229V23.7676H28.7469V25.9229C28.7469 26.7951 28.0399 27.5021 27.1677 27.5021Z" stroke="#366159" stroke-width="2" stroke-miterlimit="10" stroke-linecap="round" stroke-linejoin="round"/>
</svg>
