<svg width="32" height="32" viewBox="0 0 32 32" fill="none" xmlns="http://www.w3.org/2000/svg">
<path d="M29.56 13.1551C29.7779 12.6528 29.8046 12.0882 29.6352 11.5676C29.4657 11.0469 29.1118 10.6062 28.64 10.3284L26.08 8.80842C26.0495 8.79209 26.023 8.76931 26.0023 8.74167C25.9816 8.71404 25.9671 8.68221 25.96 8.64842L25.2933 5.72842C25.1722 5.19621 24.8623 4.72595 24.421 4.40478C23.9797 4.08361 23.437 3.93331 22.8933 3.98175L19.92 4.24842C19.8869 4.25624 19.8524 4.25544 19.8197 4.2461C19.787 4.23676 19.7573 4.2192 19.7333 4.19508L17.48 2.22175C17.0685 1.86701 16.5433 1.67188 16 1.67188C15.4567 1.67188 14.9315 1.86701 14.52 2.22175L12.2667 4.19508C12.2427 4.2192 12.213 4.23676 12.1803 4.2461C12.1476 4.25544 12.1131 4.25624 12.08 4.24842L9.10665 3.98175C8.56178 3.93092 8.01712 4.08094 7.57512 4.4036C7.13313 4.72625 6.82427 5.1993 6.70665 5.73375L6.03999 8.65375C6.03283 8.68754 6.01839 8.71937 5.99766 8.74701C5.97694 8.77464 5.95043 8.79742 5.91999 8.81375L3.35999 10.3284C2.8882 10.6062 2.53426 11.0469 2.36481 11.5676C2.19537 12.0882 2.2221 12.6528 2.43999 13.1551L3.62665 15.9017C3.6526 15.9659 3.6526 16.0376 3.62665 16.1017L2.43999 18.8484C2.22319 19.3488 2.19707 19.9112 2.36656 20.4295C2.53606 20.9478 2.88944 21.3862 3.35999 21.6618L5.93332 23.2004C5.98754 23.2386 6.02557 23.2957 6.03999 23.3604L6.70665 26.2804C6.82539 26.8139 7.13472 27.2857 7.5766 27.6073C8.01848 27.9289 8.56253 28.0781 9.10665 28.0271L12.08 27.7471C12.114 27.7448 12.1481 27.7496 12.1802 27.7611C12.2123 27.7725 12.2417 27.7905 12.2667 27.8137L14.52 29.7871C14.9324 30.1398 15.4573 30.3336 16 30.3336C16.5427 30.3336 17.0675 30.1398 17.48 29.7871L19.7333 27.8137C19.7582 27.7905 19.7876 27.7725 19.8197 27.7611C19.8518 27.7496 19.886 27.7448 19.92 27.7471L22.8933 28.0271C23.4374 28.0781 23.9815 27.9289 24.4234 27.6073C24.8653 27.2857 25.1746 26.8139 25.2933 26.2804L25.96 23.3604C25.9671 23.3266 25.9816 23.2948 26.0023 23.2672C26.023 23.2395 26.0495 23.2167 26.08 23.2004L28.64 21.6671C29.1105 21.3915 29.4639 20.9532 29.6334 20.4349C29.8029 19.9165 29.7768 19.3541 29.56 18.8538L28.3733 16.1071C28.3474 16.0429 28.3474 15.9712 28.3733 15.9071L29.56 13.1551ZM21.9867 13.3151L15.3733 20.0884C15.1794 20.2743 14.9219 20.3792 14.6533 20.3818C14.4429 20.3837 14.2373 20.3183 14.0667 20.1951L10.1467 17.3951C9.93094 17.2395 9.78588 17.0046 9.74337 16.742C9.70086 16.4795 9.76439 16.2108 9.91999 15.9951C10.0756 15.7794 10.3105 15.6343 10.573 15.5918C10.8356 15.5493 11.1043 15.6128 11.32 15.7684L14.5333 18.0751L20.56 11.9151C20.6515 11.8207 20.7608 11.7454 20.8817 11.6936C21.0025 11.6417 21.1324 11.6144 21.2639 11.6132C21.3953 11.6119 21.5257 11.6368 21.6475 11.6863C21.7693 11.7359 21.88 11.8091 21.9733 11.9017C22.1611 12.0882 22.2678 12.3411 22.2703 12.6057C22.2728 12.8703 22.1709 13.1252 21.9867 13.3151Z" fill="#366159"/>
</svg>
