<svg width="56" height="56" viewBox="0 0 56 56" fill="none" xmlns="http://www.w3.org/2000/svg">
<circle cx="28" cy="28" r="28" fill="#F0FDFA"/>
<path d="M20.0853 37.6081H36.136M20.0851 12.4004H39.9999L40 33.5205V41.696H32.5458M40 33.5205H20.067C17.8209 33.5205 16.0001 35.3506 16.0001 37.6082M16.0001 37.6082C16.0001 39.8659 17.8209 41.696 20.067 41.696H28M16.0001 37.6082L16 16.5065C16 14.2387 17.829 12.4004 20.0851 12.4004M20.0851 12.4004L20.0853 33.5205M28.0032 37.681V43.6004L30.2745 42.1404L32.5457 43.6004V37.681H28.0032ZM25.2216 16.9315H35.3276V22.3131H25.2216V16.9315Z" stroke="#366159" stroke-width="2" stroke-miterlimit="10" stroke-linecap="round" stroke-linejoin="round"/>
</svg>
