<svg width="56" height="56" viewBox="0 0 56 56" fill="none" xmlns="http://www.w3.org/2000/svg">
<circle cx="28" cy="28" r="28" fill="#F0FDFA"/>
<path d="M37.5644 32.647V24.8665C37.5644 23.1757 38.9351 21.8049 40.626 21.8049H42V33.6842C42 35.2177 41.4304 36.6896 40.4144 37.7816L36.1616 42.0344M33.5385 37.5407L37.0111 34.0681L37.0112 34.0681C37.355 33.6941 37.5649 33.1951 37.5649 32.647C37.5649 31.4869 36.6245 30.5465 35.4644 30.5465C34.8844 30.5465 34.3592 30.7816 33.9791 31.1617L28 37.1409M18.4356 32.647V24.8665C18.4356 23.1757 17.0649 21.8049 15.374 21.8049H14V33.6842C14 35.2177 14.5695 36.6896 15.5856 37.7816L19.8384 42.0345M22.4615 37.5407L18.9889 34.0681L18.9888 34.0681C18.645 33.6941 18.4351 33.1951 18.4351 32.647C18.4351 31.4869 19.3755 30.5465 20.5356 30.5465C21.1156 30.5465 21.6408 30.7816 22.0209 31.1617L28 37.141V42.0281M34.8464 20.9933L27.9997 27.3752L21.1535 20.9932C18.5203 18.5385 20.1468 14.0732 23.7452 13.9689C23.7939 13.9675 23.8427 13.9668 23.8915 13.9668C25.6013 13.9668 27.1089 14.8325 28.0001 16.1494C28.8912 14.8325 30.3988 13.9668 32.1087 13.9668C32.1576 13.9668 32.2063 13.9675 32.2549 13.9689C35.8533 14.0731 37.4798 18.5387 34.8464 20.9933Z" stroke="#366159" stroke-width="2" stroke-miterlimit="10" stroke-linecap="round" stroke-linejoin="round"/>
</svg>
