<svg width="56" height="56" viewBox="0 0 56 56" fill="none" xmlns="http://www.w3.org/2000/svg">
<circle cx="28" cy="28" r="28" fill="#F0FDFA"/>
<path d="M26.8 30.3996C26.6264 30.3994 26.4549 30.3617 26.2972 30.2892L10.6972 23.0892C10.4891 22.9932 10.3128 22.8395 10.1892 22.6464C10.0657 22.4533 10 22.2289 10 21.9996C10 21.7704 10.0657 21.5459 10.1892 21.3528C10.3128 21.1597 10.4891 21.0061 10.6972 20.91L26.2972 13.71C26.4549 13.6373 26.6264 13.5996 26.8 13.5996C26.9736 13.5996 27.1452 13.6373 27.3028 13.71L42.9028 20.91C43.111 21.0061 43.2872 21.1597 43.4108 21.3528C43.5344 21.5459 43.6 21.7704 43.6 21.9996C43.6 22.2289 43.5344 22.4533 43.4108 22.6464C43.2872 22.8395 43.111 22.9932 42.9028 23.0892L27.3028 30.2892C27.1451 30.3617 26.9736 30.3994 26.8 30.3996ZM14.0632 21.9996L26.8 27.8796L39.5368 21.9996L26.8 16.1196L14.0632 21.9996Z" fill="#366159"/>
<path d="M42.4 37.5996C42.0817 37.5996 41.7765 37.4732 41.5515 37.2481C41.3264 37.0231 41.2 36.7179 41.2 36.3996V21.9996C41.2 21.6814 41.3264 21.3761 41.5515 21.1511C41.7765 20.926 42.0817 20.7996 42.4 20.7996C42.7183 20.7996 43.0235 20.926 43.2485 21.1511C43.4736 21.3761 43.6 21.6814 43.6 21.9996L43.6 36.3996C43.6 36.7179 43.4736 37.0231 43.2485 37.2481C43.0235 37.4732 42.7183 37.5996 42.4 37.5996ZM26.8 38.7996C21.3094 38.7996 15.4 37.2996 15.4 33.9996V24.9996C15.4 24.6814 15.5265 24.3761 15.7515 24.1511C15.9765 23.926 16.2818 23.7996 16.6 23.7996C16.9183 23.7996 17.2235 23.926 17.4486 24.1511C17.6736 24.3761 17.8 24.6814 17.8 24.9996V33.9996C17.8 34.6962 20.9542 36.3996 26.8 36.3996C32.6458 36.3996 35.8 34.6962 35.8 33.9996V24.9996C35.8 24.6814 35.9264 24.3761 36.1515 24.1511C36.3765 23.926 36.6817 23.7996 37 23.7996C37.3183 23.7996 37.6235 23.926 37.8485 24.1511C38.0736 24.3761 38.2 24.6814 38.2 24.9996V33.9996C38.2 37.2996 32.2906 38.7996 26.8 38.7996Z" fill="#366159"/>
<path d="M42.4 42.3996C41.688 42.3996 40.992 42.1885 40.4 41.7929C39.8079 41.3973 39.3465 40.8351 39.074 40.1773C38.8016 39.5194 38.7303 38.7956 38.8692 38.0973C39.0081 37.3989 39.351 36.7575 39.8544 36.254C40.3579 35.7505 40.9993 35.4077 41.6977 35.2688C42.396 35.1299 43.1198 35.2012 43.7777 35.4736C44.4355 35.7461 44.9977 36.2075 45.3933 36.7995C45.7889 37.3916 46 38.0876 46 38.7996C45.999 39.7541 45.6195 40.6692 44.9445 41.3441C44.2696 42.0191 43.3545 42.3986 42.4 42.3996ZM42.4 37.5996C42.1627 37.5996 41.9307 37.67 41.7333 37.8018C41.536 37.9337 41.3822 38.1211 41.2913 38.3404C41.2005 38.5597 41.1768 38.8009 41.2231 39.0337C41.2694 39.2665 41.3837 39.4803 41.5515 39.6481C41.7193 39.816 41.9331 39.9302 42.1659 39.9765C42.3987 40.0228 42.6399 39.9991 42.8592 39.9083C43.0785 39.8174 43.2659 39.6636 43.3978 39.4663C43.5296 39.2689 43.6 39.0369 43.6 38.7996C43.6 38.4813 43.4736 38.1761 43.2485 37.9511C43.0235 37.726 42.7183 37.5996 42.4 37.5996Z" fill="#366159"/>
</svg>
