<svg width="56" height="56" viewBox="0 0 56 56" fill="none" xmlns="http://www.w3.org/2000/svg">
<circle cx="28" cy="28" r="28" fill="#F0FDFA"/>
<path d="M37.0519 31.0052C39.0494 28.8222 40.27 25.9171 40.27 22.7319C40.27 15.9678 34.767 10.4648 28.003 10.4648C21.2389 10.4648 15.7359 15.9678 15.7359 22.7319C15.7359 25.9303 16.9668 28.8463 18.9791 31.0322L14 41.6125L19.0616 41.6786L22.3386 45.5366L27.3072 34.9787C27.5376 34.9916 27.7694 34.9988 28.003 34.9988C28.2365 34.9988 28.4684 34.9916 28.6987 34.9787L33.6674 45.5366L36.9444 41.6786L42 41.6125L37.0519 31.0052ZM21.8385 41.7745L20.0226 39.6365L17.2177 39.5998L20.5676 32.4815C21.9146 33.5112 23.48 34.2688 25.1815 34.6708L21.8385 41.7745ZM28.003 32.9444C22.3718 32.9444 17.7904 28.3631 17.7904 22.7318C17.7904 17.1006 22.3717 12.5192 28.003 12.5192C33.6341 12.5192 38.2155 17.1005 38.2155 22.7318C38.2155 28.3631 33.6341 32.9444 28.003 32.9444ZM35.9833 39.6366L34.1674 41.7745L30.8244 34.6709C32.5369 34.2662 34.1115 33.5016 35.4644 32.4616L38.7941 39.5998L35.9833 39.6366Z" fill="#366159"/>
<path d="M36.0019 20.2368L30.4747 19.4337L28.0029 14.4252L25.531 19.4337L20.0039 20.2368L24.0034 24.1353L23.0592 29.6402L28.0029 27.0412L32.9465 29.6402L32.0024 24.1353L36.0019 20.2368ZM30.218 25.8847L28.0029 24.7201L25.7878 25.8847L26.2108 23.4181L24.4188 21.6714L26.8953 21.3115L28.0029 19.0674L29.1104 21.3115L31.5869 21.6714L29.7949 23.4181L30.218 25.8847Z" fill="#366159"/>
</svg>
