<svg width="56" height="56" viewBox="0 0 56 56" fill="none" xmlns="http://www.w3.org/2000/svg">
<circle cx="28" cy="28" r="28" fill="#F0FDFA"/>
<path d="M32.4907 28.6675C33.4382 27.9678 34.2085 27.0558 34.7396 26.0045C35.2707 24.9533 35.5479 23.7921 35.549 22.6143C35.549 18.4522 32.1632 15.0664 28.0011 15.0664C23.8389 15.0664 20.4532 18.4522 20.4532 22.6143C20.4542 23.7921 20.7314 24.9533 21.2626 26.0045C21.7937 27.0558 22.5639 27.9678 23.5114 28.6675C20.2115 29.7767 17.8255 32.893 17.8255 36.5612V37.6135C17.8255 38.8613 18.7114 39.9373 19.9323 40.1714C25.2644 41.1896 30.741 41.1896 36.073 40.1714C36.6663 40.0557 37.201 39.7372 37.5852 39.2705C37.9694 38.8038 38.1792 38.218 38.1788 37.6135V36.5612C38.1766 32.893 35.7895 29.7767 32.4907 28.6675ZM22.385 22.6143C22.385 19.5185 24.9042 16.9993 28 16.9993C31.0958 16.9993 33.615 19.5185 33.615 22.6143C33.615 25.7102 31.0958 28.2294 28 28.2294C24.9042 28.2294 22.385 25.7112 22.385 22.6143ZM36.2427 37.6135C36.2427 37.9357 36.0172 38.2138 35.7068 38.2728C30.615 39.2414 25.3861 39.2414 20.2942 38.2728C20.1422 38.2422 20.0055 38.1597 19.9076 38.0395C19.8096 37.9192 19.7565 37.7686 19.7573 37.6135V36.5612C19.759 34.8648 20.4336 33.2383 21.633 32.0387C22.8325 30.8391 24.4588 30.1642 26.1552 30.1622H29.8448C31.5412 30.1642 33.1676 30.8391 34.367 32.0387C35.5664 33.2383 36.241 34.8648 36.2427 36.5612V37.6135Z" fill="#366159"/>
<path d="M39.8754 28.3206C40.5155 27.7405 41.0276 27.0333 41.3791 26.2442C41.7306 25.4551 41.9137 24.6014 41.9168 23.7375C41.9212 22.4977 41.5502 21.2856 40.8525 20.2607C40.1548 19.2358 39.1632 18.4462 38.0081 17.9958C37.7697 17.9018 37.5037 17.9064 37.2687 18.0085C37.0337 18.1106 36.8489 18.3019 36.7549 18.5402C36.6609 18.7786 36.6655 19.0446 36.7676 19.2796C36.8697 19.5146 37.061 19.6994 37.2993 19.7934C38.0925 20.1027 38.7735 20.645 39.2525 21.3488C39.7315 22.0527 39.9861 22.8851 39.9828 23.7365C39.9795 24.5935 39.7185 25.4297 39.2336 26.1364C38.7487 26.8431 38.0624 27.3875 37.2639 27.6989C37.0627 27.7754 36.8929 27.9169 36.7814 28.1009C36.6698 28.285 36.623 28.501 36.6483 28.7147C36.6736 28.9284 36.7696 29.1276 36.921 29.2805C37.0724 29.4334 37.2706 29.5314 37.484 29.5588C39.8819 29.8755 42.0671 32.3625 42.0671 34.7754V35.6022C42.0671 35.7601 41.9554 35.9029 41.803 35.933C41.6129 35.9706 41.4153 36.0049 41.2113 36.0404L40.7989 36.1123C40.5537 36.1652 40.3386 36.3114 40.1992 36.52C40.0598 36.7286 40.0069 36.9832 40.0518 37.23C40.0968 37.4768 40.2359 37.6965 40.4398 37.8426C40.6438 37.9888 40.8965 38.0498 41.1447 38.013L41.5377 37.9443C41.7589 37.9056 41.9748 37.8691 42.1788 37.8283C42.6928 37.7248 43.1551 37.4465 43.4871 37.0407C43.8192 36.6349 44.0004 36.1266 44 35.6022V34.7754C44 32.1112 42.254 29.5373 39.8754 28.3206ZM15.2011 36.1145L14.7887 36.0425C14.5858 36.0071 14.3871 35.9738 14.1938 35.9341C14.1193 35.917 14.0529 35.875 14.0054 35.8151C13.958 35.7551 13.9324 35.6808 13.9329 35.6044V34.7775C13.9329 32.3647 16.117 29.8777 18.516 29.5609C18.7288 29.5326 18.9262 29.4343 19.0769 29.2814C19.2277 29.1285 19.3232 28.9297 19.3484 28.7165C19.3737 28.5032 19.3272 28.2877 19.2163 28.1038C19.1054 27.9199 18.9365 27.7782 18.7361 27.701C17.9376 27.3898 17.2512 26.8454 16.7662 26.1387C16.2813 25.432 16.0203 24.5957 16.0172 23.7386C16.0172 21.9861 17.0695 20.4377 18.7007 19.7955C18.9392 19.7016 19.1306 19.5167 19.2328 19.2816C19.335 19.0464 19.3396 18.7804 19.2456 18.5418C19.1517 18.3033 18.9668 18.1119 18.7317 18.0097C18.4965 17.9075 18.2305 17.9029 17.9919 17.9969C16.8368 18.4473 15.8452 19.2369 15.1475 20.2618C14.4498 21.2867 14.0787 22.4988 14.0832 23.7386C14.0832 25.5061 14.8564 27.1684 16.1246 28.3217C13.746 29.5373 12 32.1112 12 34.7775V35.6044C12 36.6868 12.7667 37.6232 13.818 37.8294C14.0242 37.8712 14.2411 37.9077 14.4623 37.9464L14.8553 38.0151C14.9802 38.0385 15.1085 38.0369 15.2329 38.0104C15.3572 37.9839 15.475 37.9331 15.5795 37.8608C15.684 37.7885 15.7732 37.6962 15.8419 37.5893C15.9106 37.4823 15.9574 37.3628 15.9796 37.2377C16.0253 36.9855 15.9689 36.7255 15.8229 36.5148C15.6769 36.3042 15.4533 36.1602 15.2011 36.1145Z" fill="#366159"/>
</svg>
